<svg xmlns="http://www.w3.org/2000/svg" width="33" height="19" viewBox="0 0 33 19"><path fill="#f1f1f1" d="M28.4 12.08c1.1 1.1 2.25 2.1 3.23 3.3.44.54.85 1.1 1.16 1.7.44.88.03 1.85-.74 1.9h-4.8c-1.25.1-2.24-.4-3.07-1.27-.67-.68-1.3-1.4-1.93-2.12-.26-.3-.54-.57-.87-.8-.65-.42-1.22-.3-1.6.4-.38.72-.47 1.5-.5 2.3-.05 1.14-.4 1.45-1.53 1.5-2.43.12-4.74-.26-6.88-1.5-1.9-1.1-3.37-2.66-4.64-4.4C3.78 9.63 1.88 5.87.16 2-.2 1.15.07.68 1.02.66 2.6.63 4.15.63 5.7.66c.65 0 1.07.38 1.32 1 .85 2.12 1.9 4.14 3.2 6 .34.5.7 1 1.2 1.36.55.4.98.26 1.24-.38.17-.4.24-.83.28-1.26.12-1.47.14-2.95-.08-4.42-.14-.92-.64-1.5-1.54-1.68-.46-.1-.4-.27-.17-.53.38-.46.75-.75 1.47-.75h5.44c.85.17 1.04.56 1.16 1.44v6.14c0 .34.17 1.34.77 1.57.47.16.8-.23 1.07-.54 1.3-1.4 2.23-3.06 3.06-4.78.37-.75.7-1.54 1-2.32.22-.58.58-.87 1.22-.86h5.23c.16 0 .3 0 .46.04.88.15 1.13.53.85 1.4-.43 1.38-1.27 2.53-2.08 3.68-.88 1.23-1.8 2.4-2.67 3.65-.8 1.13-.74 1.7.25 2.68zm0 0"/></svg>
