<svg xmlns="http://www.w3.org/2000/svg" width="19" height="19" viewBox="0 0 19 19"><path fill="#f1f1f1" d="M2.44 0h14.12C17.9 0 19 1 19 2.44v14.12C19 18 17.9 19 16.56 19H2.44C1.1 19 0 18 0 16.56V2.44C0 1 1.1 0 2.44 0zm11.4 2.1c-.47 0-.85.4-.85.87V5c0 .48.37.87.84.87H16c.46 0 .84-.4.84-.86V2.98c0-.47-.38-.86-.85-.86zm3 5.93H15.2c.16.52.24 1.07.24 1.63 0 3.17-2.64 5.73-5.9 5.73-3.26 0-5.9-2.57-5.9-5.74 0-.56.08-1.1.24-1.63H2.1v8.03c0 .42.35.76.77.76H16.1c.4 0 .75-.34.75-.76V8.03zM9.53 5.76c-2.1 0-3.82 1.66-3.82 3.7s1.7 3.7 3.82 3.7c2.1 0 3.8-1.66 3.8-3.7s-1.7-3.7-3.8-3.7z"/></svg>