<svg xmlns="http://www.w3.org/2000/svg" width="15" height="16" viewBox="0 0 15 16"><path fill="#aeb1b3" d="M14.52 8.94c.32-.47.48-1 .48-1.56 0-.67-.25-1.24-.74-1.73-.5-.48-1.08-.73-1.76-.73h-1.72c.3-.63.47-1.25.47-1.84 0-.75-.1-1.35-.34-1.8-.22-.43-.55-.76-1-.97C9.5.1 9 0 8.45 0c-.33 0-.63.12-.88.36-.28.27-.48.6-.6 1.03-.13.42-.23.82-.3 1.2-.08.4-.2.67-.35.83-.3.34-.66.75-1.04 1.23-.65.84-1.1 1.34-1.33 1.5H1.25c-.35 0-.64.1-.88.35-.25.25-.37.54-.37.88v6.16c0 .34.12.63.37.87.24.25.53.37.88.37h2.8c.16 0 .6.13 1.36.38.8.28 1.52.5 2.12.63.6.15 1.23.22 1.86.22h1.25c.92 0 1.66-.26 2.22-.77.56-.52.84-1.22.83-2.1.4-.5.6-1.08.6-1.73 0-.14-.02-.27-.04-.4.25-.44.37-.9.37-1.4 0-.22-.02-.45-.08-.66zm-12.2 4.42c-.13.12-.28.18-.44.18-.17 0-.32-.06-.44-.18-.13-.13-.2-.27-.2-.44 0-.16.07-.3.2-.43.12-.13.27-.2.44-.2.16 0 .3.07.43.2.14.1.2.26.2.42 0 .17-.06.3-.2.44zm11.22-5.2c-.14.3-.3.45-.52.46.1.1.18.26.24.45.07.2.1.38.1.54 0 .45-.17.83-.52 1.15.12.2.18.43.18.66 0 .25-.06.5-.17.72-.12.23-.27.4-.47.5.04.2.05.38.05.54 0 1.07-.62 1.6-1.87 1.6H9.38c-.86 0-1.97-.22-3.34-.7-.04 0-.13-.04-.3-.1-.14-.05-.26-.1-.33-.1-.07-.04-.18-.08-.34-.12-.15-.05-.27-.1-.37-.1-.1-.03-.2-.05-.33-.07-.12-.02-.22-.03-.3-.03h-.32V7.4h.3c.12-.02.23-.04.36-.1.14-.06.27-.15.4-.26.13-.12.26-.23.38-.34.1-.1.24-.26.4-.43.13-.17.24-.3.32-.4.08-.1.2-.24.3-.4.13-.16.2-.25.24-.3.35-.42.6-.7.75-.86.25-.27.45-.62.57-1.04.12-.43.22-.83.3-1.2.07-.4.2-.66.37-.83.62 0 1.04.15 1.25.45.2.3.3.77.3 1.4 0 .38-.16.9-.47 1.54-.3.65-.47 1.16-.47 1.53h3.44c.33 0 .62.13.87.37.25.25.38.54.38.86 0 .23-.07.5-.2.78z"/></svg>