<svg xmlns="http://www.w3.org/2000/svg" width="24" height="13.5" viewBox="0 0 24 13.5"><path fill="#aaa" d="M11.8 0C9.58.03 7.44.54 5.45 1.53c-1.96.97-3.7 2.4-5.05 4.1-.53.66-.53 1.58 0 2.24C1.73 9.6 3.47 11 5.43 11.97c2 1 4.13 1.5 6.37 1.53.08 0 .32 0 .4 0 2.22-.03 4.37-.54 6.36-1.53 1.96-.97 3.7-2.38 5.05-4.1.53-.66.53-1.58 0-2.24-1.34-1.7-3.08-3.13-5.04-4.1-2-1-4.14-1.5-6.37-1.53-.08 0-.32 0-.4 0zm.2.97c3.2 0 5.83 2.6 5.83 5.78 0 3.2-2.62 5.78-5.83 5.78-3.2 0-5.83-2.6-5.83-5.78C6.17 3.55 8.8.97 12 .97zm4.54.76c.54.2 1.07.4 1.6.67 1.8.9 3.44 2.23 4.7 3.83.24.3.24.73 0 1.04-1.26 1.6-2.9 2.93-4.7 3.83-.53.26-1.06.48-1.6.67 1.4-1.24 2.26-3.03 2.26-5.02 0-2-.87-3.8-2.26-5.02zm-9.08 0C6.06 2.97 5.2 4.76 5.2 6.75c0 2 .87 3.78 2.26 5.02-.54-.2-1.07-.4-1.6-.67-1.8-.9-3.44-2.23-4.7-3.83-.24-.3-.24-.73 0-1.04 1.26-1.6 2.9-2.93 4.7-3.83.53-.26 1.06-.48 1.6-.67zM12 4.25c-1.38 0-2.5 1.12-2.5 2.5s1.12 2.5 2.5 2.5 2.5-1.12 2.5-2.5-1.12-2.5-2.5-2.5z"/></svg>