<svg xmlns="http://www.w3.org/2000/svg" width="16" height="16" viewBox="0 0 16 16"><path fill="#aaa" d="M15.98 7.47c-.26-4-3.45-7.2-7.45-7.45V0H7.47v.02C3.47.28.27 3.47.02 7.47H0v1.06h.02c.26 4 3.45 7.2 7.45 7.45V16h1.06v-.02c4-.26 7.2-3.45 7.45-7.45H16V7.47zM5 1.74c-.5.7-.93 1.55-1.25 2.53h-1.6c.7-1.1 1.7-1.97 2.86-2.53zm-3.4 3.6h1.87C3.33 6 3.24 6.7 3.2 7.46H1.1c.04-.75.22-1.47.5-2.14zm-.5 3.2h2.1c.04.74.13 1.45.27 2.13H1.6c-.28-.67-.46-1.4-.5-2.14zm1.06 3.2h1.6c.3.97.73 1.83 1.25 2.52-1.16-.56-2.15-1.44-2.84-2.53zm5.3 3.13c-1.1-.3-2.03-1.48-2.6-3.14h2.6zm0-4.2h-2.9c-.16-.67-.25-1.4-.28-2.14h3.2zm0-3.2H4.3c.03-.75.12-1.47.27-2.14h2.92zm0-3.2h-2.6c.57-1.66 1.5-2.84 2.6-3.13zm6.38 0h-1.6c-.3-.98-.73-1.84-1.25-2.53 1.16.56 2.15 1.44 2.84 2.53zm-5.3-3.13c1.1.3 2.03 1.47 2.6 3.13h-2.6zm0 4.2h2.9c.16.66.25 1.38.28 2.13h-3.2zm0 3.2h3.18c-.03.74-.12 1.46-.27 2.13H8.53zm0 6.33v-3.14h2.6c-.57 1.66-1.5 2.84-2.6 3.14zm2.45-.6c.5-.7.94-1.56 1.25-2.54h1.6c-.7 1.1-1.7 1.97-2.86 2.53zm3.4-3.6h-1.87c.14-.68.23-1.4.26-2.14h2.1c-.04.75-.22 1.47-.5 2.14zm-1.6-3.2c-.04-.75-.13-1.46-.27-2.14h1.87c.28.67.46 1.4.5 2.14z"/></svg>