<svg xmlns="http://www.w3.org/2000/svg" width="16" height="16" viewBox="0 0 16 16"><path fill="#aaa" d="M12.3 4.3c-.33 0-.6-.27-.6-.6V2.45c0-.34.27-.6.6-.6h1.24c.34 0 .6.26.6.6V3.7c0 .33-.26.6-.6.6zM8 5.65c-.45 0-.86.14-1.2.35.1-.03.2-.06.33-.06.66 0 1.2.54 1.2 1.2 0 .65-.54 1.18-1.2 1.18-.65 0-1.2-.53-1.2-1.2 0-.1.04-.22.07-.33-.22.34-.35.75-.35 1.2 0 1.3 1.05 2.35 2.35 2.35S10.35 9.3 10.35 8 9.3 5.65 8 5.65zM8 4.3c2.04 0 3.7 1.66 3.7 3.7s-1.66 3.7-3.7 3.7S4.3 10.03 4.3 8 5.97 4.3 8 4.3M8 3.1c-2.7 0-4.92 2.2-4.92 4.92s2.2 4.92 4.92 4.92c2.7 0 4.92-2.2 4.92-4.92S10.72 3.08 8 3.08zM13 0H3C1.34 0 0 1.34 0 3v10c0 1.66 1.34 3 3 3h10c1.66 0 3-1.34 3-3V3c0-1.66-1.34-3-3-3zm1.77 5.54h-4.02c.58.65.94 1.5.94 2.46 0 2.04-1.66 3.7-3.7 3.7S4.3 10.03 4.3 8c0-.95.37-1.8.95-2.46H1.23V3c0-.98.8-1.77 1.77-1.77h10c.98 0 1.77.8 1.77 1.77z"/></svg>