<svg xmlns="http://www.w3.org/2000/svg" width="21" height="12" viewBox="0 0 21 12"><path fill="#aaa" d="M18.08 7.63c.7.7 1.43 1.32 2.05 2.08.28.35.55.7.74 1.08.28.56.02 1.17-.47 1.2h-3.05c-.8.06-1.43-.25-1.96-.8-.44-.43-.84-.88-1.24-1.34-.16-.2-.34-.36-.55-.5-.4-.27-.77-.2-1 .25-.25.44-.3.93-.33 1.44-.03.72-.25.92-.97.95-1.55.06-3.02-.18-4.38-.96-1.2-.7-2.15-1.68-2.96-2.78C2.4 6.08 1.2 3.7.1 1.26-.13.73.04.43.65.42c1-.02 2-.02 2.97 0 .42 0 .7.24.85.63.54 1.34 1.2 2.6 2.03 3.8.22.3.45.62.77.84.35.25.62.16.8-.25.1-.25.14-.52.16-.8.08-.92.1-1.85-.05-2.78-.1-.58-.4-.95-.98-1.06-.3-.06-.25-.16-.1-.33.24-.3.47-.47.93-.47h3.46c.54.1.66.35.73.9V4.8c0 .22.1.85.5 1 .3.1.5-.15.67-.35.83-.88 1.42-1.93 1.95-3 .24-.5.45-.98.64-1.48.13-.36.36-.55.77-.54h3.33c.1 0 .2 0 .3.04.55.1.7.33.53.88-.27.87-.8 1.6-1.32 2.32-.55.78-1.14 1.52-1.7 2.3-.5.72-.47 1.08.17 1.7zm0 0"/></svg>