<svg xmlns="http://www.w3.org/2000/svg" width="60" height="60"><g><path fill-opacity=".2" d="M45 30c-8.3 0-15 6.7-15 15s6.7 15 15 15 15-6.7 15-15-6.7-15-15-15zm-2.5 5h5v7.5H55v5h-7.5V55h-5v-7.5H35v-5h7.5V35zM25 45c0-10.2 7.64-18.6 17.5-19.83 0-.1 0-.17 0-.17.64-.94 2.5-2.5 2.5-5 0-2.52-2.5-5-2.5-6.25C42.5 3.75 37.4 0 30 0c-7.1 0-12.5 3.75-12.5 13.75C17.5 15 15 17.5 15 20c0 2.5 1.78 4.14 2.5 5 0 0 0 2.5 1.25 6.24 0 1.26 2.5 2.5 3.75 3.75 0 1.25 0 2.5-1.25 5L7.5 42.5C2.5 43.75 0 52.5 0 60h31.8c-4.16-3.67-6.8-9.02-6.8-15z"/></g></svg>