<svg xmlns="http://www.w3.org/2000/svg" width="36" height="36"><g><path fill-opacity=".2" d="M10.5 0L0 3v33l10.5-3v-5.25c-.3.35-.6.65-.88 1.04-.67.87-1.2 1.57-1.8 1.86-.33.18-.7.26-1.05.26-1.66 0-3.33-1.67-4.3-2.65-1.24-1.23-.24-2.77.65-4.1.64-1 1.38-2.13 1.38-3.17v-6H6v6c0 1.5-.87 2.82-1.63 3.98-.85 1.32-1.16 1.92-.84 2.24 1.22 1.22 2.73 2.57 3.63 2.1.28-.13.8-.82 1.27-1.43.57-.77 1.25-1.64 2.07-2.4V0zM12 0v24.37c1.1-.6 2.43-.85 4-.33 1 .34 1.32-.06 1.45-.23.57-.74.7-1.3.55-1.3.5 0 1.05.15 1.5 0 0 .75-.28 1.47-.86 2.22-.4.54-1.35 1.33-3.13.74-1.37-.46-2.48-.1-3.5.72V33l12 3V9.4c-1.28-.4-2.45-.8-3.34-1.23-1.47-.74-3.58-.47-4.5.57-.8.9-.33 2.04.2 2.84.26.37.65 1.46.9 1.9-.5.1-1.07-.24-1.5 0-.18-.33-.43-.77-.63-1.07-1.15-1.72-1.2-3.42-.1-4.66 1.4-1.55 4.2-1.97 6.3-.92.7.34 1.64.67 2.67 1V3L12 0zm24 0L25.5 3v5.27c.23.06.44.13.67.2 2.88.8 5.87 1.66 7.33 2.97 1.7 1.53.57 3.54-.43 5.32-.78 1.37-1.57 2.78-1.57 4.24H30c0-1.85.94-3.5 1.76-4.98 1.1-1.94 1.48-2.8.74-3.46-1.2-1.08-4.15-1.92-6.74-2.66-.1-.03-.17-.05-.26-.08V36L36 33V0zM5.25 9C6.5 9 7.5 10 7.5 11.25c0 1.24-1 2.25-2.25 2.25C4 13.5 3 12.5 3 11.25 3 10 4 9 5.25 9zM18 15c1.65 0 3 1.34 3 3s-1.34 3-3 3c-1.65 0-3-1.34-3-3 0-1.65 1.35-3 3-3zm10.5 7.5l2.25 2.25L33 22.5l1.5 1.5-2.25 2.25 2.25 2.25L33 30l-2.25-2.25L28.5 30 27 28.5l2.25-2.25L27 24l1.5-1.5z"/></g></svg>