<svg xmlns="http://www.w3.org/2000/svg" width="195" height="70" viewBox="0 0 195 70.000001"><path fill="#00a3d9" d="M140.3 0l-15 13.07h9.93v8.06h-5.56V70h21.27V21.13h-5.56v-8.06h9.93L140.3 0zm-3.57 13.07h7.15v8.06h-7.15v-8.06zM0 21.13V70h34.03c4.15 0 7.95-.27 11.4-.82 3.43-.55 6.44-1.36 9-2.45 2.58-1.08 4.58-2.5 6-4.23 1.43-1.74 2.14-3.72 2.14-5.95 0-3.14-1.45-5.72-4.34-7.72-2.88-2-6.9-3.4-12.05-4.2v-.9c3.62-.65 6.55-1.88 8.8-3.7 2.23-1.84 3.34-4.07 3.34-6.7 0-1.92-.68-3.67-2.04-5.23-1.36-1.56-3.2-2.84-5.54-3.85-2.33-1-5-1.77-8.05-2.3-3.06-.55-6.28-.8-9.7-.8H0zm158.55 0c-.4.02-.63.03-.63.03v33.76c0 2.26.33 4.25 1 5.96.68 1.72 1.6 3.16 2.8 4.3 1.2 1.15 2.7 2.1 4.5 2.82 1.78.72 3.73 1.24 5.85 1.54 2.1.3 4.5.46 7.12.46 5 0 8.88-.8 11.65-2.4 2.76-1.6 4.15-4 4.15-7.23h-2.43c0 4.83-4.35 7.12-13.27 7.12V48.2h10.95v-1.75H179.3V35.23c-18.53-13.63-.18-.33-19.02-14.07-.73-.03-1.32-.03-1.73-.02zM24.3 23.6h9.73v43.98H24.3V23.58zm65.07 8.56c-2.88 0-5.4.17-7.55.5s-4.17.9-6.04 1.77c-1.88.86-3.4 2-4.6 3.4s-2.1 3.24-2.78 5.46c-.66 2.2-1 4.82-1 7.83 0 2.23.17 4.25.5 6.03s.83 3.32 1.45 4.64c.6 1.3 1.42 2.45 2.42 3.4 1 .98 2.06 1.77 3.2 2.38 1.16.62 2.52 1.1 4.08 1.48 1.57.37 3.16.62 4.8.76 1.6.13 3.45.2 5.52.2h7.13c2.06 0 3.9-.07 5.53-.2s3.22-.4 4.78-.77c1.58-.37 2.93-.86 4.08-1.48 1.15-.6 2.22-1.4 3.22-2.37 1-.96 1.8-2.1 2.42-3.4s1.1-2.87 1.43-4.65.5-3.8.5-6.04c0-3.02-.32-5.63-1-7.84-.66-2.22-1.58-4.04-2.77-5.45s-2.72-2.54-4.6-3.4c-1.87-.85-3.88-1.44-6.04-1.77-2.15-.32-4.66-.5-7.54-.5h-7.13zm-.7 2.43h8.52v33h-8.52v-33z"/></svg>