<svg xmlns="http://www.w3.org/2000/svg" width="36" height="36"><g><path fill="#ff9f3f" d="M15.88 0l-5.8 1.56.67 4.94c-.8.5-1.54 1.06-2.2 1.68l-4.4-1.82L1 11.48l3.8 3.07c-.3 1.05-.45 2.14-.48 3.23L0 19.58l1.4 5.85 4.82-.52c.56.98 1.2 1.86 1.97 2.64l-1.8 4.3 5.13 3.17 3.07-3.8c1.04.26 2.1.4 3.18.4L19.6 36l5.85-1.4-.53-4.97c.9-.55 1.74-1.18 2.45-1.9l4.5 1.85L35 24.46l-3.97-3.2c.24-.98.37-2 .4-3l4.55-1.9-1.4-5.85-5.1.56c-.52-.87-1.12-1.67-1.8-2.38l1.9-4.6L24.48.94l-3.2 3.97c-1.1-.3-2.24-.44-3.4-.44L15.9 0zM18 9.66c4.58 0 8.3 3.73 8.3 8.33S22.58 26.3 18 26.3 9.7 22.6 9.7 18c0-4.6 3.72-8.34 8.3-8.34zm0 5.55c-1.54 0-2.8 1.26-2.8 2.8 0 1.54 1.26 2.8 2.8 2.8 1.54 0 2.8-1.26 2.8-2.8 0-1.54-1.27-2.8-2.8-2.8z"/></g></svg>