<svg xmlns="http://www.w3.org/2000/svg" width="16" height="20.5" viewBox="0 0 15.999996 20.5"><path fill="#ff9f3f" d="M1.46 11.1c.67-.4 1.48-.4 2.3-.02 1.4.66 1.93 2.03 2.5 3.47.43 1.1.88 2.2 1.72 3.1 1.9 2 4.67 2.4 5.86 1.38.6-.5.55-1.18.37-1.73l-.36.3c-.02 0-.03.02-.05.02-.02 0-.03.02-.05.03 0 0-.02 0-.03 0-.02 0-.04.02-.06.03-.04 0-.07 0-.1 0s-.37 0-.93-.14c-1.43-.38-4.23-1.7-6.9-6.36C2.03 4.7 3.96 1.25 4.05 1.1c0-.02.03-.04.05-.06.02-.03.04-.04.05-.05 0-.02.02-.03.03-.03 0 0 .02-.02.04-.03 0 0 .03 0 .04-.02L6.3.08c.22-.1.46-.1.7-.05.32.1.6.33.72.64L9.15 4.2c.22.54-.05 1.16-.6 1.4l-1.73.7c.15.96.53 2.13 1.3 3.5.8 1.35 1.6 2.27 2.35 2.88l1.47-1.14c.26-.2.62-.28.95-.2.22.06.42.2.57.4l2.32 3c.34.46.26 1.13-.2 1.5l-.62.47c.37.92.5 2.15-.54 3.03-.8.7-2.07.93-3.44.65-.1-.02-.23-.05-.35-.08-1.24-.33-2.4-1.04-3.35-2.02-.96-1-1.46-2.28-1.9-3.4-.53-1.32-.98-2.47-2.05-2.97-.53-.25-1-.26-1.4-.02-.6.37-.98 1.24-1 2.34-.02.26-.24.46-.5.45-.25 0-.45-.22-.44-.47.05-1.42.6-2.57 1.46-3.1z"/></svg>