<svg xmlns="http://www.w3.org/2000/svg" width="153" height="74"><style type="text/css">.st0{fill:#FFFFFF;} .st1{fill:url(#SVGID_1_);} .st2{fill:url(#SVGID_2_);} .st3{fill:url(#SVGID_3_);} .st4{fill:url(#SVGID_4_);} .st5{opacity:0.7;fill:url(#SVGID_5_);} .st6{opacity:0.7;fill:url(#SVGID_6_);} .st7{opacity:0.7;fill:url(#SVGID_7_);} .st8{opacity:0.7;fill:url(#SVGID_8_);} .st9{opacity:0.74;fill:url(#SVGID_9_);} .st10{opacity:0.74;fill:url(#SVGID_10_);} .st11{opacity:0.4;fill:url(#SVGID_11_);} .st12{opacity:0.4;fill:url(#SVGID_12_);} .st13{opacity:0.45;fill:url(#SVGID_13_);} .st14{opacity:0.36;fill:url(#SVGID_14_);} .st15{opacity:0.5;} .st16{opacity:0.45;fill:url(#SVGID_15_);} .st17{opacity:0.36;fill:url(#SVGID_16_);} .st18{opacity:0.45;fill:url(#SVGID_17_);} .st19{opacity:0.36;fill:url(#SVGID_18_);} .st20{fill:url(#SVGID_19_);}</style><path d="M27.9 41.3c-1.3.6-2.7.5-4.3-.3-1.2-.6-2.3-1.5-3.3-2.4-1.1-.9-2.2-1.8-3-2.1-.8-.3-2.3-.3-3.7-.2-1.4 0-2.8.1-4.1-.2-1.7-.3-2.9-1.1-3.5-2.4-.6-1.3-.5-2.7.3-4.3.6-1.2 1.5-2.3 2.4-3.3.9-1.1 1.8-2.2 2.1-3 .3-.8.3-2.3.2-3.7 0-1.4-.1-2.8.2-4.1.3-1.7 1.1-2.9 2.4-3.5 1.3-.6 2.7-.5 4.3.3 1.2.6 2.3 1.5 3.3 2.4 1.1.9 2.2 1.8 3 2.1.8.3 2.3.3 3.7.2 1.4 0 2.8-.1 4.1.2 1.7.3 2.9 1.1 3.5 2.4.6 1.3.5 2.7-.3 4.3-.6 1.2-1.5 2.3-2.4 3.3-.8 1-1.8 2.1-2.1 3-.3.8-.3 2.3-.2 3.7 0 1.4.1 2.8-.2 4.1-.3 1.7-1.1 2.9-2.4 3.5zm-13-27c-1.1.5-1 2.9-1 5 0 1.7.1 3.4-.4 4.7-.5 1.3-1.5 2.6-2.6 3.9-1.3 1.6-2.9 3.4-2.4 4.5.5 1 2.9 1 5 1 1.7 0 3.4-.1 4.7.4 1.3.5 2.6 1.5 3.9 2.6 1.6 1.3 3.4 2.9 4.5 2.3 1.1-.5 1-2.9 1-5 0-1.7-.1-3.4.4-4.7.5-1.3 1.5-2.6 2.6-3.9 1.3-1.6 2.9-3.4 2.4-4.5-.5-1-2.9-1-5-1-1.7 0-3.4.1-4.7-.4-1.3-.5-2.6-1.5-3.9-2.6-1.6-1.3-3.5-2.8-4.5-2.3z" class="st0"/><linearGradient id="SVGID_1_" x1="5.376" x2="20.069" y1="24.052" y2="16.971" gradientUnits="userSpaceOnUse"><stop offset="0" stop-color="#009FFD"/><stop offset="1" stop-color="#00E2CE"/></linearGradient><path d="M8.7 26.1c.3-.4.6-.7.9-1.1-1-1.1-1.9-2.2-1.6-3 .4-1.1 2.8-1.3 4.8-1.5 1.7-.2 3.4-.3 4.6-.9 1-.5 1.9-1.3 2.8-2.2-.3-.2-.6-.5-.9-.7-.4-.4-.9-.8-1.4-1.1-.6.6-1.3 1.2-1.8 1.5-.8.4-2.3.5-3.7.7-1.4.1-2.8.3-4.1.7-1.7.5-2.8 1.5-3.2 2.8-.5 1.3-.2 2.7.8 4.2.5.7 1 1.3 1.7 2 .4-.6.8-1 1.1-1.4z" class="st1"/><linearGradient id="SVGID_2_" x1="11.245" x2="18.292" y1="36.273" y2="32.877" gradientUnits="userSpaceOnUse"><stop offset="0" stop-color="#009FFD"/><stop offset="1" stop-color="#00E2CE"/></linearGradient><path d="M20.3 38.6c-.4-.3-.7-.6-1.1-.9-1.1 1.1-2.2 1.9-3 1.6-1.1-.4-1.3-2.8-1.5-4.8-.2-1.7-.3-3.4-.9-4.6-.5-1-1.3-1.9-2.2-2.8-.2.3-.5.6-.7.9-.4.4-.7.9-1.1 1.4.6.7 1.2 1.3 1.5 1.8.4.8.5 2.3.7 3.7.1 1.4.3 2.8.6 4.1.5 1.7 1.5 2.8 2.8 3.2 1.3.5 2.7.2 4.2-.8.7-.5 1.3-1.1 2-1.7-.5-.5-.9-.8-1.3-1.1z" class="st2"/><linearGradient id="SVGID_3_" x1="23.255" x2="30.302" y1="20.149" y2="16.753" gradientUnits="userSpaceOnUse"><stop offset="0" stop-color="#009FFD"/><stop offset="1" stop-color="#00E2CE"/></linearGradient><path d="M22 11.8c-.7.5-1.3 1.1-2 1.7.4.3.8.6 1.2 1 .4.3.7.6 1.1.9 1.1-1.1 2.2-1.9 3-1.6 1.1.4 1.3 2.8 1.5 4.8.2 1.7.3 3.4.9 4.6.5 1 1.3 1.9 2.2 2.8.2-.3.5-.6.7-.9.4-.4.7-.9 1.1-1.4-.6-.7-1.2-1.3-1.5-1.8-.4-.8-.5-2.3-.7-3.7-.1-1.4-.3-2.8-.6-4.1-.5-1.7-1.5-2.8-2.8-3.2-1.2-.4-2.6-.1-4.1.9z" class="st3"/><linearGradient id="SVGID_4_" x1="21.478" x2="36.171" y1="36.055" y2="28.974" gradientUnits="userSpaceOnUse"><stop offset="0" stop-color="#009FFD"/><stop offset="1" stop-color="#00E2CE"/></linearGradient><path d="M32.9 26.9c-.3.4-.6.7-.9 1.1 1 1.1 1.9 2.2 1.6 3-.4 1.1-2.8 1.3-4.8 1.5-1.7.2-3.4.3-4.6.9-1 .5-1.9 1.3-2.8 2.2.3.2.6.5.9.7.4.4.9.8 1.4 1.1.6-.6 1.3-1.2 1.8-1.5.8-.4 2.3-.5 3.7-.7 1.4-.1 2.8-.3 4.1-.7 1.7-.5 2.8-1.5 3.2-2.8.5-1.3.2-2.7-.8-4.2-.5-.7-1-1.3-1.7-2-.5.7-.8 1.1-1.1 1.4z" class="st4"/><linearGradient id="SVGID_5_" x1="-75.225" x2="-71.512" y1="-38.679" y2="-42.393" gradientUnits="userSpaceOnUse" gradientTransform="matrix(.33 -.944 .944 .33 95.595 -26.851)"><stop offset="0" stop-color="#242F3D"/><stop offset="1" stop-color="#fff" stop-opacity="0"/></linearGradient><path d="M31.5 32.1s5.9-.9 4.4-3.6c0 0-.4-.9-2.1-2.7L32 28s1.6 1.6 1.6 2.4c.1.8-.3 1.4-2.1 1.7z" class="st5"/><linearGradient id="SVGID_6_" x1="209.67" x2="213.384" y1="-75.29" y2="-79.004" gradientUnits="userSpaceOnUse" gradientTransform="matrix(-.944 -.33 .33 -.944 248.425 11.148)"><stop offset="0" stop-color="#242F3D"/><stop offset="1" stop-color="#fff" stop-opacity="0"/></linearGradient><path d="M26.4 15.7s-.9-5.9-3.6-4.4c0 0-.9.4-2.7 2.1l2.2 1.8s1.6-1.6 2.4-1.6c.8 0 1.3.4 1.7 2.1z" class="st6"/><linearGradient id="SVGID_7_" x1="246.281" x2="249.995" y1="209.606" y2="205.892" gradientUnits="userSpaceOnUse" gradientTransform="matrix(-.33 .944 -.944 -.33 286.424 -141.682)"><stop offset="0" stop-color="#242F3D"/><stop offset="1" stop-color="#fff" stop-opacity="0"/></linearGradient><path d="M10 20.9s-5.9.9-4.4 3.6c0 0 .4.9 2.1 2.7L9.6 25S8 23.4 8 22.6c-.1-.8.3-1.4 2-1.7z" class="st7"/><linearGradient id="SVGID_8_" x1="-38.614" x2="-34.901" y1="246.216" y2="242.503" gradientUnits="userSpaceOnUse" gradientTransform="matrix(.944 .33 -.33 .944 133.594 -179.681)"><stop offset="0" stop-color="#242F3D"/><stop offset="1" stop-color="#fff" stop-opacity="0"/></linearGradient><path d="M15.1 37.3s.9 5.9 3.6 4.4c0 0 .9-.4 2.7-2.1l-2.2-1.8s-1.6 1.6-2.4 1.6c-.8 0-1.3-.4-1.7-2.1z" class="st8"/><linearGradient id="SVGID_9_" x1="-116.001" x2="-112.287" y1="111.272" y2="107.558" gradientUnits="userSpaceOnUse" gradientTransform="matrix(.901 -.434 .434 .901 83.046 -111.099)"><stop offset="0" stop-color="#1C75BC"/><stop offset="1" stop-color="#fff" stop-opacity="0"/></linearGradient><path d="M24.4 38.1s4.8 3.6 5.7.6c0 0 .4-.9.4-3.4l-2.9.3s0 2.2-.5 2.9c-.5.5-1.2.6-2.7-.4z" class="st9"/><linearGradient id="SVGID_10_" x1="59.562" x2="63.275" y1="-116.066" y2="-119.779" gradientUnits="userSpaceOnUse" gradientTransform="matrix(-.434 -.901 .901 -.434 164.176 23.697)"><stop offset="0" stop-color="#1C75BC"/><stop offset="1" stop-color="#fff" stop-opacity="0"/></linearGradient><path d="M32.4 22.9s3.6-4.8.6-5.7c0 0-.9-.4-3.4-.4l.3 2.9s2.2 0 2.9.5c.5.5.5 1.2-.4 2.7z" class="st10"/><linearGradient id="SVGID_11_" x1="286.899" x2="290.613" y1="59.497" y2="55.783" gradientUnits="userSpaceOnUse" gradientTransform="matrix(-.901 .434 -.434 -.901 298.972 -57.434)"><stop offset="0" stop-color="#1C75BC"/><stop offset="1" stop-color="#fff" stop-opacity="0"/></linearGradient><path d="M17.1 14.9s-4.8-3.6-5.7-.6c0 0-.4.9-.4 3.4l2.9-.3s0-2.2.5-2.9c.6-.5 1.3-.5 2.7.4z" class="st11"/><linearGradient id="SVGID_12_" x1="111.337" x2="115.05" y1="286.834" y2="283.12" gradientUnits="userSpaceOnUse" gradientTransform="matrix(.434 .901 -.901 .434 217.842 -192.23)"><stop offset="0" stop-color="#1C75BC"/><stop offset="1" stop-color="#fff" stop-opacity="0"/></linearGradient><path d="M9.2 30.1s-3.6 4.8-.6 5.7c0 0 .9.4 3.4.4l-.3-2.9s-2.2 0-2.9-.5c-.5-.5-.6-1.2.4-2.7z" class="st12"/><linearGradient id="SVGID_13_" x1="-67.422" x2="-67.422" y1="-43.565" y2="-49.532" gradientUnits="userSpaceOnUse" gradientTransform="matrix(.33 -.944 .944 .33 95.595 -26.851)"><stop offset="0" stop-color="#242F3D"/><stop offset=".122" stop-color="#49525D" stop-opacity=".878"/><stop offset=".357" stop-color="#898F96" stop-opacity=".643"/><stop offset=".57" stop-color="#BCBFC3" stop-opacity=".43"/><stop offset=".755" stop-color="#E0E2E4" stop-opacity=".245"/><stop offset=".905" stop-color="#F7F7F8" stop-opacity=".095"/><stop offset="1" stop-color="#fff" stop-opacity="0"/></linearGradient><path d="M26.9 19.6c.1 1.3.3 2.5.8 3.5s1.3 1.9 2.2 2.8c.2-.3.5-.6.7-.9.4-.4.7-.9 1.1-1.4-.6-.7-1.2-1.3-1.5-1.8-.4-.8-.5-2.3-.7-3.7 0-.4-.1-.8-.1-1.2l-2.5 2.7z" class="st13"/><linearGradient id="SVGID_14_" x1="-72.693" x2="-72.693" y1="-36.748" y2="-41.937" gradientUnits="userSpaceOnUse" gradientTransform="matrix(.33 -.944 .944 .33 95.595 -26.851)"><stop offset="0" stop-color="#fff" stop-opacity="0"/><stop offset=".095" stop-color="#F7F7F8" stop-opacity=".095"/><stop offset=".245" stop-color="#E0E2E4" stop-opacity=".245"/><stop offset=".43" stop-color="#BCBFC3" stop-opacity=".43"/><stop offset=".643" stop-color="#898F96" stop-opacity=".643"/><stop offset=".878" stop-color="#49525D" stop-opacity=".878"/><stop offset="1" stop-color="#242F3D"/></linearGradient><path d="M32.9 26.9c-.3.4-.6.7-.9 1.1 1 1.1 1.9 2.2 1.6 3 0 .1-.1.2-.1.2l3-.4c.1-1-.3-2-1-3.1-.5-.7-1-1.3-1.7-2-.3.5-.6.9-.9 1.2z" class="st14"/><g class="st15"><linearGradient id="SVGID_15_" x1="254.084" x2="254.084" y1="204.72" y2="198.753" gradientUnits="userSpaceOnUse" gradientTransform="matrix(-.33 .944 -.944 -.33 286.424 -141.682)"><stop offset="0" stop-color="#242F3D"/><stop offset=".122" stop-color="#49525D" stop-opacity=".878"/><stop offset=".357" stop-color="#898F96" stop-opacity=".643"/><stop offset=".57" stop-color="#BCBFC3" stop-opacity=".43"/><stop offset=".755" stop-color="#E0E2E4" stop-opacity=".245"/><stop offset=".905" stop-color="#F7F7F8" stop-opacity=".095"/><stop offset="1" stop-color="#fff" stop-opacity="0"/></linearGradient><path d="M14.7 33.4c-.1-1.3-.3-2.5-.8-3.5s-1.3-1.9-2.2-2.8c-.2.3-.5.6-.7.9-.4.4-.7.9-1.1 1.4.6.7 1.2 1.3 1.5 1.8.4.8.5 2.3.7 3.7 0 .4.1.8.1 1.2l2.5-2.7z" class="st16"/><linearGradient id="SVGID_16_" x1="248.814" x2="248.814" y1="211.537" y2="206.348" gradientUnits="userSpaceOnUse" gradientTransform="matrix(-.33 .944 -.944 -.33 286.424 -141.682)"><stop offset="0" stop-color="#fff" stop-opacity="0"/><stop offset=".095" stop-color="#F7F7F8" stop-opacity=".095"/><stop offset=".245" stop-color="#E0E2E4" stop-opacity=".245"/><stop offset=".43" stop-color="#BCBFC3" stop-opacity=".43"/><stop offset=".643" stop-color="#898F96" stop-opacity=".643"/><stop offset=".878" stop-color="#49525D" stop-opacity=".878"/><stop offset="1" stop-color="#242F3D"/></linearGradient><path d="M8.7 26.1c.3-.4.6-.7.9-1.1-1-1.1-1.9-2.2-1.6-3 0 0 0-.1.1-.2l-3 .4c-.1 1 .3 2 1 3.1.5.7 1 1.3 1.7 2 .2-.4.6-.8.9-1.2z" class="st17"/></g><linearGradient id="SVGID_17_" x1="-30.811" x2="-30.811" y1="241.33" y2="235.364" gradientUnits="userSpaceOnUse" gradientTransform="matrix(.944 .33 -.33 .944 133.594 -179.681)"><stop offset="0" stop-color="#242F3D"/><stop offset=".122" stop-color="#49525D" stop-opacity=".878"/><stop offset=".357" stop-color="#898F96" stop-opacity=".643"/><stop offset=".57" stop-color="#BCBFC3" stop-opacity=".43"/><stop offset=".755" stop-color="#E0E2E4" stop-opacity=".245"/><stop offset=".905" stop-color="#F7F7F8" stop-opacity=".095"/><stop offset="1" stop-color="#fff" stop-opacity="0"/></linearGradient><path d="M27.7 32.6c-1.3.1-2.5.3-3.5.8s-1.9 1.3-2.8 2.2c.3.2.6.5.9.7.4.4.9.7 1.4 1.1.7-.6 1.3-1.2 1.8-1.5.8-.4 2.3-.5 3.7-.7.4 0 .8-.1 1.2-.1l-2.7-2.5z" class="st18"/><linearGradient id="SVGID_18_" x1="-36.082" x2="-36.082" y1="248.148" y2="242.958" gradientUnits="userSpaceOnUse" gradientTransform="matrix(.944 .33 -.33 .944 133.594 -179.681)"><stop offset="0" stop-color="#fff" stop-opacity="0"/><stop offset=".095" stop-color="#F7F7F8" stop-opacity=".095"/><stop offset=".245" stop-color="#E0E2E4" stop-opacity=".245"/><stop offset=".43" stop-color="#BCBFC3" stop-opacity=".43"/><stop offset=".643" stop-color="#898F96" stop-opacity=".643"/><stop offset=".878" stop-color="#49525D" stop-opacity=".878"/><stop offset="1" stop-color="#242F3D"/></linearGradient><path d="M20.3 38.6c-.4-.3-.7-.6-1.1-.9-1.1 1-2.2 1.9-3 1.6-.1 0-.2-.1-.2-.1l.4 3c1 .1 2-.3 3.1-1 .7-.5 1.3-1 2-1.7-.4-.3-.8-.6-1.2-.9z" class="st19"/><linearGradient id="SVGID_19_" x1="73.778" x2="104.685" y1="86.984" y2="-1.428" gradientUnits="userSpaceOnUse"><stop offset="0" stop-color="#009FFD"/><stop offset="1" stop-color="#00E2CE"/></linearGradient><path d="M66.7 27.1c0 6.8-5.5 12.2-12.2 12.2-2.5 0-4.8-.8-6.8-2v11.3c0 1.6-1.3 2.9-2.9 2.9-1.6 0-2.9-1.3-2.9-2.9V17.8c0-1.6 1.3-2.9 2.9-2.9 1.3 0 2.4.9 2.8 2 1.9-1.4 4.3-2.1 6.9-2.1 6.7.1 12.2 5.5 12.2 12.3zm-5.9 0c0-3.5-2.9-6.4-6.4-6.4-3.5 0-6.4 2.8-6.4 6.4s2.8 6.4 6.4 6.4c3.5-.1 6.4-2.9 6.4-6.4zm29.8 1.5H75.7c.7 2.7 3.1 4.9 6.1 4.9 1.5 0 3.8-.6 5.1-1.8 1.2-1.1 3-1.1 4.1 0 1.2 1.1 1.1 3 0 4.1-2.7 2.6-6.4 3.4-9.1 3.4-6.7 0-12.1-5.4-12.1-12.1 0-6.6 5.4-12.1 12.1-12.1.7 0 1.4 0 2.1.2 3.3.6 6.1 2.7 7.8 5.5.8 1.4 1.6 3.1 1.5 4.7 0 .4-.2.9-.4 1.4-.3 1-1.1 1.8-2.3 1.8zm-14-4.9h10.2c-1-1.8-2.7-2.9-4.9-2.9s-4.2 1.1-5.3 2.9zm23.1-12.9c-1.7 0-3-1.4-3-2.9v-.3c0-1.7 1.4-3 3-3s2.9 1.3 2.9 3v.2c0 1.6-1.3 3-2.9 3zm0 28.3c-1.7 0-3-1.4-3-3V17.5c0-1.6 1.4-2.9 3-2.9s2.9 1.3 2.9 2.9v18.6c0 1.6-1.3 3-2.9 3zm15.6-3c0 1.6-1.3 2.9-2.9 2.9-2 0-4-1-5.3-2.6-1.4-1.9-1.4-4-1.4-6.3V15.8c0-3.5 0-6.9 0-10.4 0-1.6 1.3-2.9 2.9-2.9 1.6 0 2.9 1.3 2.9 2.9v26.2c0 .1 0 .3 0 .4 0 .1 0 .3 0 .4 0 .4.3.8.8.8 1.7 0 3 1.3 3 2.9zm6.1-25.3c-1.7 0-3-1.4-3-2.9v-.3c0-1.7 1.4-3 3-3s2.9 1.3 2.9 3v.2c0 1.6-1.3 3-2.9 3zm0 28.3c-1.7 0-3-1.4-3-3V17.5c0-1.6 1.4-2.9 3-2.9s2.9 1.3 2.9 2.9v18.6c0 1.6-1.3 3-2.9 3zM150.3 27v9.1c0 1.6-1.3 2.9-2.8 2.9-1.6 0-2.9-1.3-2.9-2.9V27c0-3.4-2.5-6.2-5.5-6.2-3.8 0-5.7 3.8-5.7 7.1v8.2c0 1.6-1.3 2.9-2.9 2.9-1.6 0-2.9-1.3-2.9-2.9V17.6c0-1.6 1.3-2.9 2.9-2.9 1.3 0 2.3.8 2.7 2 1.7-1.1 3.7-1.7 5.9-1.7 6.1 0 11.2 5.4 11.2 12zM27.9 70.2c-3.2 0-6.1-1.2-8.4-3.4-2.3-2.3-3.6-5.3-3.7-8.5 0-3.2 1.1-6.3 3.4-8.6 2.2-2.3 5.2-3.6 8.4-3.7 3.2 0 6.3 1.2 8.6 3.4 1.2 1.1 1.2 2.9.1 4.1-1.1 1.2-2.9 1.2-4.1.1-1.2-1.2-2.8-1.8-4.5-1.8-1.7 0-3.2.7-4.4 1.9-1.1 1.2-1.8 2.8-1.7 4.5 0 1.6.7 3.3 1.9 4.4 1.2 1.2 2.8 1.8 4.4 1.8 1.6 0 3.1-.6 4.2-1.7s3-1 4.1.1c1.1 1.2 1 3-.1 4.1-2.2 2-5 3.2-8 3.2h-.2zm35.6-2.6c0 1.6-1.3 2.9-2.9 2.9-1.6 0-2.9-1.3-2.9-2.9V57.1c0-2.7-2.2-5-5-5-2.7 0-5 2.2-5 5v10.6c0 1.6-1.3 2.9-2.9 2.9-1.6 0-2.9-1.3-2.9-2.9V36.8c0-1.6 1.4-2.9 2.9-2.9 1.6 0 2.9 1.4 2.9 2.9v10.6c1.5-.8 3.2-1.2 5-1.2 6 0 10.8 4.8 10.8 10.8v10.6zm17.8 2.9c-6.3 0-11.4-5.5-11.4-12.1v-9.2c0-1.6 1.2-2.9 2.7-2.9 1.5 0 3 1.3 3 2.9v9.2c0 3.5 2.9 6.3 5.7 6.3 3.3 0 5.7-2.8 5.7-6.3v-8.8c0-1.6 1.7-2.9 3-2.9 1.5 0 2.7 1.3 2.7 2.9v8.8c.1 6.7-5.1 12.1-11.4 12.1zm29.9-.3c-3.2 0-6.1-1.2-8.4-3.4-2.3-2.3-3.6-5.3-3.7-8.5 0-3.2 1.1-6.3 3.4-8.6 2.2-2.3 5.2-3.6 8.4-3.7 3.2 0 6.3 1.2 8.6 3.4 1.2 1.1 1.2 2.9.1 4.1-1.1 1.2-2.9 1.2-4.1.1-1.2-1.2-2.8-1.8-4.5-1.8-1.7 0-3.2.7-4.4 1.9-1.1 1.2-1.8 2.8-1.7 4.5 0 1.6.7 3.3 1.9 4.4 1.2 1.2 2.8 1.8 4.4 1.8 1.6 0 3.1-.6 4.2-1.7s3-1 4.1.1c1.1 1.2 1 3-.1 4.1-2.2 2-5 3.2-8 3.2h-.2zm37.9-2.6c0 1.6-1.3 2.9-2.9 2.9-1.6 0-2.9-1.3-2.9-2.9V57.1c0-2.7-2.2-5-5-5-2.7 0-5 2.2-5 5v10.6c0 1.6-1.3 2.9-2.9 2.9-1.6 0-2.9-1.3-2.9-2.9V36.8c0-1.6 1.4-2.9 2.9-2.9 1.6 0 2.9 1.4 2.9 2.9v10.6c1.5-.8 3.2-1.2 5-1.2 6 0 10.8 4.8 10.8 10.8v10.6z" class="st20"/></svg>