<svg xmlns="http://www.w3.org/2000/svg" width="20" height="20" viewBox="0 0 20 20"><path d="M8.8 0C8.25 0 7.8.46 7.8 1.03V2.9c0 .3-.17.55-.45.66-.27.12-.57.06-.78-.15L5.23 2.1c-.4-.4-1.07-.4-1.46 0L2.1 3.76c-.2.2-.3.45-.3.73 0 .27.1.53.3.73l1.3 1.32c.22.2.28.5.16.78-.1.28-.36.45-.66.45H1.03C.46 7.78 0 8.24 0 8.8v2.4c0 .56.46 1.02 1.03 1.02H2.9c.3 0 .55.17.66.45.12.27.06.57-.15.78l-1.3 1.32c-.2.2-.3.46-.3.73 0 .28.1.53.3.73l1.67 1.68c.4.4 1.07.4 1.46 0l1.32-1.3c.2-.22.5-.28.78-.16.28.1.45.36.45.66v1.87c0 .57.46 1.03 1.03 1.03h2.4c.56 0 1.02-.46 1.02-1.03V17.1c0-.3.17-.55.45-.66.27-.12.56-.06.78.15l1.32 1.3c.4.4 1.07.4 1.46 0l1.68-1.67c.2-.2.3-.45.3-.73 0-.27-.1-.53-.3-.73l-1.3-1.32c-.22-.2-.28-.5-.16-.78.1-.28.36-.45.66-.45h1.87c.57 0 1.03-.46 1.03-1.03V8.8c0-.56-.46-1.02-1.03-1.02H17.1c-.3 0-.55-.17-.66-.45-.12-.27-.06-.57.15-.78l1.3-1.32c.2-.2.3-.46.3-.73 0-.28-.1-.53-.3-.73L16.24 2.1c-.4-.4-1.07-.4-1.46 0l-1.32 1.3c-.2.22-.5.28-.78.16-.28-.1-.45-.36-.45-.66V1.03C12.22.46 11.76 0 11.2 0H8.8zm0 .74h2.4c.15 0 .28.13.28.3V2.9c0 .6.35 1.12.9 1.35.56.23 1.17.1 1.6-.32l1.3-1.32c.13-.1.3-.1.42 0l1.7 1.7c.1.1.1.3 0 .4l-1.33 1.33c-.43.42-.55 1.03-.32 1.6.23.54.75.9 1.35.9h1.87c.16 0 .3.12.3.28v2.4c0 .15-.14.28-.3.28H17.1c-.6 0-1.12.35-1.35.9-.23.56-.1 1.17.32 1.6l1.32 1.3c.1.13.1.3 0 .42l-1.7 1.7c-.1.1-.3.1-.4 0l-1.33-1.33c-.42-.43-1.03-.55-1.6-.32-.54.23-.9.75-.9 1.35v1.87c0 .16-.12.3-.28.3H8.8c-.15 0-.28-.14-.28-.3V17.1c0-.6-.35-1.12-.9-1.35-.2-.08-.38-.1-.57-.1-.37 0-.74.13-1.02.42L4.7 17.4c-.1.1-.3.1-.4 0l-1.7-1.7c-.1-.1-.1-.3 0-.4l1.33-1.33c.43-.42.55-1.03.32-1.6-.23-.54-.75-.9-1.35-.9H1.03c-.16 0-.3-.12-.3-.28V8.8c0-.15.14-.28.3-.28H2.9c.6 0 1.12-.35 1.35-.9.23-.56.1-1.17-.32-1.6L2.6 4.73c-.1-.13-.1-.3 0-.42l1.7-1.7c.1-.1.3-.1.4 0l1.33 1.33c.42.43 1.03.55 1.6.32.54-.23.9-.75.9-1.35V1.03c0-.16.12-.3.28-.3zM10 6.67c-1.84 0-3.33 1.5-3.33 3.33 0 1.84 1.5 3.33 3.33 3.33 1.84 0 3.33-1.5 3.33-3.33 0-1.84-1.5-3.33-3.33-3.33zm0 .74c1.43 0 2.6 1.17 2.6 2.6 0 1.43-1.17 2.6-2.6 2.6-1.43 0-2.6-1.17-2.6-2.6 0-1.43 1.17-2.6 2.6-2.6z"/></svg>