<svg xmlns="http://www.w3.org/2000/svg" width="20" height="20" viewBox="0 0 20 20"><path fill="#434343" d="M11.07 0c-.32 0-.57.25-.57.57v8.36c0 .3.25.56.57.56h8.36c.32 0 .57-.26.57-.57V8.9c0-2.17-.8-4.26-2.23-5.88C16.07 1.1 13.63 0 11.07 0zm.57 1.16c2.02.15 3.92 1.08 5.27 2.62 1.15 1.28 1.82 2.9 1.95 4.6h-7.2V1.15zm-2.7 1C4 2.15 0 6.15 0 11.05 0 16 4 20 8.93 20s8.93-4 8.93-8.93c0-.3-.26-.56-.57-.56H9.5V2.7c0-.3-.26-.55-.57-.55zM8.35 3.3v7.77c0 .32.25.57.57.57h7.77c-.3 4.04-3.66 7.23-7.77 7.23-4.3 0-7.8-3.5-7.8-7.8 0-4.1 3.2-7.48 7.23-7.77z"/></svg>