<svg xmlns="http://www.w3.org/2000/svg" width="17" height="9.5" viewBox="0 0 17 9.5"><path fill="#fff" d="M14.63 6.04c.56.54 1.16 1.05 1.67 1.65.22.26.43.53.6.84.22.44 0 .92-.38.95h-2.48c-.64.04-1.15-.2-1.58-.64-.34-.35-.66-.7-1-1.07-.12-.16-.26-.3-.43-.4-.34-.22-.63-.15-.83.2-.2.35-.24.74-.26 1.14-.03.57-.2.72-.8.75-1.24.05-2.43-.14-3.53-.76-.96-.55-1.72-1.33-2.38-2.2C1.95 4.8.97 2.93.1 1-.1.58.02.35.5.34c.8-.02 1.62 0 2.42 0 .33 0 .55.2.68.5.43 1.06.97 2.07 1.64 3 .18.25.36.5.62.68.3.2.5.14.64-.18.1-.2.12-.4.14-.63.07-.75.08-1.48-.04-2.22-.06-.46-.33-.75-.8-.84C5.6.6 5.63.5 5.75.37c.2-.23.4-.37.76-.37h2.8c.44.1.54.28.6.72V3.8c0 .16.1.66.4.77.24.08.4-.1.56-.27.67-.7 1.14-1.53 1.57-2.4.2-.37.35-.76.5-1.15.13-.3.3-.44.64-.43h2.7c.08 0 .16 0 .24.02.46.07.6.26.44.7-.22.7-.65 1.26-1.07 1.84-.45.6-.93 1.2-1.37 1.82-.4.56-.38.85.13 1.34z"/></svg>