<svg xmlns="http://www.w3.org/2000/svg" width="39" height="34.578" viewBox="0 0 39 34.577561"><circle cx="18.811" cy="31.612" r="2.966"/><circle cx="30.597" cy="31.612" r="2.966"/><path d="M38.36 6.4c-.66-.66-1.9-.62-1.9-.62H10.5l-.86-3.6C9.34.9 8.2 0 6.87 0H0l1.33 2.85H5.5c.94 0 1.76.66 1.95 1.6l3.87 18.42c.43 2.15 2.34 3.7 4.56 3.7h16.86c2.34 0 2.46-2.57 2.46-2.57H16.62c-.97 0-2.06.12-2.8-2.6-.28-1.03-.9-4.15-.9-4.15l23.26-.04c1-.03 1.87-.8 2-1.86l.77-7.22c.1-.67.08-1.06-.6-1.72zm-2.73 7.92h-23.3L11.2 9.05h25.02l-.6 5.27z"/></svg>