<svg xmlns="http://www.w3.org/2000/svg" width="24" height="21.278" viewBox="0 0 24 21.278498"><path fill="#35b5eb" d="M13.4 19.45a1.83 1.83 0 0 1-1.82 1.83 1.83 1.83 0 0 1-1.83-1.83 1.83 1.83 0 0 1 1.83-1.82 1.83 1.83 0 0 1 1.82 1.82zM20.65 19.45a1.83 1.83 0 0 1-1.82 1.83A1.83 1.83 0 0 1 17 19.45a1.83 1.83 0 0 1 1.83-1.82 1.83 1.83 0 0 1 1.82 1.82zM23.6 3.94c-.4-.4-1.17-.4-1.17-.4H6.46l-.53-2.2C5.73.54 5.03 0 4.23 0H0l.82 1.75H3.4c.56 0 1.07.4 1.2 1l2.36 11.32c.27 1.32 1.45 2.3 2.8 2.3h10.4c1.43 0 1.5-1.6 1.5-1.6H10.23c-.6 0-1.27.07-1.73-1.6-.17-.63-.55-2.55-.55-2.55l14.3-.03c.64-.03 1.17-.5 1.24-1.16L23.96 5c.07-.4.05-.65-.36-1.06zM21.94 8.8H7.6l-.7-3.23h15.4l-.37 3.24z"/></svg>