<svg xmlns="http://www.w3.org/2000/svg" width="21.347" height="9" viewBox="0 0 21.346766 9"><path fill="#fff" d="M.27 1.17C.44 1 .67.9.9.9c.24 0 .45.1.63.27l1.83 1.8c1-.94 2.15-1.67 3.45-2.2C8.1.28 9.44 0 10.8 0c2.58 0 4.83.78 6.75 2.34 1.92 1.56 3.2 3.6 3.8 6.1v.1c0 .13-.05.24-.14.33-.08.1-.18.13-.3.13h-2.8c-.2 0-.35-.1-.42-.32-.4-.94-.65-1.5-.75-1.65-.66-1.07-1.53-1.9-2.6-2.52-1.1-.6-2.27-.9-3.53-.9-1.88 0-3.52.64-4.9 1.93l1.93 1.94c.18.18.27.4.27.63 0 .24-.1.46-.27.63-.18.18-.4.27-.63.27H.9c-.24 0-.46-.1-.63-.27C.1 8.55 0 8.33 0 8.1V1.8c0-.24.1-.46.27-.63z"/></svg>