<svg xmlns="http://www.w3.org/2000/svg" width="23" height="27.246" viewBox="0 0 23 27.245997"><path d="M3.78 27.05c-.54-.25-1.25-1.04-1.42-1.6-.1-.3-.12-2.68-.12-8.82 0-4.63.03-8.5.06-8.6.08-.2.58-.2.77-.03.1.1.13 2.15.13 8.6 0 8.38 0 8.47.22 8.83.3.5.6.72 1.13.85.6.16 13.3.16 13.9 0 .53-.13.83-.36 1.13-.85.22-.36.22-.45.22-8.83 0-6.45.03-8.5.13-8.6.2-.18.7-.16.77.04.03.1.06 4 .06 8.65v8.47l-.25.53c-.13.3-.4.7-.6.88-.74.7-.4.67-8.42.67-6.82 0-7.3-.02-7.7-.2zM7.5 23.82c-.02-.08-.03-3.66-.02-7.96l.03-7.83.32-.03c.6-.07.6-.33.6 7.94 0 5.03-.04 7.67-.12 7.8-.12.24-.7.3-.8.08zM11.13 23.82c-.03-.08-.05-3.66-.03-7.96l.03-7.83h.74V23.9l-.34.03c-.22.02-.37-.02-.4-.1zM14.7 23.75c-.08-.15-.1-2.63-.1-7.8 0-8.3-.03-8.02.58-7.95l.3.03V23.9l-.33.03c-.25.02-.36-.03-.45-.18zM7.78 3.83c-7.5 0-7.04.05-7.47.65-.27.4-.4 1.82-.2 2.2l.12.24h22.56l.12-.23c.2-.4.07-1.82-.2-2.22-.5-.7.17-.65-11.2-.65-1.42 0-2.65 0-3.72 0zm-6.5.96H21.7l.17.22c.1.13.17.4.17.6v.34H.96V5.6c0-.18.08-.45.17-.58l.16-.23zM7.35 2.98c-.1-.07-.15-.25-.13-.58.04-.95.58-1.74 1.45-2.15C9.2 0 9.32 0 11.5 0c2.5 0 2.74.05 3.47.67.64.54 1.08 2.06.67 2.32-.4.24-.67.04-.78-.57-.1-.52-.46-1.04-.9-1.3C13.6.92 13.4.9 11.5.9s-2.1.02-2.45.22c-.45.27-.82.8-.9 1.3-.13.63-.4.82-.8.56z"/></svg>