<svg xmlns="http://www.w3.org/2000/svg" width="25" height="25" viewBox="0 0 25 25"><path fill="#a3a3a3" d="M12.22 0C5.5 0 0 5.5 0 12.18c0 .1 0 .2.02.3 0 .1-.02.2-.02.3 0 6.28 4.9 11.56 11.15 12.17h.05c.06.05.1.05.16.05.07 0 .13 0 .18-.04.04.02.07.04.1.04.16 0 .27-.05.37-.15l.3-.3 12.3-12.23.28-.3c.1-.15.15-.35.1-.54.02-.1.03-.2 0-.3v-.07C24.42 4.88 19.12 0 12.8 0c-.1 0-.18 0-.28.02-.1 0-.2-.02-.3-.02zm.2 1.56c5.4.08 9.9 4 10.85 9.2h-.2c-6.72 0-12.22 5.48-12.22 12.18v.2c-5.2-.94-9.16-5.43-9.2-10.84C1.7 9.36 2.9 6.68 4.8 4.7c2-1.9 4.67-3.1 7.62-3.14zM22 12.5l-9.47 9.42c.3-2.45 1.4-4.67 3.05-6.37 1.7-1.64 3.94-2.75 6.42-3.05z"/></svg>