<svg xmlns="http://www.w3.org/2000/svg" width="25" height="25" viewBox="0 0 25 25"><path fill="#a3a3a3" d="M21.34 3.66c-4.87-4.88-12.8-4.88-17.68 0-4.88 4.87-4.88 12.8 0 17.68 4.87 4.88 12.8 4.88 17.68 0 4.88-4.87 4.88-12.8 0-17.68zm-1.36 16.32c-4.12 4.12-10.83 4.12-14.96 0C.9 15.86.9 9.14 5.02 5.02 9.14.9 15.85.9 19.98 5.02c4.12 4.12 4.12 10.84 0 14.96zM7.84 9.12c0-.8.65-1.47 1.46-1.47.8 0 1.46.66 1.46 1.47 0 .8-.66 1.46-1.46 1.46-.8 0-1.46-.66-1.46-1.46zm6.62 0c0-.8.66-1.47 1.47-1.47.8 0 1.46.66 1.46 1.47 0 .8-.67 1.46-1.47 1.46-.8 0-1.47-.66-1.47-1.46zm3.46 5.98c-.9 2.1-3.03 3.45-5.4 3.45-2.43 0-4.57-1.36-5.44-3.47-.15-.36.02-.77.38-.92.1-.04.18-.05.27-.05.28 0 .54.17.65.44.66 1.58 2.28 2.6 4.13 2.6 1.83 0 3.44-1.02 4.12-2.6.16-.36.57-.52.93-.37.36.16.52.57.37.93z"/></svg>