<svg xmlns="http://www.w3.org/2000/svg" width="290" height="290" viewBox="0 0 289.99999 289.99998"><path fill="#fff" d="M250.63 0H39.37C17.67 0 0 17.66 0 39.37v211.26C0 272.33 17.66 290 39.37 290h211.26c21.7 0 39.37-17.66 39.37-39.37V39.37C290 17.67 272.34 0 250.63 0zM145 215.85c-35.76 0-64.86-29.1-64.86-64.86 0-35.77 29.1-64.87 64.86-64.87s64.86 29.1 64.86 64.86c0 35.75-29.1 64.85-64.86 64.85zm120.45-112.73h-58.6c-14.8-17.7-37.03-29-61.85-29s-47.06 11.3-61.85 29h-58.6V46.8c0-14.3 11.65-25.95 25.96-25.95h189c14.3 0 25.95 11.64 25.95 25.95v56.31z"/><path fill="#fff" d="M145 109.3c-23 0-41.7 18.7-41.7 41.7 0 22.98 18.7 41.68 41.7 41.68 23 0 41.7-18.7 41.7-41.7 0-22.98-18.7-41.68-41.7-41.68z"/><path fill="#fff" d="M233.5 37.5h-25.1c-5.74 0-10.4 4.66-10.4 10.4V73c0 5.72 4.66 10.4 10.4 10.4h25.1c5.72 0 10.4-4.68 10.4-10.4V47.9c0-5.74-4.68-10.4-10.4-10.4z"/></svg>