<svg xmlns="http://www.w3.org/2000/svg" width="611.996" height="607.409" viewBox="0 0 611.99639 607.40889"><path fill="#fff" d="M601.44 533.5L433.66 366.1c1.52-2.27 2.65-6.04 3.78-10.94 17.7-29.8 28.68-62.2 32.05-96.52.75-7.92 1.1-16.2 1.1-24.13 0-26-4.34-52.07-13.2-77.65C445.93 123.6 427.53 94 402 68.62 356.63 23.5 296.8 0 235.36 0c-60.7 0-120.8 23.6-166.27 68.63-30.34 30-50.4 65.63-61.1 105.93-10.8 40.76-10.55 80.68 0 121.03 10.56 40.32 30.65 75.65 61.1 105.92 45.33 45.14 105.55 68.62 166.25 68.62 47.12 0 89.96-13.62 129.7-38.45l6.02-3.78L539.6 596.08c6.43 6.4 13.2 10.17 19.62 10.93 1.5.4 2.63.47 3.76.4 4.54-.3 8.7-1.47 12.07-3.4 4.55-2.6 9.42-6.4 14.7-11.7l7.54-7.52c5.26-5.3 9.07-10.16 11.67-14.7 1.92-3.38 3.02-7.93 3.02-13.58v-3.03c0-6.42-3.96-13.4-10.57-19.98zm-179.1-248.46c-8.83 33.13-25.62 62.2-50.5 87.1-36.2 36.18-84.84 56.54-136.48 56.54-50.9 0-99.22-20.7-136.87-56.55-73.97-70.47-73.67-202.2 0-273.34 37.2-35.96 85.57-56.95 136.85-56.95 53.9 0 98.9 19.1 136.47 56.93 24.62 24.75 41.85 53.52 50.52 86.7 8.67 33.18 8.88 66.3 0 99.54zM334.9 212.27h-76.55V136.1h-45.62v76.17h-76.16v45.62h76.16v76.5h45.62v-76.5h76.54z"/></svg>