<svg xmlns="http://www.w3.org/2000/svg" viewBox="0 0 16 20"><g fill="#212121"><path d="M.82 0L.68.05C.32.18.08.52 0 .93 0 1 0 4.73 0 10.1v9.05l.06.14c.13.36.46.65.8.7.05 0 3.3 0 7.22 0h7.13l.14-.05c.28-.12.52-.38.6-.67l.06-.15V12.5c0-5.36 0-6.65-.03-6.78-.07-.4-.28-.95-.5-1.25C15.3 4.24 12 .67 11.8.54c-.27-.2-.78-.44-1.14-.5C10.54 0 9.58 0 5.66 0H.83zm.38 1.2h8.16v4.98l.06.15c.1.3.35.56.63.67l.13.05h2.3l2.32.02V18.8H1.2V1.2zm9.4 0h.05c.03.02.12.06.2.1.13.07.28.23 1.96 2.03 1.7 1.8 1.84 1.96 1.9 2.1.04.1.08.2.1.22v.05h-4.2V1.2z"/><rect width="8" height="1.45" x="4.001" y="8.75" ry=".3"/><rect width="8" height="1.45" x="4.001" y="11.65" ry=".3"/><rect width="8" height="1.45" x="4.001" y="14.55" ry=".3"/></g></svg>