<svg xmlns="http://www.w3.org/2000/svg" width="16" height="16"><g><path fill="#fff" d="M12.8 8c0 1.88-1.4 3.42-3.2 3.68v-2.2c.62-.2 1.07-.8 1.07-1.48 0-.7-.45-1.27-1.07-1.5V4.33c1.8.26 3.2 1.8 3.2 3.68zM8.53 0L4.27 4.27H3.2C1.43 4.27 0 5.7 0 7.47v1.06c0 1.77 1.43 3.2 3.2 3.2h1.07L8.53 16V0zM6.4 4.27v7.46L4.27 9.6H3.2c-.6 0-1.07-.48-1.07-1.07V7.47c0-.6.48-1.07 1.07-1.07h1.07L6.4 4.27zm3.2 11.57v-2.22c2.46-.7 4.27-2.94 4.27-5.62s-1.8-4.92-4.27-5.62V.16C13.25.9 16 4.13 16 8c0 3.87-2.75 7.1-6.4 7.84z"/></g></svg>