<svg xmlns="http://www.w3.org/2000/svg" width="13" height="13" viewBox="0 0 13 13"><path fill="#fff" d="M9.38 0C8.76 0 8.1.24 7.64.7L5.7 2.67c.64-.03 1.3.12 1.86.45L8.8 1.9c.33-.3.84-.3 1.16 0l1.15 1.16c.32.32.32.84 0 1.15L7.64 7.64c-.33.33-.84.33-1.16 0L5.34 6.5 4.18 7.65l1.16 1.17c.5.47 1.1.7 1.73.7.62 0 1.26-.23 1.74-.7l3.48-3.47c.95-.96.95-2.52 0-3.47L11.12.73C10.62.23 10 0 9.37 0zM5.92 3.47c-.63 0-1.26.24-1.74.7L.7 7.66c-.94.96-.94 2.52 0 3.48l1.17 1.14c.98.97 2.52.97 3.48 0l1.94-1.95c-.65.05-1.3-.1-1.87-.43l-1.25 1.23c-.33.3-.84.3-1.15 0L1.87 9.96c-.3-.32-.3-.84 0-1.15l3.5-3.45c.3-.33.82-.33 1.14 0L7.65 6.5 8.8 5.35 7.64 4.18c-.48-.48-1.1-.7-1.72-.7z"/></svg>