<svg xmlns="http://www.w3.org/2000/svg" width="38" height="38" viewBox="0 0 38 38"><path fill="#fff" d="M8.4 0C3.4 0 0 3.8 0 9.6v19.75C0 34.83 3.4 38 9.42 38h20.1C34.3 38 38 34.1 38 29.27V9.37C38 3.56 33.96 0 30.24 0zm.54 1.43v8c0 .5.32.8.8.8.47 0 .8-.3.8-.8v-8h19.7c3 0 6.18 2.93 6.18 7.77v2.54H26.26C24.48 9.7 21.9 8.4 19 8.4c-2.9 0-5.5 1.32-7.28 3.37v-.03H1.58V9.52c0-2.1.6-4.46 2.06-6.06v5.98c0 .48.32.8.8.8.4 0 .78-.32.78-.8v-7.2c.35-.18.7-.33 1.1-.44v7.64c0 .48.33.8.8.8.4 0 .8-.32.8-.8v-7.9c.42-.1 1.03-.1 1.03-.1zm19.4 2.14c-.95 0-1.74.8-1.74 1.74v2.63c0 .96.8 1.75 1.74 1.75h2.62c.95 0 1.74-.8 1.74-1.75V5.3c0-.94-.8-1.73-1.74-1.73zM19 10.07c4.43 0 8.07 3.58 8.07 8.1 0 4.44-3.64 8.1-8.07 8.1s-8.07-3.66-8.07-8.1c0-4.44 3.64-8.1 8.07-8.1zm0 2c-3.33 0-6.1 2.7-6.1 6.1 0 3.4 2.7 6.1 6.1 6.1 3.33 0 6.1-2.7 6.1-6.1 0-3.4-2.78-6.1-6.1-6.1zM1.58 13.4h8.98c-.77 1.4-1.22 3-1.22 4.7 0 5.3 4.36 9.67 9.66 9.67s9.66-4.37 9.66-9.68c0-1.67-.43-3.24-1.18-4.6h8.94V29.1c0 4.12-2.93 7.2-6.9 7.2H9.43c-3.56 0-7.84-1.18-7.84-7.05zM19 15.16c1.66 0 3 1.35 3 3.02 0 1.66-1.34 3-3 3s-3-1.34-3-3c0-1.67 1.34-3.02 3-3.02z"/></svg>