<svg xmlns="http://www.w3.org/2000/svg" width="241" height="18" viewBox="0 0 241 18"><path fill="#b3965a" d="M240.9 8.5h-50.84c-.2-1.6-1.6-2.9-3.3-2.9-1.7 0-3.1 1.2-3.3 2.9h-7.38c0-.5-.1-.9-.2-1.4-.7-3.5-3.7-7.1-8.7-7.1-3.08 0-5.88 1.9-7.08 4.7-1 2.5-.8 5.4 1.4 7.3 1.7 1.5 4.8 2 6.8.7s3-5.1-.1-6.6c-1.2-.6-2.8-.5-3.9.4-.3.3-.5.6-.7 1-.4 1-.1 2.3 1.1 2.7 1.8.6 3-1.3 2.1-2.4-.7-.9.9-.9 1.4-.4 2.6 2.6-1.4 7.4-6 3.8-1.9-1.5-2-3.9-1.1-6 1-2.4 3.4-3.9 6-3.9 4.3 0 6.88 3.1 7.48 6.1.6 2.8-.3 6.7-4.5 8.5-7.78 3-12.38-2.5-17.17-8.5-.5-.6-1-1.2-1.5-1.8.2 0 .5 0 .7 0 5.8 0 5.2-5.1 5.2-5.1S155 3 149.8 2.3c0 0-3.08-.6-6.38-1.4-.8-.2-1.9-.4-3.1-.5h.1c-6.3-.8-9.18 0-10.78.7-2.8 1.2-4.3 3.1-5 5.2h-8.58c-.7-2-2.2-4-5-5.2-1.7-.7-4.5-1.5-10.78-.7h.1c-1.2.1-2.3.3-3.1.5-3.4.8-6.4 1.4-6.4 1.4C85.7 3.1 83.4.5 83.4.5s-.6 5.1 5.2 5.1c.3 0 .5 0 .7 0-.5.6-1 1.2-1.5 1.8-4.9 5.9-9.5 11.5-17.2 8.5-4.28-1.8-5.08-5.7-4.48-8.5.6-3.1 3.2-6.1 7.5-6.1 2.6 0 4.98 1.6 5.98 3.9.9 2.1.8 4.5-1.1 6-4.7 3.5-8.7-1.2-6-3.8.6-.6 2.1-.5 1.4.4-.9 1.2.3 3 2.1 2.4 1.2-.4 1.5-1.7 1.1-2.7-.2-.4-.4-.7-.7-1-1-.9-2.6-1-3.8-.4-3.1 1.6-2 5.4-.1 6.6 2 1.3 5.1.8 6.8-.7 2.2-1.9 2.4-4.8 1.4-7.3-1.2-2.8-4-4.7-7.1-4.7-5 0-7.98 3.6-8.68 7.1-.1.4-.1.9-.2 1.4h-7.4c-.2-1.6-1.6-2.9-3.3-2.9-1.7 0-3.08 1.2-3.28 2.9H0v.9h50.84c.2 1.6 1.6 2.9 3.3 2.9 1.7 0 3.1-1.2 3.3-2.9h7.38c.2 2.8 1.6 5.9 5.4 7.5 1.7.7 3.2.9 4.7.9 5.88 0 9.97-4.9 13.87-9.7.7-.9 1.5-1.8 2.2-2.6 0 0 0-.1.1-.1 1.98-.4 2.88-1.3 2.88-1.3s-1.7 1.5-2.3 3.7c-2.3 8.4 4.7 8.3 4.7 8.3-3-3.5-2.1-6.8-1.2-9 2.5-5.5 8.8-5.9 11-5.9 2.98.1 4.58.9 4.58.9 4.2 1.8 5.1 5.7 4.5 8.5-.6 3.1-3.2 6.1-7.5 6.1-2.6 0-5-1.6-6-3.9-.9-2.1-.8-4.5 1.1-6 4.7-3.5 8.7 1.2 6 3.8-.6.6-2.1.5-1.4-.4.9-1.2-.3-3-2.1-2.4-1.2.4-1.5 1.7-1.1 2.7.2.4.4.7.7 1 1 .9 2.6 1 3.9.4 3.1-1.6 2-5.4.1-6.6-2-1.3-5.1-.8-6.8.7-2.18 1.9-2.38 4.8-1.4 7.3 1.2 2.8 4 4.7 7.1 4.7 4.6 0 7.4-3 8.4-6.2h8.48c1 3.2 3.8 6.2 8.4 6.2 3.1 0 5.9-1.9 7.1-4.7.98-2.5.78-5.4-1.4-7.3-1.7-1.5-4.8-2-6.8-.7s-3 5.1.1 6.6c1.2.6 2.8.5 3.8-.4.3-.3.5-.6.7-1 .4-1 .1-2.3-1.1-2.7-1.8-.6-3 1.3-2.1 2.4.7.9-.9.9-1.4.4-2.6-2.6 1.4-7.4 6-3.8 1.9 1.5 2 3.9 1.1 6-1 2.4-3.4 3.9-6 3.9-4.3 0-6.9-3.1-7.5-6.1-.6-2.8.3-6.7 4.5-8.5 0 0 1.5-.7 4.6-.9 2.3 0 8.58.4 10.98 5.9 1 2.2 1.8 5.5-1.1 9 0 0 7 .1 4.7-8.3-.6-2.2-2.3-3.7-2.3-3.7s.9.8 2.9 1.3c0 0 0 .1.1.1.7.9 1.5 1.7 2.2 2.6 3.9 4.8 7.98 9.7 13.87 9.7 1.4 0 3-.3 4.7-.9 3.78-1.6 5.28-4.7 5.38-7.5h7.4c.2 1.6 1.6 2.9 3.3 2.9 1.7 0 3.08-1.2 3.28-2.9H241v-.9zM124.64 7.1c-.3 1.3-.3 2.5 0 3.7h-8c.2-1.1.2-2.4 0-3.7h8z"/></svg>