<svg xmlns="http://www.w3.org/2000/svg" width="67" height="40.258" viewBox="0 0 67 40.258"><path fill="#fff" d="M20.45 21.4c-.13-.18-.32-.3-.54-.3l-8.64-.74c-.23-.02-.46.08-.6.25-.15.2-.2.43-.15.65l.98 3.9c.07.3.3.5.6.55l10.97 1.66c.04 0 .08 0 .1 0 .26 0 .5-.12.62-.33.15-.24.14-.55-.02-.78l-3.3-4.85zm-7.7 2.95l-.6-2.48 7.3.62 2.2 3.2-8.9-1.35zM66.28 9.67H58.2c-.27 0-.53.16-.64.42l-1.45 3.05c-.12-.22-.25-.45-.4-.68C51.36 5.07 48.3.2 45.66.17L33.5 0s0 0-.02 0h-.1s0 0-.02 0h-.02L21.22.18c-2.64 0-5.7 4.87-10.07 12.3-.1.18-.22.36-.33.55L9.44 10.1c-.12-.27-.37-.43-.64-.43H.7c-.38 0-.7.32-.7.72v4.4c0 .4.32.72.7.72l8.6.05c-.78 1.35-1.5 2.78-1.63 4.52-.26 3.27.64 10.6 1.66 15.8.1.5.55.87 1.06.87h.08v2.77c0 .4.32.72.72.72h9.83c.4 0 .72-.32.72-.72v-2.8l11.68-.03 11.82.04v2.8c0 .4.32.72.7.72h9.85c.4 0 .7-.32.7-.72v-2.77c.5-.02.93-.38 1.03-.87 1.02-5.2 1.92-12.53 1.66-15.8-.13-1.75-.85-3.18-1.65-4.53l8.74-.05c.38 0 .7-.32.7-.72v-4.4c0-.4-.32-.73-.72-.73zM20.32 38.83h-8.4v-1.85h8.4v1.85zM13 13.56c2.15-3.64 6.6-11.22 8.24-11.23l12.2-.18 12.2.18c1.6 0 6.08 7.6 8.22 11.23.4.67.78 1.32 1.15 1.94l.16.26H11.7l.16-.26c.36-.62.75-1.27 1.14-1.94zM1.43 11.1h6.9l1.44 3.04-8.34-.05v-3zm53.65 27.73h-8.4v-1.85h8.4v1.85zm.5-4.2l-22.08-.07h-.13l-22.1.06c-.9-4.9-1.7-11.48-1.46-14.37.1-1.1.5-2.07 1.06-3.07 0 0 .03 0 .04 0H56c.56 1 .98 1.97 1.05 3.08.23 2.87-.55 9.47-1.46 14.36zm10-20.54l-8.35.04 1.43-3.03h6.9v3zM55.74 20.36l-8.65.73c-.23 0-.42.12-.55.3l-3.3 4.85c-.16.23-.17.54-.02.78.13.2.36.34.6.34.04 0 .08 0 .12 0l11-1.68c.27-.05.5-.26.57-.54l.97-3.9c.05-.24 0-.47-.15-.65-.15-.16-.38-.26-.6-.24zm-1.5 4l-8.88 1.34 2.2-3.2 7.3-.63-.6 2.48z"/></svg>