<svg xmlns="http://www.w3.org/2000/svg" width="45" height="45" viewBox="0 0 45 45"><path fill="#fff" d="M32.27 17.58c.15.35 0 .77-.37.92-.35.15-.77-.02-.92-.37-.2-.46-.43-.9-.7-1.3-.3-.42-.6-.8-.95-1.15-.36-.36-.74-.68-1.15-.95-.42-.28-.85-.52-1.3-.7-.36-.16-.52-.57-.37-.93.16-.35.57-.52.92-.37.55.23 1.07.5 1.54.83.5.33.95.7 1.36 1.12.42.42.8.87 1.12 1.36.32.47.6 1 .84 1.53zM36.74 17.67c.1.38-.12.76-.5.86-.37.1-.76-.12-.86-.5-.27-1-.67-1.96-1.2-2.85-.5-.9-1.15-1.73-1.9-2.47-.73-.73-1.56-1.37-2.45-1.9-.9-.5-1.86-.9-2.86-1.18-.38-.1-.6-.48-.5-.86.1-.37.48-.6.86-.5 1.12.3 2.2.76 3.2 1.34 1 .58 1.94 1.3 2.76 2.12.8.82 1.52 1.75 2.1 2.76.6 1 1.04 2.07 1.34 3.2zM41.07 17.72c.07.38-.18.75-.56.82-.37.08-.74-.17-.8-.55-.32-1.57-.86-3.06-1.6-4.45l-.02-.04c-.75-1.36-1.7-2.63-2.82-3.76-1.13-1.13-2.4-2.08-3.8-2.82-1.4-.75-2.9-1.3-4.44-1.6-.4-.07-.63-.44-.56-.82.08-.38.44-.63.82-.56 1.7.34 3.32.93 4.84 1.74 1.5.8 2.9 1.85 4.13 3.07 1.22 1.22 2.25 2.6 3.06 4.1l.03.04c.8 1.5 1.4 3.13 1.74 4.82zM44.7 36.78c.33.23.4.67.16.98s-.66.38-.98.15L32.92 29.9l-.7.7-1.15 1.15c-2.7 2.7-6.76 2.06-10.5-.2-1.4-.86-2.75-1.94-3.96-3.16-1.2-1.2-2.28-2.56-3.13-3.96-2.28-3.72-2.93-7.77-.24-10.46l1.87-1.86-7.56-10.3-3.4 3.37-.04.03C1.43 7.86.72 11.4 2.1 15.72c1.42 4.47 5.05 9.75 10.97 15.7l.24.25c.4.4.74.73 1 1 5.75 5.56 10.87 8.97 15.2 10.3 4.18 1.28 7.63.58 10.2-2l.05-.04.08-.08.9-.93c.27-.28.72-.3 1-.02.27.27.28.72 0 1l-.9.93-.08.08-.04.06c-2.97 2.98-6.9 3.8-11.6 2.35-4.55-1.4-9.86-4.9-15.77-10.64-.4-.4-.75-.73-1.02-1l-.23-.24C6 26.3 2.25 20.82.77 16.14-.8 11.3.03 7.26 3.1 4.2l.04-.04 4-3.96c.02-.02.04-.04.07-.06.32-.23.76-.16 1 .15l8.35 11.4c.24.27.23.7-.03.95l-2.3 2.3c-2.13 2.12-1.5 5.53.44 8.73.8 1.3 1.8 2.56 2.95 3.7s2.4 2.16 3.7 2.94c3.2 1.95 6.62 2.57 8.77.4l1.14-1.12 1.14-1.14c.24-.24.63-.27.9-.07l11.47 8.38zM41.66 39.84c.3.23.37.67.15.98-.22.3-.66.38-.97.15l-2.87-2.1-2.86-2.1-2.87-2.1c-.3-.22-.38-.66-.15-.97.23-.3.67-.38.98-.15l2.87 2.1 2.86 2.1 2.85 2.1zM4 4.17c-.23-.3-.16-.75.15-.98.32-.24.76-.17.98.14l2.1 2.86 2.1 2.86 2.1 2.87c.23.3.16.75-.15.98s-.75.17-.98-.14L8.2 9.9 6.1 7.02 4 4.17z"/></svg>