<svg xmlns="http://www.w3.org/2000/svg" width="59" height="41.485" viewBox="0 0 59 41.485402"><path fill="#fff" d="M56.24 0c-.74 0-1.44.3-1.96.8l-22.5 22.52c-.1.08-.16.18-.2.3-.06.12-1.34 3.05-2 4.6-.16.34-.08.74.2 1 .17.2.4.28.64.28.13 0 .25-.03.37-.08 4.68-2.04 4.7-2.04 4.77-2.1.04-.02.08-.05.1-.1L58.2 4.73c1.07-1.08 1.07-2.83 0-3.9C57.66.28 56.97 0 56.23 0zm0 1.84c.24 0 .47.1.65.27.35.37.35.96 0 1.32l-.28.27-1.3-1.32.26-.27c.18-.16.4-.26.66-.26zM54 3.7L55.3 5 34.5 25.8c-.36.16-1.3.57-2.3 1 .6-1.37.87-2 1-2.3L54 3.7zM2.78 15.66C1.24 15.67 0 16.9 0 18.44v20.28c0 1.52 1.24 2.77 2.77 2.77H46.1c1.52 0 2.76-1.26 2.76-2.78V18.44c0-.5-.4-.92-.92-.92-.5 0-.92.4-.92.92v20.28c0 .5-.42.92-.92.92H2.77c-.5 0-.93-.4-.93-.92V18.44c0-.5.42-.92.93-.92h32.26c.5 0 .92-.42.92-.93s-.4-.93-.92-.93H2.77zm6.45 4.6c-.5 0-.92.42-.92.93v1c-2.1.34-3.7 1.83-3.7 3.6 0 2.05 2.08 3.7 4.62 3.7 1.5 0 2.76.84 2.76 1.84s-1.26 1.85-2.76 1.85-2.77-.86-2.77-1.86c0-.5-.4-.92-.92-.92-.5 0-.92.4-.92.92 0 1.78 1.6 3.27 3.7 3.62v1c0 .5.4.9.92.9.5 0 .92-.4.92-.9v-1c2.1-.35 3.7-1.84 3.7-3.62 0-2.03-2.08-3.68-4.62-3.68-1.5 0-2.77-.85-2.77-1.85s1.27-1.83 2.77-1.83 2.76.84 2.76 1.84c0 .52.42.93.93.93s.93-.4.93-.92c0-1.77-1.6-3.26-3.7-3.6v-1c0-.5-.4-.92-.9-.92zm7.37 0c-.5 0-.93.42-.93.93s.42.92.92.92h12.9c.5 0 .92-.4.92-.92s-.4-.92-.92-.92H16.6zm4.6 7.4c-.5 0-.92.4-.92.9s.4.93.92.93h4.6c.52 0 .93-.4.93-.92s-.4-.92-.92-.92h-4.6zm17.52 0c-.5 0-.92.4-.92.9s.4.93.92.93h3.7c.5 0 .9-.4.9-.92s-.4-.92-.9-.92h-3.7zM21.2 31.33c-.5 0-.92.42-.92.93 0 .5.4.92.92.92h13.83c.5 0 .92-.43.92-.93s-.4-.93-.92-.93H21.2zm17.52 0c-.5 0-.92.42-.92.93 0 .5.4.92.92.92h3.7c.5 0 .9-.43.9-.93s-.4-.93-.9-.93h-3.7zm-22.13 3.7c-.5 0-.93.4-.93.9s.42.93.92.93h25.8c.52 0 .93-.4.93-.92s-.4-.92-.92-.92H16.6z"/></svg>