<svg xmlns="http://www.w3.org/2000/svg" width="116" height="34.277" viewBox="0 0 116 34.277302"><path fill="#b3965a" d="M57.4 0l-.1.1v.2c0 .5-.3.9-.6 1.3-.5.7-1.2 1.52-1.3 3.12v.1c.1 1.6.7 2.42 1.3 3.12.3.6.6.9.6 1.5v.2s0 .1.1.1c0 0 .1 0 .1.1h.5s.1 0 .1-.1h.1V9.45c0-.5.3-.9.7-1.4.5-.7 1.2-1.5 1.3-3.1V4.8c-.1-1.6-.7-2.4-1.3-3.1-.3-.4-.6-.82-.7-1.32V0H57.4zm.7 2.3l.2.3c.4.52.9 1.22 1 2.33-.1 1.1-.6 1.8-1 2.3l-.2.1-.2-.2c-.4-.5-.9-1.2-1-2.3.1-1.1.5-1.8 1-2.32l.2-.2zm-8.24 2.93v.6c.4.4.5.9.5 1.4.1.9.3 2.02 1.4 3.22l.1.1c1.22 1.1 2.32 1.2 3.22 1.4.27.06.5.1.7.13-.3.3-.3.8 0 1.1.3.3.5.5.7.8.15.15.27.32.4.48-1.07 1.9-1.57 4-1.5 6.05.08 1.93.66 3.84 1.74 5.55-.33.45-.7.88-1.13 1.3-.3.3-.5.5-.8.7-1.72 1.4-3.93 2-6.25 1.9-2.2-.1-4.42-1-6.03-2.7-.2-.2-.4-.4-.6-.6-1.2-1.52-1.8-3.33-1.7-5.04.1-1.7.8-3.4 2.1-4.7.2-.2.4-.4.6-.5 1.1-.92 2.52-1.32 3.92-1.22 1.4.1 2.82.7 3.82 1.7.1.1.3.3.4.4.8.9 1.2 2.12 1.1 3.13 0 1.1-.5 2.22-1.3 3.02-.1.1-.2.2-.3.3-.5.4-1.1.6-1.7.5-.6 0-1.2-.3-1.7-.7l-.2-.2c-.32-.4-.52-.9-.52-1.3 0-.5.2-.9.5-1.2.2-.32.3-.3.3-.3.3-.32.4-.72.1-1.02-.3-.3-.7-.4-1.1-.1-.1.1-.2.2-.3.2-.6.7-1 1.4-1 2.3s.2 1.72.8 2.43c.1.1.2.2.2.3.7.7 1.7 1.1 2.72 1.2 1 .1 2-.2 2.8-.9.2-.1.3-.3.5-.4 1.12-1.1 1.72-2.62 1.82-4.02.1-1.4-.4-2.9-1.4-4.2-.2-.22-.3-.32-.5-.52-1.32-1.3-3.13-2-4.83-2.2-1.8-.1-3.62.4-5.03 1.6-.3.2-.5.4-.7.6-1.6 1.6-2.52 3.72-2.62 5.83-.1 1.86.44 3.7 1.58 5.35-2.54-.07-4.52-1.13-6.4-2.12-3.12-1.8-6.54-3.92-12.87-3.62h-.1c-6.12 1.12-9.04 3.83-11.65 6.34-1.73 1.64-3.3 3.06-5.63 3.74-.34-.7-1.04-1.22-1.9-1.22-1.1 0-2.12 1-2.12 2.1s1 2.12 2.1 2.12c.92 0 1.66-.58 1.97-1.34 2.95-.75 4.7-2.4 6.7-4.3 2.4-2.4 5.1-5.02 10.74-6.02 5.74-.2 8.96 1.7 11.87 3.4 2.52 1.52 4.93 2.93 8.45 2.63.1 0 .22-.04.33-.1 1.88 1.77 4.4 2.72 6.8 2.9 2.62.2 5.23-.6 7.24-2.3.3-.3.6-.5.9-.8.33-.34.63-.7.92-1.06.2.25.44.5.68.74.3.3.6.5.9.8 2.02 1.72 4.63 2.42 7.25 2.32 2.45-.1 4.8-1.08 6.67-2.78.12.1.27.17.46.17 3.52.3 5.93-1.1 8.45-2.92 2.8-1.7 6.13-3.62 11.86-3.42 5.72 1.12 8.43 3.73 10.84 6.05 1.98 1.88 3.8 3.6 6.68 4.3.18.95 1 1.73 2.07 1.73 1.2 0 2.1-1 2.1-2.1s-1-2.13-2.1-2.13c-.7 0-1.33.4-1.72.93-2.47-.6-4.03-2.13-5.83-3.84-2.6-2.4-5.53-5.23-11.76-6.33h-.1c-6.34-.3-9.76 1.82-12.88 3.63-2.08 1.26-4.1 2.44-6.67 2.44 1.25-1.7 1.84-3.63 1.75-5.56-.1-2.1-.9-4.2-2.62-5.82-.2-.2-.4-.4-.7-.6-1.4-1.1-3.22-1.7-5.03-1.6-1.8.1-3.5.8-4.82 2.2-.1.1-.3.3-.5.5-1 1.3-1.5 2.82-1.4 4.22.1 1.5.7 2.92 1.8 4.02.1.1.3.3.5.4.8.7 1.8.9 2.82.9 1-.1 2-.5 2.7-1.2.1-.1.1-.2.2-.3.6-.7.8-1.5.8-2.4.02-.8-.4-1.62-1-2.32.1.2 0 .1-.1 0-.3-.3-.8-.2-1.1.1-.3.3-.2.8.1 1 .1.1.1.1.2.1.3.4.5.8.5 1.2 0 .52-.1.92-.5 1.32 0 0-.1.1-.2.2-.5.5-1 .7-1.7.7-.6 0-1.2-.1-1.7-.5l-.32-.3c-.9-.9-1.3-1.9-1.3-3.02-.1-1.1.3-2.2 1.1-3.1.1-.1.2-.3.3-.4 1-1.02 2.42-1.62 3.92-1.72 1.4-.1 2.82.3 3.93 1.2.2.1.4.3.6.5 1.3 1.3 2 3.02 2.1 4.73.1 1.82-.5 3.53-1.8 5.04-.1.2-.3.4-.5.6-1.6 1.6-3.82 2.5-6.04 2.7-2.2.1-4.42-.5-6.23-1.9-.3-.2-.5-.5-.8-.7-.35-.36-.66-.73-.95-1.13.9-1.58 1.4-3.34 1.46-5.1.1-2.13-.46-4.33-1.63-6.3.2-.28.4-.56.64-.83.18-.26.43-.46.62-.7H60.32s.1 0 .1-.1h.1c.4-.4.9-.4 1.4-.5.9-.1 2-.3 3.22-1.4l.1-.1c1.1-1.22 1.2-2.33 1.4-3.23-.2-.4-.2-.9.2-1.3l.1-.1s0-.1.1-.1v-.2s0-.1-.1-.1h-.5c-.4.4-.9.5-1.4.5-.9.1-2 .3-3.22 1.4l-.1.1c-1.1 1.2-1.2 2.3-1.4 3.22-.06.3-.1.56-.15.8-.02-.04-.03-.07-.06-.1-.3-.3-.8-.3-1.1 0-.3.3-.6.6-.9.9-.1.14-.2.28-.3.42-.04-.04-.07-.08-.1-.1-.23-.24-.4-.53-.6-.74v-.28s0-.1-.1-.1c-.4-.4-.4-.9-.5-1.4-.1-.9-.3-2.02-1.42-3.22l-.1-.1c-1.3-1.1-2.3-1.2-3.2-1.4-.52 0-1.02-.1-1.42-.4l-.1-.1h-.4zm14.78 2h.2v.3c-.1.7-.2 1.52-1 2.42-.92.7-1.72.8-2.42 1h-.3c0-.1 0-.2.1-.3.1-.7.2-1.5 1-2.4.9-.8 1.7-.9 2.42-1zm-13.37.1c.1 0 .2 0 .3.1.7.1 1.5.2 2.4 1 .7.92.9 1.72 1 2.42v.3c-.1 0-.2-.1-.3-.1-.7-.1-1.5-.2-2.4-1-.8-.9-.9-1.7-1-2.4v-.3zM28.6 9.36c-.1.02-.18.05-.25.1-.3.2-.4.6-.2.9.6 1 .5 1.9.4 2.92-.1 1.5-.3 3.12.9 5.43l.1.1c1.6 2.1 3.12 2.7 4.53 3.2.9.42 1.8.72 2.4 1.62.2.3.7.4 1 .2.32-.2.42-.6.22-.9-.6-1-.5-1.9-.4-2.92.1-1.5.2-3.2-.9-5.42l-.1-.1c-1.62-2.12-3.13-2.72-4.54-3.22-.9-.4-1.8-.7-2.4-1.6-.16-.24-.48-.35-.76-.3zm58.9 0c-.28-.04-.6.07-.75.3-.6.9-1.5 1.2-2.4 1.6-1.42.5-2.93 1.1-4.54 3.22l-.1.1c-1.2 2.22-1 3.93-.9 5.43.1 1 .2 1.9-.4 2.92-.2.3-.1.7.2.9.3.2.8.1 1-.2.6-.9 1.52-1.2 2.42-1.6 1.4-.5 2.92-1.1 4.53-3.22l.1-.1c1.2-2.3 1-3.92.9-5.43-.1-1-.2-1.9.4-2.92.2-.3.1-.7-.2-.9-.07-.05-.16-.08-.25-.1zm-57.44 2.6c.3.2.8.3 1.2.5 1.2.52 2.52 1.02 3.82 2.73 1 1.9.9 3.3.8 4.52v.1c-.1.5-.1.9-.1 1.4-.4-.2-.8-.3-1.2-.5-1.2-.5-2.5-1-3.82-2.7-1-1.92-.9-3.43-.8-4.63.1-.5.1-.9.1-1.4zm56 0c0 .5 0 .92.1 1.42.1 1.2.2 2.7-.82 4.62-1.3 1.7-2.6 2.2-3.82 2.7-.4.2-.8.3-1.2.5 0-.5 0-.9-.1-1.4v-.1c-.1-1.2-.2-2.6.8-4.52 1.3-1.7 2.6-2.2 3.82-2.72.4-.2.8-.3 1.2-.5zm-28.2 4.15c.72 1.52 1.04 3.16 1.04 4.7-.05 1.27-.33 2.5-.85 3.66-.63-1.23-1-2.58-1.06-3.95-.07-1.5.22-3 .86-4.4z"/></svg>