<svg xmlns="http://www.w3.org/2000/svg" width="51" height="51" viewBox="0 0 51 51"><path fill="#fff" d="M51 22.3c0-.03 0-.05 0-.07 0 0 0-.02 0-.03 0 0 0-.03-.02-.04 0-.02 0-.04 0-.05 0 0 0 0 0-.02-.02-.02-.03-.04-.03-.06 0 0 0 0 0-.02L43.76 4.48c-.03-.07-.06-.12-.1-.18.58-.43.96-1.13.96-1.9 0-1.33-1.08-2.4-2.4-2.4-1.27 0-2.32 1-2.38 2.27l-11.6 3.3c-.7-1.23-2.2-1.87-3.62-1.46-.82.24-1.5.78-1.9 1.52-.3.5-.43 1.06-.42 1.63l-11.6 3.3c-.44-.6-1.14-1-1.93-1-1.32 0-2.4 1.08-2.4 2.4 0 .75.35 1.42.9 1.86L.07 31.57c0 .02-.02.02-.02.03 0 0 0 .02-.02.04 0 0 0 .02 0 .03 0 .02 0 .03-.02.05 0 0 0 .03 0 .04 0 0 0 .02 0 .03 0 0 0 .03 0 .05 0 0 0 0 0 .02 0 0 0 .02 0 .02 0 4.8 3.94 8.74 8.77 8.74 4.82 0 8.75-3.93 8.76-8.75 0 0 0-.02 0-.02s0 0 0-.02 0-.04 0-.06c0 0 0-.02 0-.03 0-.02 0-.03 0-.05-.02 0-.02-.03-.03-.04 0 0 0-.02 0-.03 0-.02-.02-.04-.02-.06 0 0 0-.02 0-.03L10.3 14.03c-.03-.06-.06-.12-.1-.17.55-.42.92-1.06.95-1.8l11.6-3.3c.1.2.25.4.4.55-.03.08-.04.16-.04.25v32.67c-1.3 0-2.38 1.07-2.38 2.4v1.58h-4c-1.3 0-2.38 1.07-2.38 2.4v1.58c0 .44.36.8.8.8h20.72c.44 0 .8-.36.8-.8v-1.6c0-1.3-1.08-2.38-2.4-2.38H30.3v-1.6c0-1.3-1.07-2.4-2.4-2.4V9.57c0-.08 0-.16-.03-.24.17-.18.3-.38.43-.6.3-.5.42-1.06.4-1.62L40.3 3.8c.13.17.27.32.43.45L33.53 22c0 .02 0 .02 0 .03-.02.02-.02.04-.03.06 0 0 0 0 0 .02 0 0 0 .03-.02.04 0 .02 0 .03 0 .05 0 .02 0 .03 0 .04 0 .02 0 .04 0 .06 0 0 0 0 0 .02 0 4.84 3.93 8.76 8.75 8.76 4.83 0 8.76-3.92 8.77-8.75zM42.23 1.6c.44 0 .8.35.8.8s-.36.78-.8.78-.8-.35-.8-.8.36-.8.8-.8zM24.1 6.4c.22-.38.56-.65.96-.77.15-.04.3-.06.44-.06.7 0 1.33.46 1.53 1.16.12.4.07.84-.14 1.2-.22.38-.56.65-.97.77-.84.24-1.72-.25-1.96-1.1-.12-.4-.07-.84.14-1.2zM8.78 11.14c.44 0 .8.36.8.8 0 .44-.36.8-.8.8-.44 0-.8-.36-.8-.8 0-.44.36-.8.8-.8zm6.78 19.92h-.4c-.45 0-.8.36-.8.8 0 .44.35.8.8.8h.74c-.4 3.58-3.45 6.37-7.13 6.37s-6.73-2.8-7.13-6.37h10.3c.45 0 .8-.36.8-.8 0-.44-.35-.8-.8-.8H2l6.8-16.72c0 .1 0 .2.04.3l6.73 16.42zM28.7 44.62v2.4c0 .43.34.8.78.8h4.8c.43 0 .78.34.78.78v.8H15.94v-.8c0-.44.36-.8.8-.8h9.56c.44 0 .8-.35.8-.8 0-.43-.36-.8-.8-.8h-4v-1.58c0-.44.37-.8.8-.8h4.8c.43 0 .8.36.8.8zm-4-2.4V10.26c.26.07.53.1.8.1.26 0 .53-.03.8-.1v31.98h-1.6zM42.23 29.5c-3.68 0-6.73-2.8-7.12-6.38h10.32c.44 0 .8-.35.8-.8 0-.43-.36-.8-.8-.8h-9.97l6.78-16.7c0 .08.02.18.06.28L49 21.5h-.4c-.45 0-.8.36-.8.8 0 .45.35.8.8.8h.74c-.4 3.58-3.44 6.38-7.13 6.38z"/></svg>