<svg xmlns="http://www.w3.org/2000/svg" width="40.578" height="51" viewBox="0 0 40.578488 51"><path fill="#fff" d="M7.73 0C4.66 0 2.17 2.5 2.17 5.55c0 3.07 2.5 5.56 5.56 5.56h.02c3.08 0 5.57-2.48 5.57-5.55C13.32 2.5 10.82 0 7.76 0h-.03zM32.8 0c-3.05 0-5.54 2.5-5.54 5.55 0 3.07 2.5 5.56 5.55 5.56h.05c3.06 0 5.55-2.48 5.55-5.55C38.4 2.5 35.9 0 32.85 0h-.04zM20.3 1.25c-.53 0-.95.42-.95.94v.58c-2.05.36-3.6 1.9-3.6 3.73 0 1.84 1.55 3.38 3.6 3.74v3.83c-1-.3-1.72-1-1.72-1.8 0-.53-.42-.95-.94-.95-.53 0-.95.42-.95.94 0 1.83 1.55 3.37 3.6 3.73v.58c0 .52.42.94.94.94s.93-.42.93-.94v-.6c2.05-.35 3.6-1.9 3.6-3.72s-1.55-3.37-3.6-3.73V4.7c1 .3 1.7 1 1.7 1.8 0 .53.44.95.95.95s.94-.42.94-.94c0-1.83-1.54-3.36-3.6-3.72v-.6c0-.5-.4-.93-.93-.93zm-12.55.63c2 0 3.65 1.65 3.65 3.67S9.76 9.22 7.75 9.23c-2.02 0-3.66-1.66-3.66-3.68 0-2.02 1.63-3.66 3.65-3.67zm25.08 0c2.02 0 3.66 1.65 3.66 3.67s-1.65 3.67-3.67 3.68c-2.02 0-3.65-1.66-3.65-3.68 0-2.02 1.63-3.66 3.65-3.67zM19.35 4.7v3.6c-1-.27-1.72-.98-1.72-1.8 0-.8.73-1.5 1.72-1.8zm1.88 5.75c1 .3 1.7 1 1.7 1.8 0 .82-.7 1.53-1.7 1.82v-3.6zM5.4 13.71c-2.97 0-5.4 2.43-5.4 5.4V32.3c0 .52.42.94.94.94s.94-.42.94-.94V19.1c0-1.93 1.58-3.52 3.53-3.52h4.7c.03 0 1.18.1 5.32 4.84 2.2 2.5 4.1 5.03 4.12 5.06.18.23.45.37.75.37s.56-.14.74-.37c.02-.03 1.92-2.55 4.1-5.05 4.16-4.75 5.3-4.84 5.35-4.85h4.67c1.95 0 3.53 1.6 3.53 3.53V32.3c0 .52.42.94.94.94s.94-.42.94-.94V19.1c0-2.97-2.43-5.4-5.4-5.4h-4.7c-.9 0-2.5.62-6.72 5.46-1.4 1.6-2.7 3.22-3.47 4.2-.8-.98-2.08-2.6-3.48-4.2C12.6 14.32 11 13.7 10.1 13.7H5.4zm-.83 17.2c-.52 0-.94.42-.94.94v18.22c0 .52.42.94.94.94s.94-.42.94-.94V31.84c0-.52-.4-.94-.93-.94zm6.35 0c-.52 0-.94.42-.94.94v18.22c0 .52.42.94.94.94s.94-.42.94-.94V31.84c0-.52-.42-.94-.94-.94zm18.74 0c-.52 0-.94.42-.94.94v18.22c0 .52.42.94.94.94s.94-.42.94-.94V31.84c0-.52-.42-.94-.94-.94zm6.35 0c-.5 0-.94.42-.94.94v18.22c0 .52.43.94.95.94s.94-.42.94-.94V31.84c0-.52-.42-.94-.93-.94z"/></svg>