<svg xmlns="http://www.w3.org/2000/svg" width="77" height="39.367" viewBox="0 0 77 39.366799"><path fill="#fff" d="M33.6 0c-.38 0-.7.32-.7.7v6.14h-.73v-3.3c0-.4-.32-.7-.7-.7h-8.88c-2.26 0-4.1 1.77-4.2 4H.7c-.38 0-.7.32-.7.7 0 .4.32.73.7.73h17.7c.1 2.22 1.94 4 4.2 4h8.86c.4 0 .7-.3.7-.7v-3.3h.74v9.7c0 .4.32.7.7.7h.8V23h-2.48c-.4 0-.7.32-.7.72 0 .4.3.7.7.7h1.4v14.23c0 .4.33.72.72.72h5.63c.4 0 .7-.32.7-.72V24.43h1.42c.38 0 .7-.32.7-.7 0-.4-.32-.73-.7-.73h-2.5v-4.32h.8c.4 0 .7-.32.7-.7v-.87c2.16 1.05 4.52 1.6 6.9 1.6h9.72l1.52 6.85c.08.33.36.56.7.56h3.62l2.23 8.66-.72 1.3c-.3.55-.28 1.2.04 1.74.32.53.9.86 1.5.86h7.3c.98 0 1.9-.43 2.56-1.18.64-.74.93-1.73.78-2.7l-3.35-22.8C72.8 6.32 68.23 1.83 62.54 1.07c-.03 0-21.72 0-21.72 0V.7c0-.38-.3-.7-.7-.7h-6.5zm.72 1.43h5.07v15.83H34.3V1.43zm6.5 1.05h1.03v13.54c-.35-.15-.7-.33-1.04-.5V2.47zm2.46 0h19.1c5.05.7 9.08 4.68 9.82 9.71l.75 5.08H47.7c-1.5 0-3-.24-4.42-.7V2.47zM23.02 4.26h7.73v6.6h-7.73v-6.6zm-1.42.2v6.2c-1.04-.4-1.77-1.4-1.77-2.57V7c0-1.17.73-2.17 1.77-2.57zm35.43 2.02c-.2 0-.37.07-.5.2-.3.3-.3.74 0 1.02l3.5 3.5c.13.13.3.2.5.2.18 0 .36-.07.5-.2.28-.28.28-.73 0-1l-3.5-3.5c-.14-.15-.32-.22-.5-.22zm3.48 0c-.17 0-.35.07-.5.2-.27.3-.27.74 0 1.02l3.5 3.5c.14.13.33.2.5.2s.37-.07.5-.2c.3-.28.3-.73 0-1l-3.48-3.5c-.14-.15-.33-.22-.5-.22zm3.5 0c-.18 0-.37.07-.5.2-.28.3-.28.74 0 1.02l3.5 3.5c.13.13.3.2.5.2s.36-.07.5-.2c.28-.28.28-.73 0-1l-3.5-3.5c-.14-.15-.32-.22-.5-.22zm-14.85.82c-2.32 0-4.2 1.9-4.2 4.2 0 2.33 1.88 4.22 4.2 4.22 2.32 0 4.2-1.9 4.2-4.2 0-2.33-1.88-4.22-4.2-4.22zm0 1.43c.5 0 1 .14 1.4.38l-3.8 3.8c-.25-.4-.4-.88-.4-1.4 0-1.52 1.26-2.77 2.8-2.77zm2.4 1.4c.24.4.38.87.38 1.38 0 1.55-1.25 2.8-2.78 2.8-.5 0-1-.14-1.4-.38l3.8-3.8zm-15.73 8.55h2.07V23H35.8v-4.32zm26.2.03h11.14l2.27 15.44H66.8L63.44 21.1c-.24-.93-.74-1.75-1.4-2.4zm-3.13.03c1.5.16 2.77 1.24 3.16 2.74l.83 3.22h-2.7l-1.3-5.97zm8.86 1.33c-1.47 0-2.66 1.2-2.66 2.66 0 1.47 1.2 2.67 2.66 2.67s2.67-1.2 2.67-2.68-1.2-2.66-2.67-2.66zm0 1.42c.7 0 1.24.56 1.24 1.24 0 .7-.55 1.25-1.24 1.25-.68 0-1.24-.56-1.24-1.25 0-.68.56-1.24 1.24-1.24zm-33 2.95h4.2v1.6h-4.2v-1.6zm0 3.02h4.2V29h-4.2v-1.55zm0 2.98h4.2V32h-4.2v-1.57zm0 2.98h4.2v1.57h-4.2V33.4zm31.9 2.16h8.9c-.07.37-.22.7-.46 1-.38.42-.92.67-1.5.67h-7.27c-.16 0-.25-.1-.3-.16s-.07-.2 0-.33l.64-1.18zm-31.9.83h4.2v1.54h-4.2V36.4z"/></svg>