<svg xmlns="http://www.w3.org/2000/svg" width="39.844" height="51" viewBox="0 0 39.84375 51"><path fill="#fff" d="M19.92 0c-1.14 0-2.2.62-2.75 1.6h-2.03c-1.3 0-2.46.62-3.2 1.6H4C1.78 3.2 0 4.96 0 7.16v39.85C0 49.22 1.8 51 3.98 51h31.88c2.2 0 3.98-1.8 3.98-3.98V7.17c0-2.2-1.78-3.98-3.98-3.98H27.9c-.74-.98-1.9-1.6-3.2-1.6h-2.03C22.1.6 21.07 0 19.92 0zm0 1.6c.67 0 1.27.42 1.5 1.06.1.32.4.53.75.53h2.53c1.32 0 2.4 1.06 2.4 2.38v2.4H12.74v-2.4c0-1.32 1.07-2.4 2.4-2.4h2.53c.34 0 .64-.2.75-.52.22-.64.83-1.07 1.5-1.07zm0 1.6a.8.8 0 0 0-.8.78.8.8 0 0 0 .8.8.8.8 0 0 0 .8-.8.8.8 0 0 0-.8-.8zM3.98 4.77h7.26c-.06.26-.08.53-.08.8v3.2c0 .43.35.78.8.78h15.93c.43 0 .8-.35.8-.8V5.6c0-.27-.04-.54-.1-.8h7.26c1.32 0 2.4 1.07 2.4 2.4V47c0 1.3-1.08 2.4-2.4 2.4H3.98c-1.3 0-2.4-1.1-2.4-2.4V7.17c0-1.32 1.1-2.4 2.4-2.4zm0 1.6c-.44 0-.8.35-.8.8V47c0 .44.36.8.8.8H25.5c.03 0 .05 0 .08 0 0 0 .03-.02.04-.02 0 0 .02 0 .04 0 0 0 .03 0 .04 0 0-.02.02-.02.03-.02 0 0 .03 0 .04-.02 0 0 .03 0 .04 0 .02 0 .03-.02.04-.03 0 0 .03 0 .04 0 0-.02.02-.03.03-.04.02 0 .03-.02.04-.02.02 0 .03-.02.05-.04.03-.03.05-.04.06-.06l10.36-10.36c.03-.03.05-.05.07-.08 0 0 0 0 0-.02.03-.03.05-.06.06-.1.02-.03.03-.06.04-.08 0 0 0-.02 0-.03.02-.02.03-.05.04-.1 0-.03 0-.06 0-.1 0 0 0 0 0-.02.02 0 .02-.02.02-.02V7.16c0-.43-.36-.8-.8-.8h-4.78c-.44 0-.8.37-.8.8s.36.8.8.8h3.98v27.9H27.1c-1.32 0-2.4 1.07-2.4 2.4v4.77c0 .44.36.8.8.8s.8-.36.8-.8v-4.78c0-.44.35-.8.8-.8h6.84l-8.77 8.77H4.77V7.97h4c.44 0 .8-.36.8-.8s-.36-.8-.8-.8h-4.8zm4.8 7.17c-.45 0-.8.35-.8.8s.35.8.8.8h3.97c.44 0 .8-.37.8-.8s-.36-.8-.8-.8H8.77zm14.33 0c-.43 0-.8.35-.8.8s.37.8.8.8h7.98c.44 0 .8-.37.8-.8s-.36-.8-.8-.8H23.1zm-6.37 3.18c-.44 0-.8.36-.8.8s.36.8.8.8h14.35c.44 0 .8-.36.8-.8s-.36-.8-.8-.8H16.73zM8.76 23.1c-.44 0-.8.37-.8.8s.36.8.8.8h22.32c.44 0 .8-.35.8-.8s-.36-.8-.8-.8H8.76zm0 3.2c-.44 0-.8.35-.8.8s.36.8.8.8h22.32c.44 0 .8-.37.8-.8s-.36-.8-.8-.8H8.76zm0 3.18c-.44 0-.8.36-.8.8s.36.8.8.8h22.32c.44 0 .8-.36.8-.8s-.36-.8-.8-.8H8.76zm0 3.2c-.44 0-.8.35-.8.8s.36.8.8.8h22.32c.44 0 .8-.37.8-.8s-.36-.8-.8-.8H8.76zm1.2 3.18c-1.98 0-3.6 1.6-3.6 3.6 0 1.96 1.62 3.57 3.6 3.57s3.6-1.6 3.6-3.6c0-1.96-1.62-3.57-3.6-3.57zm5.98 0c-.44 0-.8.36-.8.8s.36.8.8.8h6.37c.45 0 .8-.36.8-.8s-.35-.8-.8-.8h-6.36zm-5.98 1.6c1.1 0 2 .9 2 2 0 1.08-.9 1.98-2 1.98s-2-.9-2-2 .9-2 2-2zm5.98 1.6c-.44 0-.8.34-.8.78s.36.8.8.8h6.37c.45 0 .8-.36.8-.8s-.35-.8-.8-.8h-6.36z"/></svg>