<svg xmlns="http://www.w3.org/2000/svg" width="55" height="32.925" viewBox="0 0 55 32.925339"><path fill="#fff" d="M44.15 2.62H.7c-.38 0-.7.32-.7.7V29.6c0 .4.32.7.7.7h43.44c.4 0 .7-.3.7-.7V3.33c0-.4-.3-.7-.7-.7zm-.7 26.28H1.4V4.03h42.04V28.9zM19.9 9.3h19.28c.4 0 .7-.33.7-.7 0-.4-.3-.72-.7-.72H19.9c-.4 0-.7.32-.7.7s.3.7.7.7zM19.9 25.06h13.96c.4 0 .7-.3.7-.7 0-.4-.3-.7-.7-.7H19.9c-.4 0-.7.3-.7.7s.3.7.7.7zM19.9 17.37h8.68c.4 0 .7-.3.7-.7 0-.4-.3-.7-.7-.7H19.9c-.4 0-.7.3-.7.7 0 .4.3.7.7.7zM19.9 21.22h8.68c.4 0 .7-.32.7-.7 0-.4-.3-.7-.7-.7H19.9c-.4 0-.7.3-.7.7 0 .38.3.7.7.7zM7.7 19.63c0-.4-.3-.7-.7-.7s-.7.3-.7.7c0 1.92 1.72 3.53 3.95 3.8v.93c0 .4.3.7.7.7s.7-.3.7-.7v-.92c2.24-.28 3.95-1.9 3.95-3.8 0-1.94-1.7-3.55-3.94-3.83v-4.88c1.45.25 2.53 1.23 2.53 2.4 0 .4.3.7.7.7s.7-.3.7-.7c0-1.93-1.7-3.54-3.94-3.82v-.9c0-.4-.32-.72-.7-.72s-.7.32-.7.7v.92C8 9.78 6.3 11.4 6.3 13.32s1.72 3.53 3.95 3.8v4.9c-1.45-.25-2.54-1.23-2.54-2.4zm6.5 0c0 1.16-1.1 2.14-2.54 2.4v-4.8c1.45.25 2.53 1.23 2.53 2.4zm-6.5-6.3c0-1.18 1.1-2.16 2.55-2.4v4.78C8.8 15.47 7.7 14.5 7.7 13.33zM52 0h-3.26c-.4 0-.7.32-.7.7v28.27c0 .1.02.2.07.3l1.64 3.27c.12.23.36.4.63.4.26 0 .5-.17.63-.4l1.62-3.26c.05-.1.08-.2.08-.3V.7c0-.4-.32-.7-.7-.7zm-.7 28.8l-.93 1.85-.93-1.85V1.4h1.85v27.4zM54.3 3.7c-.4 0-.7.32-.7.7v9.64c0 .4.3.7.7.7s.7-.3.7-.7V4.4c0-.38-.32-.7-.7-.7z"/></svg>