<svg xmlns="http://www.w3.org/2000/svg" width="14.641" height="18" viewBox="0 0 14.641412 18"><path fill="#b3965a" d="M.72 0C.32 0 0 .32 0 .72v16.56c0 .4.33.72.72.72h13.2c.4 0 .72-.33.72-.72V.72c0-.4-.32-.72-.72-.72H.72zm.72 1.44H13.2v15.12H1.44V1.44zM4.08 4.2c-.4 0-.72.33-.72.72 0 .4.32.72.72.72h6.48c.4 0 .72-.32.72-.72s-.32-.72-.72-.72H4.08zm0 3.84c-.4 0-.72.32-.72.72 0 .4.32.72.72.72h6.48c.4 0 .72-.33.72-.72s-.32-.72-.72-.72H4.08zm0 4.08c-.4 0-.72.32-.72.72s.32.72.72.72h6.48c.4 0 .72-.32.72-.72s-.32-.72-.72-.72H4.08z"/></svg>