<svg xmlns="http://www.w3.org/2000/svg" width="43" height="43" viewBox="0 0 43 43"><path fill="#f7f7f7" d="M36.47 28.02v-.1c.1-.5.3-1.8 1-2.5.4-.4 1.1-.9 1.7-1.3-.2-.1-.4-.3-.6-.5-.4-.62-.3-.82-.5-1.22 0-.1-.2-.2-.2-.1-.1.1-.3.1-.5 0-.1-.1-.1-.3 0-.5.1-.1.1-.1.2-.1.7-.1 1.2-.2 1.6.3.2.2.2.5.3.6.1.2.32.3.32.3-.12-.3-.12-.7 0-.9.1-.2.2-.4.4-.5-.2-.1-.3-.3-.4-.5s-.12-.6 0-.9l-.32.3c-.1.1-.1.4-.3.6-.4.5-.9.3-1.6.3-.1 0-.1 0-.2-.1s-.1-.3 0-.5c.1-.1.3-.1.5 0 .1.1.2 0 .2-.1.2-.3.1-.6.5-1.2.2-.2.4-.4.6-.5-.7-.4-1.3-.9-1.7-1.3-.7-.7-.9-2-1-2.52v-.1h.1c.5.1 1.8.3 2.5 1 .4.4.9 1.1 1.3 1.7.1-.2.3-.4.5-.6.6-.4.8-.3 1.22-.5.1-.1.2-.2.1-.2-.1-.1-.1-.3 0-.5.1-.1.3-.1.5 0 .1.1.1.1.1.2.1.7.2 1.2-.3 1.6-.2.2-.5.2-.6.3-.2.1-.3.3-.3.3.3-.1.7-.1.9 0 .2.1.4.2.5.4v.7c-1.1 0-2 .92-2 2.02s.9 2 2 2v.9c-.1.2-.3.3-.5.4-.2.1-.6.1-.9 0l.3.3c.1.1.4.1.6.3.5.4.3.9.3 1.6 0 .1 0 .1-.1.2s-.3.1-.5 0c-.1-.1-.1-.3 0-.5.1-.1 0-.2-.1-.2-.3-.2-.6-.1-1.2-.5-.2-.2-.4-.4-.5-.6-.4.7-.92 1.3-1.32 1.7-.7.7-2 .9-2.5 1h-.1zM43 22.9c-.8 0-1.5-.7-1.5-1.5s.7-1.5 1.5-1.5v.9c-.4 0-.7.3-.7.7 0 .4.3.7.7.7v.7zM18.7 43c-.2-.1-.3-.3-.4-.5-.12-.2-.12-.6 0-.9l-.32.3c-.1.1-.1.4-.3.6-.4.5-.9.3-1.6.3-.1 0-.1 0-.2-.1s-.1-.3 0-.5c.1-.1.3-.1.5 0 .1.1.2 0 .2-.1.2-.3.1-.6.5-1.2.2-.2.4-.4.6-.5-.7-.4-1.3-.9-1.7-1.3-.7-.7-.9-2.02-1-2.52v-.1h.1c.5.1 1.8.3 2.5 1 .4.4.9 1.1 1.3 1.7.1-.2.3-.4.5-.6.6-.4.82-.3 1.22-.5.1 0 .2-.2.1-.2-.1-.1-.1-.3 0-.5.1-.1.3-.1.5 0 .1.1.1.1.1.2.1.7.2 1.2-.3 1.6-.2.2-.5.2-.6.3-.2.1-.3.3-.3.3.3-.1.7-.1.9 0s.4.2.5.4c.1-.2.3-.3.5-.4s.6-.1.9 0l-.3-.3c-.1-.1-.4-.1-.6-.3-.5-.4-.3-.9-.3-1.6 0-.1 0-.1.1-.2s.3-.1.5 0c.1.1.1.3 0 .5-.1.1 0 .2.1.2.3.2.6.1 1.2.5.2.2.4.4.5.6.4-.7.92-1.3 1.32-1.7.7-.7 2-.9 2.5-1 0 0 .1 0 .1.1-.1.5-.3 1.8-1 2.5-.4.4-1.1.9-1.7 1.3.2.1.4.3.6.5.4.62.3.82.5 1.22 0 .1.2.2.2.1.1-.1.3-.1.5 0 .1.1.1.3 0 .5-.1.1-.1.1-.2.1-.7.1-1.2.2-1.6-.3-.2-.2-.2-.5-.3-.6-.1-.2-.3-.3-.3-.3.1.3.1.7 0 .9-.1.2-.2.4-.4.5h-.82c0-.03 0-.07 0-.1 0-1.1-.8-2-2-2-1.1 0-2 .9-2 2 0 .03 0 .07 0 .1h-.8zm1.3 0c0-.03 0-.07 0-.1 0-.8.7-1.5 1.5-1.5s1.5.7 1.5 1.5c0 .03 0 .07 0 .1h-.82c0-.04.02-.07.02-.1 0-.4-.3-.7-.7-.7s-.7.3-.7.7c0 .03 0 .06.02.1H20zM6.53 28.02v-.1c-.1-.5-.3-1.8-1-2.5-.4-.4-1.1-.9-1.7-1.3.2-.1.4-.3.6-.52.4-.6.3-.8.5-1.2 0-.1.2-.2.2-.1.1.1.3.1.5 0 .1-.1.1-.3 0-.5-.1-.1-.1-.1-.2-.1-.7-.1-1.2-.2-1.6.3-.2.2-.2.5-.3.6-.1.2-.32.3-.32.3.1-.3.1-.7 0-.9-.1-.2-.2-.4-.4-.5.2-.1.3-.3.4-.5s.1-.6 0-.9l.32.3c.1.1.1.4.3.6.4.5.9.3 1.6.3.1 0 .1 0 .2-.1s.1-.3 0-.5c-.1-.1-.3-.1-.5 0-.1.1-.2 0-.2-.1-.2-.3-.1-.6-.5-1.2-.2-.2-.4-.4-.6-.5.7-.4 1.3-.9 1.7-1.3.7-.7.9-2 1-2.52v-.1h-.1c-.5.1-1.8.3-2.5 1-.4.4-.9 1.1-1.3 1.7-.1-.2-.3-.4-.5-.6-.6-.4-.8-.3-1.22-.5-.1-.1-.2-.2-.1-.2.1-.1.1-.3 0-.5-.1-.1-.3-.1-.5 0-.1.1-.1.1-.1.2-.1.7-.2 1.2.3 1.6.2.2.5.2.6.3.2.1.3.3.3.3-.3-.1-.7-.1-.9 0-.2.1-.4.2-.5.4v.7c1.1 0 2 .92 2 2.02s-.9 2-2 2v.9c.1.2.3.3.5.4.2.1.6.1.9 0l-.3.3c-.1.1-.4.1-.6.3-.5.4-.3.9-.3 1.6 0 .1 0 .1.1.2s.3.1.5 0c.1-.1.1-.3 0-.5-.1-.1 0-.2.1-.2.3-.2.6-.1 1.2-.5.2-.2.4-.4.5-.6.4.7.92 1.3 1.32 1.7.7.7 2 .9 2.5 1h.1zM0 22.9c.8 0 1.5-.7 1.5-1.5S.8 19.9 0 19.9v.9c.4 0 .7.3.7.7 0 .4-.3.7-.7.7v.7zM14.17 43c0-7.82-6.33-14.13-14.17-14.13v1c7.23 0 13.16 5.9 13.16 13.13h1zm-1.7 0c0-6.92-5.64-12.43-12.47-12.43v1c6.33 0 11.45 5.1 11.45 11.43h1zM8.6 43c-.2-.25-1-.42-1.27-.5.1-.2.2-.4.1-.5-.2-.3-.9-.1-1.2.2-.3.3-.9.4-1.4.5H2.9c-.1-.4-.2-.9-.4-1.2 2.02.2 5.14-.3 5.94-.4 1 0 .6.7.6.9 0 .1-.1.5.3.6.3.1.6 0 .8-.2.3-.4.2-1.5-.9-1.8-.8-.3-2.7.2-4.52.3.8-.5.7-.8 1.2-1.1.1-.1.3-.1.3 0 .1.2.3.3.5.2s.3-.3.2-.5c0-.1-.1-.2-.2-.2-.6-.3-1.2-.6-1.7-.6.1-.6 0-1.4-.1-2.02-.2-1 .6-.6.7-.6s.5.1.6-.3c.1-.3 0-.6-.2-.8-.4-.3-1.5-.2-1.8.9-.3.8.4 2.2 0 3.3l-.3.3c-.3.2-.5.2-.5.2.3-.3.5-.8.5-1.1.1-.9-.9-1.3-.9-1.3.1.9-.5.9-1.2 1.7-.3.5-.3 1.1-.1 1.6h-.1s-.1 0-.1-.1C1.1 40.2.7 39.3.4 38.6c.5-1.1 2-1.3 1.8-1.9 0-.2-.2-.2-.5-.2.2-.5.4-1.2.1-1.4-.2-.1-.6-.1-.9.1-.1-.6-.5-2.2-.9-2.2v2.8l.1.8.5-.3-.2.5c-.1.1-.3.2-.4.4V41c1.1 0 2 .92 2 2.02h6.6zm-7.1 0c0-.8-.7-1.5-1.5-1.5v.8c.4 0 .7.3.7.7h.8zm27.33 0c0-7.82 6.33-14.13 14.17-14.13v1c-7.23 0-13.16 5.9-13.16 13.13h-1zm1.7 0c0-6.92 5.64-12.43 12.47-12.43v1c-6.33 0-11.45 5.1-11.45 11.43h-1zm3.87 0c.18-.25 1-.42 1.27-.5-.1-.2-.2-.4-.1-.5.2-.3.9-.1 1.2.2.3.3.9.4 1.4.5h1.92c.1-.4.2-.9.4-1.2-2.02.2-5.14-.3-5.94-.4-1 0-.6.7-.6.9 0 .1.1.5-.3.6-.3.1-.6 0-.8-.2-.3-.4-.2-1.5.9-1.8.8-.3 2.7.2 4.52.3-.8-.5-.7-.8-1.2-1.1-.1-.1-.3-.1-.3 0-.1.2-.3.3-.5.2s-.3-.3-.2-.5c0-.1.1-.2.2-.2.6-.3 1.2-.6 1.7-.6-.1-.6 0-1.42.1-2.02.2-1-.6-.6-.7-.6s-.5.1-.6-.3c-.1-.3 0-.6.2-.8.4-.3 1.5-.2 1.8.9.3.8-.4 2.2 0 3.3l.3.3c.3.2.5.2.5.2-.3-.3-.5-.8-.5-1.1-.1-.9.9-1.3.9-1.3-.1.9.5.9 1.2 1.7.3.5.3 1.1.1 1.6h.1s.1 0 .1-.1c.4-.3.82-1.2 1.12-1.9-.5-1.1-2-1.3-1.8-1.9 0-.2.2-.2.5-.2-.2-.5-.4-1.2-.1-1.4.2-.1.6-.1.9.1.1-.6.5-2.2.9-2.2v2.8l-.1.8-.5-.3.2.5c.1.1.3.2.4.4v3.8c-1.1 0-2 .9-2 2.02h-6.6zm7.1 0c0-.8.7-1.5 1.5-1.5v.8c-.4 0-.7.3-.7.7h-.8zM14.16 0c0 7.82-6.33 14.13-14.17 14.13v-1c7.23 0 13.16-5.9 13.16-13.13h1zm-1.7 0c0 6.92-5.64 12.43-12.47 12.43v-1c6.33 0 11.45-5.1 11.45-11.43h1zM8.6 0c-.2.25-1 .42-1.27.5.1.2.2.4.1.5-.2.3-.9.1-1.2-.2-.3-.3-.9-.4-1.4-.5H2.9c-.1.4-.2.9-.4 1.2 2.02-.2 5.14.3 5.94.4 1 0 .6-.7.6-.9 0-.1-.1-.5.3-.6.3-.1.6 0 .8.2.3.4.2 1.5-.9 1.8-.8.3-2.7-.2-4.52-.3.8.5.7.8 1.2 1.1.1.1.3.1.3 0 .1-.2.3-.3.5-.2.2.1.3.3.2.5 0 .1-.1.2-.2.2-.6.3-1.2.6-1.7.6.1.6 0 1.4-.1 2.02-.2 1 .6.6.7.6.1 0 .5-.1.6.3.1.3 0 .6-.2.8-.4.3-1.5.2-1.8-.9-.3-.8.4-2.2 0-3.3l-.3-.3c-.3-.2-.5-.2-.5-.2.3.3.5.8.5 1.1.1.9-.9 1.3-.9 1.3.1-.9-.5-.9-1.2-1.7-.3-.5-.3-1.1-.1-1.6h-.1s-.1 0-.1.1C1.1 2.8.7 3.7.4 4.4c.5 1.1 2 1.3 1.8 1.9 0 .2-.2.2-.5.2.2.5.4 1.2.1 1.4-.2.1-.6.1-.9-.1-.1.6-.5 2.2-.9 2.2v-2.8l.1-.8.5.3-.2-.5c-.1-.1-.3-.2-.4-.4V2C1.1 2 2 1.1 2 0h6.6zM1.5 0C1.5.8.8 1.5 0 1.5V.7C.4.7.7.4.7 0h.8zm20 23c.8 0 1.5-.7 1.5-1.5s-.7-1.5-1.5-1.5-1.5.7-1.5 1.5.6 1.5 1.5 1.5zm0-2.2c.4 0 .7.3.7.7s-.3.7-.7.7-.7-.3-.7-.7.3-.7.7-.7zm-9.34.2c.4-.2.3-.5.3-.6 0-.2-.4-.9.6-.9.7 0 3.92.6 5.93.4-.2.4-.4.8-.4 1.2h-1.92c-.5-.1-1.1-.3-1.4-.5-.3-.3-1-.5-1.2-.2-.12.1 0 .3.1.5-.42.1-1.32.3-1.32.6s1 .5 1.3.6c-.1.2-.2.4-.1.5.2.3.9.1 1.2-.2.3-.3.9-.4 1.42-.5h1.9c.1.4.2.9.4 1.2-2-.2-5.12.3-5.92.4-1 0-.6-.7-.6-.9 0-.1.1-.5-.3-.6-.3-.1-.6 0-.8.2-.3.4-.2 1.5.9 1.8.8.3 2.7-.2 4.52-.3-.8.5-.7.8-1.2 1.1-.1.1-.3.1-.3 0-.1-.2-.3-.3-.5-.2-.2.1-.3.3-.2.5 0 .1.1.2.2.2.6.3 1.2.6 1.7.6-.1.6 0 1.4.1 2.02.2 1-.6.6-.7.6s-.5-.1-.6.3c-.1.3 0 .6.2.8.4.3 1.5.2 1.8-.9.3-.8-.4-2.2 0-3.3.1-.1.2-.2.3-.3.3-.2.5-.2.5-.2-.3.3-.5.8-.5 1.1-.1.9.9 1.3.9 1.3-.1-.9.5-.9 1.2-1.7.3-.5.3-1.1.1-1.6h.1s.1 0 .1.1c.4.3.82 1.2 1.12 1.9-.5 1.1-2 1.3-1.8 1.9 0 .2.2.2.5.2-.2.5-.4 1.2-.1 1.4.2.1.6.1.9-.1.1.6.5 2.2.9 2.2.5 0 .8-1.6.9-2.2.3.2.7.3.9.1.3-.2.2-.9-.1-1.4.2 0 .4-.1.5-.2.1-.6-1.4-.8-1.8-1.9.3-.8.7-1.7 1.1-1.9 0 0 .1 0 .1-.1h.1c-.1.5-.2 1.1.1 1.6.6.9 1.3.8 1.2 1.7 0 0 1.02-.4.92-1.3 0-.3-.2-.8-.5-1.1 0 0 .2 0 .5.2.1.1.2.2.3.3.4 1-.2 2.5 0 3.3.4 1 1.5 1.2 1.8.9.3-.2.4-.5.2-.8-.2-.4-.5-.3-.6-.3-.2 0-.9.4-.7-.6.1-.6.2-1.4.1-2 .6.1 1.2-.2 1.7-.6.1 0 .1-.1.2-.2.1-.2 0-.5-.2-.5-.2-.1-.5 0-.5.2-.1.2-.2.1-.3 0-.5-.3-.4-.6-1.2-1.1 1.8.1 3.72.6 4.52.3 1.1-.4 1.2-1.52.9-1.82-.2-.3-.5-.4-.8-.2-.4.2-.3.5-.3.6 0 .2.4.9-.6.9-.7 0-3.92-.6-5.93-.4.2-.4.4-.8.4-1.2h1.92c.5.1 1.1.3 1.4.5.3.3 1 .5 1.2.2.12-.1 0-.3-.1-.5.42-.1 1.32-.3 1.32-.6s-1-.5-1.3-.6c.1-.2.2-.4.1-.5-.2-.3-.9-.1-1.2.2-.3.3-.9.4-1.42.5h-1.9c-.1-.4-.2-.9-.4-1.2 2 .2 5.12-.3 5.92-.4 1 0 .6.7.6.9 0 .1-.1.5.3.6.3.1.6 0 .8-.2.3-.4.2-1.5-.9-1.8-.8-.3-2.7.2-4.52.3.8-.5.7-.8 1.2-1.1.1-.1.3-.1.3 0 .1.2.3.3.5.2.2-.1.3-.3.2-.5 0-.1-.1-.2-.2-.2-.6-.3-1.2-.6-1.7-.6.1-.6 0-1.4-.1-2-.2-1.02.6-.62.7-.62s.5.1.6-.3c.1-.3 0-.6-.2-.8-.4-.3-1.5-.2-1.8.9-.3.8.4 2.2 0 3.3-.1.1-.2.2-.3.3-.3.2-.5.2-.5.2.3-.3.5-.8.5-1.1.1-.9-.9-1.3-.9-1.3.1.9-.5.9-1.2 1.7-.3.5-.3 1.1-.1 1.6h-.1s-.1 0-.1-.1c-.4-.3-.82-1.2-1.12-1.9.5-1.1 2-1.3 1.8-1.9 0-.2-.2-.2-.5-.2.2-.5.4-1.2.1-1.4-.2-.1-.6-.1-.9.1-.1-.6-.5-2.2-.9-2.2-.5 0-.8 1.6-.9 2.2-.3-.2-.7-.3-.9-.1-.3.2-.2.9.1 1.4-.2 0-.4.1-.5.2-.1.6 1.4.8 1.8 1.9-.3.8-.7 1.7-1.1 1.9 0 0-.1 0-.1.1h-.1c.1-.5.2-1.1-.1-1.6-.6-.9-1.3-.8-1.2-1.7 0 0-1.02.4-.92 1.3 0 .3.2.8.5 1.1 0 0-.2 0-.5-.2-.1-.1-.2-.2-.3-.3-.4-1 .2-2.5 0-3.3-.4-1-1.5-1.2-1.8-.9-.3.2-.4.5-.2.8.2.4.5.3.6.3.2 0 .9-.4.7.6-.1.6-.2 1.4-.1 2-.6-.1-1.2.2-1.7.6-.1 0-.1.1-.2.2-.1.2 0 .5.2.5.2.1.5 0 .5-.2.1-.1.2-.1.3 0 .5.3.4.6 1.2 1.1-1.8-.1-3.72-.6-4.52-.3-1.1.42-1.2 1.52-.9 1.82.3.2.6.3.8.2zm9.74 6.5l.2.52-.5-.3-.2.9-.1-.9-.5.3.2-.5c.1-.1.3-.2.4-.4.2.2.3.3.5.4zM21 15.3l-.2-.52.5.3.1-.9.2.9.5-.3-.2.5c-.1.1-.3.2-.4.4-.2-.2-.3-.3-.5-.4zm.5 4.1c1.1 0 2 .9 2 2s-.9 2-2 2-2-.9-2-2c-.1-1.1.8-2 2-2zm0 14.53c6.93 0 12.46-5.6 12.46-12.43 0-6.92-5.63-12.43-12.46-12.43-6.93 0-12.46 5.6-12.46 12.43 0 6.9 5.63 12.43 12.46 12.43zm0-23.86c6.33 0 11.45 5.1 11.45 11.43 0 6.3-5.12 11.43-11.45 11.43-6.33 0-11.45-5.12-11.45-11.43 0-6.32 5.12-11.43 11.45-11.43zm0 25.56c7.84 0 14.17-6.3 14.17-14.13 0-7.82-6.33-14.13-14.17-14.13S7.33 13.67 7.33 21.5c0 7.82 6.43 14.13 14.17 14.13zm0-27.26c7.23 0 13.16 5.9 13.16 13.13 0 7.22-5.93 13.13-13.16 13.13S8.34 28.73 8.34 21.5c0-7.22 5.93-13.13 13.16-13.13zM18.7 0c-.2.1-.3.3-.4.5-.12.2-.12.6 0 .9l-.32-.3c-.1-.1-.1-.4-.3-.6-.4-.5-.9-.3-1.6-.3-.1 0-.1 0-.2.1s-.1.3 0 .5c.1.1.3.1.5 0 .1-.1.2 0 .2.1.2.3.1.6.5 1.2.2.2.4.4.6.5-.7.4-1.3.9-1.7 1.3-.7.7-.9 2-1 2.52v.1h.1c.5-.1 1.8-.3 2.5-1 .4-.4.9-1.1 1.3-1.7.1.2.3.4.5.6.6.4.8.3 1.22.5.1 0 .2.2.1.2-.1.1-.1.3 0 .5.1.1.3.1.5 0 .1-.1.1-.1.1-.2.1-.7.2-1.2-.3-1.6-.2-.2-.5-.2-.6-.3-.2-.1-.3-.3-.3-.3.3.1.7.1.9 0s.4-.2.5-.4c.1.2.3.3.5.4s.6.1.9 0l-.3.3c-.1.1-.4.1-.6.3-.5.4-.3.9-.3 1.6 0 .1 0 .1.1.2s.3.1.5 0c.1-.1.1-.3 0-.5-.1-.1 0-.2.1-.2.3-.2.6-.1 1.2-.5.2-.2.4-.4.5-.6.42.7.92 1.3 1.32 1.7.7.7 2 .9 2.5 1 0 0 .1 0 .1-.1-.1-.5-.3-1.8-1-2.5-.4-.4-1.1-.9-1.7-1.3.2-.1.4-.3.6-.5.4-.6.3-.82.5-1.22 0-.1.2-.2.2-.1.1.1.3.1.5 0 .1-.1.1-.3 0-.5-.1-.1-.1-.1-.2-.1-.7-.1-1.2-.2-1.6.3-.2.2-.2.5-.3.6-.1.2-.3.3-.3.3.1-.3.1-.7 0-.9-.1-.2-.2-.4-.4-.5h-.82c0 .03 0 .07 0 .1 0 1.1-.8 2-2 2-1.1 0-2-.9-2-2 0-.03 0-.07 0-.1h-.8zM20 0c0 .03 0 .07 0 .1 0 .8.7 1.5 1.5 1.5S23 .9 23 .1c0-.03 0-.07 0-.1h-.82c0 .04.02.07.02.1 0 .4-.3.7-.7.7s-.7-.3-.7-.7c0-.04 0-.07.02-.1H20zm8.83 0c0 7.82 6.33 14.13 14.17 14.13v-1c-7.23 0-13.16-5.9-13.16-13.13h-1zm1.7 0c0 6.92 5.64 12.43 12.47 12.43v-1c-6.33 0-11.45-5.1-11.45-11.43h-1zm3.87 0c.18.25 1 .42 1.27.5-.1.2-.2.4-.1.5.2.3.9.1 1.2-.2.3-.3.9-.4 1.4-.5h1.92c.1.4.2.9.4 1.2-2.02-.2-5.14.3-5.94.4-1 0-.6-.7-.6-.9 0-.1.1-.5-.3-.6-.3-.1-.6 0-.8.2-.3.4-.2 1.5.9 1.8.8.3 2.7-.2 4.52-.3-.8.5-.7.8-1.2 1.1-.1.1-.3.1-.3 0-.1-.2-.3-.3-.5-.2-.2.1-.3.3-.2.5 0 .1.1.2.2.2.6.3 1.2.6 1.7.6-.1.6 0 1.4.1 2.02.2 1-.6.6-.7.6s-.5-.1-.6.3c-.1.3 0 .6.2.8.4.3 1.5.2 1.8-.9.3-.8-.4-2.2 0-3.3l.3-.3c.3-.2.5-.2.5-.2-.3.3-.5.8-.5 1.1-.1.9.9 1.3.9 1.3-.1-.9.5-.9 1.2-1.7.3-.5.3-1.1.1-1.6h.1s.1 0 .1.1c.4.3.82 1.2 1.12 1.9-.5 1.1-2 1.3-1.8 1.9 0 .2.2.2.5.2-.2.5-.4 1.2-.1 1.4.2.1.6.1.9-.1.1.6.5 2.2.9 2.2v-2.8l-.1-.8-.5.3.2-.5c.1-.1.3-.2.4-.4V2c-1.1 0-2-.9-2-2.02h-6.6zm7.1 0c0 .8.7 1.5 1.5 1.5V.7c-.4 0-.7-.3-.7-.7h-.8z"/></svg>