<svg xmlns="http://www.w3.org/2000/svg" width="19" height="15" viewBox="0 0 19 15"><path fill="#687172" d="M7.46 1.36q-1.62 0-3.03.56-1.4.55-2.24 1.5-.84.95-.84 2.03 0 .88.56 1.7.56.8 1.58 1.4l1.03.6-.37.9q.36-.23.65-.43l.48-.33.56.1q.83.15 1.62.15 1.63 0 3.04-.56 1.4-.56 2.24-1.5.83-.96.83-2.05 0-1.08-.83-2.03-.83-.95-2.24-1.5-1.4-.56-3.04-.56zm0-1.36Q9.5 0 11.2.73q1.74.73 2.73 2 1 1.24 1 2.72 0 1.5-1 2.74-1 1.25-2.72 1.98-1.7.73-3.74.73-.9 0-1.86-.16-1.32.94-2.95 1.36-.38.1-.9.17H1.7q-.1 0-.2-.08-.1-.1-.13-.24 0-.03 0-.06 0-.04 0-.07 0-.04 0-.07l.04-.05.05-.05.04-.05.04-.05.04-.05q.05-.07.24-.27.2-.2.28-.3.08-.12.24-.32.15-.2.26-.4.1-.2.22-.47-1.3-.77-2.07-1.9Q0 6.74 0 5.46q0-1.48 1-2.73 1-1.26 2.72-2Q5.44 0 7.46 0zm8.72 12.45q.1.26.22.47.1.22.26.4.16.2.24.32.1.1.28.32.2.2.24.26 0 0 .04.05.03.04.05.05.03.02.05.06.03.03.04.06l.02.05.02.05v.14q-.04.14-.15.22-.1.1-.24.08-.53-.08-.9-.17-1.64-.43-2.96-1.37-.95.18-1.86.18-2.88 0-5-1.4.6.03.92.03 1.7 0 3.28-.48 1.57-.5 2.8-1.38 1.32-.98 2.04-2.26.7-1.28.7-2.7 0-.83-.24-1.63 1.37.76 2.16 1.9.8 1.14.8 2.45 0 1.28-.75 2.4-.76 1.1-2.07 1.87z"/></svg>