<svg xmlns="http://www.w3.org/2000/svg" viewBox="0 0 25 25"><path fill="#00aef1" fill-rule="evenodd" d="M3.12 0h18.76A3.12 3.13 0 0 1 25 3.12v18.75A3.12 3.13 0 0 1 21.88 25H3.12A3.12 3.13 0 0 1 0 21.87V3.12A3.12 3.13 0 0 1 3.12 0zm1.12 2.68h16.52a1.54 1.54 0 0 1 1.56 1.53v16.6a1.54 1.54 0 0 1-1.56 1.52H4.26a1.54 1.54 0 0 1-1.58-1.53V4.2A1.54 1.54 0 0 1 4.25 2.7zm15.4 5.05a5.68 5.68 0 0 1-1.68.5 3.13 3.13 0 0 0 1.3-1.75 5.63 5.64 0 0 1-1.87.77 2.82 2.82 0 0 0-2.15-1 3.05 3.05 0 0 0-2.93 3.16 3.35 3.36 0 0 0 .07.72 8.13 8.14 0 0 1-6.05-3.3 3.3 3.3 0 0 0-.4 1.6 3.22 3.23 0 0 0 1.3 2.62 2.88 2.88 0 0 1-1.32-.4v.05a3.1 3.1 0 0 0 2.35 3.08 2.82 2.82 0 0 1-.77.1 2.53 2.53 0 0 1-.54-.05 2.96 2.96 0 0 0 2.73 2.2 5.6 5.62 0 0 1-3.65 1.35 5.4 5.4 0 0 1-.7-.05 7.85 7.86 0 0 0 4.5 1.42c5.4 0 8.34-4.8 8.34-8.98 0-.13 0-.27-.02-.4a6.17 6.18 0 0 0 1.46-1.64z"/></svg>