<svg xmlns="http://www.w3.org/2000/svg" viewBox="0 0 25 25"><path fill="#2e77a4" fill-rule="evenodd" d="M3.12 0h18.75A3.12 3.13 0 0 1 25 3.12v18.75A3.12 3.13 0 0 1 21.87 25H3.12A3.12 3.13 0 0 1 0 21.87V3.12A3.12 3.13 0 0 1 3.12 0zm1.12 2.68h16.52a1.56 1.56 0 0 1 1.56 1.56v16.52a1.56 1.56 0 0 1-1.56 1.56H4.24a1.56 1.56 0 0 1-1.56-1.56V4.24a1.56 1.56 0 0 1 1.56-1.56zm2.9 16.06h6.18a15.54 15.55 0 0 0 1.6-.17 3.44 3.44 0 0 0 1.37-.4 3.2 3.2 0 0 0 1.13-1.24 3.6 3.6 0 0 0 .42-1.75 3.23 3.24 0 0 0-.6-1.98 3.2 3.2 0 0 0-1.82-1.1 2.82 2.82 0 0 0 1.24-.85 2.93 2.93 0 0 0 .64-1.9 3.02 3.02 0 0 0-.9-2.22 3.5 3.5 0 0 0-2.56-.9h-6.7zm3.62-9.97h1.58a1.63 1.64 0 0 1 1.14.3 1.1 1.1 0 0 1 .33.86 1.2 1.2 0 0 1-.32.9 1.68 1.68 0 0 1-1.17.3h-1.54zm0 4.75h1.8a1.95 1.95 0 0 1 1.33.34 1.13 1.13 0 0 1 .36.9 1.24 1.24 0 0 1-.37.94 1.88 1.88 0 0 1-1.3.35h-1.84v-2.53z"/></svg>