<svg xmlns="http://www.w3.org/2000/svg" width="111" height="91" viewBox="0 0 110.74306 90.080808"><path fill="#777" fill-opacity=".05" d="M63-.38c-.94.04-1.82.14-2.52.33-5.9 1.62-5.46.27-9.06.43-1.54.07-3.46.52-5.2.43C41.4.58 39.8.5 32.42 3.37c-1.83.72-3.9.1-5.63.86-2.7 1.18-2.66 3.18-7.8 4.7-3.82 1.15-8.2 3.47-10.36 5.98-3.36 3.9-.7 3.38-2.6 5.1-.4.4-2.6.28-3.43 1.3-1.46 1.78-.5 2.2-.85 3.4-.3 1.15-1.26 2.1-1.3 3.4 0 .7 1.07 1.15.87 3.43C1.17 33.16.06 34.48 0 35.8c-.07 2.54 1.03 2.54 1.3 3.84.6 2.74 1.7 5.08 3.03 7.28.64 1.03 2.06 1.93 3.02 2.97 1.4 1.5 2.3 3.47 3.9 4.67.4.3 4.43.7 7.77 1.3 3.17.56 2.7-.4 4.75-.43.9-.02 1.53.54.86 1.7-.24.4-1.28 5.12 2.16 5.55.84.1.5 1.9 1.7 2.13 1.26.24 3.1-.38 5.6.84 2.1 1.03 2.84 2.82 5.2 3.43 1.8.47 4.74-1.3 6.5-1.27 1.57.03 3.74.13 5.2.43 2.56.54 1.9 1.4 3.45 2.56.42.32 2.08.5 3.45 0 .45-.16 2.17.85 2.17.85v-.85s-.93-.83-2.16-.86c-.92-.02-2.03.42-3 0-.8-.37-.62-1.17-1.3-1.7-.9-.74-2.73-1.2-4.3-1.3-7.06-.44-8.14 2.38-10.38.86-3.52-2.4-3.44-2.63-5.6-3.4-1.2-.43-2.82-.35-4.33-.43-.8-.06.04-1.57-1.7-2.15-1.43-.45-2.23-.67-1.76-3.84.2-1.33.56-1.8 0-3-.3-.6-1.7-.74-2.6-.4-1.1.45-2.04.64-3 .4-4.84-1-7.9-.62-9.1-2.1-1.9-2.42-1.94-3.3-5.17-6-.65-.5-1.9-2.7-2.6-4.67-.32-.97-.62-1.9-.84-2.55C1.7 38.2.83 37.9.9 35.84c.06-1.1 1.3-2.34 1.3-3.42.08-4.05-.9-3.2-.86-4.7.02-.8.96-1.32 1.3-2.1.44-1-.16-2.9.87-3.85.67-.6 2.93-.62 3.47-1.3 1.6-1.97-.68-2.9 4.76-6.82 5.07-3.75 6.1-3.3 9.02-4.32 2.92-1.03 4.1-3.3 6.47-4.27 1.8-.74 4.3-.36 5.63-.85C38.87 2 38.7 2.1 40.6 1.67c.63-.14 1.32.02 2.17 0 1.78-.04 3.97.26 5.18 0 4.53-.94 7.5.4 10.37-.43C64.5-.53 70.97 1 76.47 3.37c1.7.72 3.6.46 5.18 1.28 1.6.84 2.34 2.13 3.9 3 1.5.8 2.98 1.1 4.33 2.12.66.52.24 2.2 1.3 3 3.2 2.44 7.43 5.62 9.5 9.37 1.08 2-.6 3.33.86 4.7 6.26 5.9 5.38 8.67 6.48 13.23.25 1 1.57 1.5 1.72 3.35v.06c.23 3-.8 6.06-1.72 7.25-4.02 5.3-8.3 2.66-9.93 3.84-.75.53-.93 1.36-.45 2.55 1.7 4.33.5 6.02-.87 8.54-2.8 5.2-6.48 8.1-6.48 8.1v.86s1.85-1.25 4.33-4.27c.98-1.2 1.97-2.9 3.02-4.7 1.55-2.6 2.17-4.85.86-8.95-1.3-4.13 6.86 1.56 10.8-6.82.6-1.3 1.8-4.07 1.3-7.25h-.02c-.17-1.15-1.4-1.7-1.73-3-.8-3.3-.9-6-3.02-8.95-1.06-1.5-2.07-3.04-3.88-4.7-.55-.5.37-3.16-.44-4.26-1.4-1.93-2.85-4.32-5.17-6-7.57-5.37-3.96-4.9-5.62-6.37-1.25-1.15-3.2-1.68-4.7-2.57-1.96-1.15-2.45-1.9-3.47-2.56-1.24-.8-3.72-.8-5.18-1.28-2.14-.7-3.6-1.5-5.62-2.12C69.4.12 65.83-.46 63-.38zM38.42 5.08v14.5h3.47v-.85h-2.6V5.93h9.93v-.85h-10.8zm16.4.42v10.23h3.48v-.85h-2.58V6.35h7.34v8.6c-.5.18-.86.65-.86 1.2 0 .72.58 1.3 1.3 1.3.7 0 1.3-.58 1.3-1.3 0-.55-.37-1.02-.87-1.2V5.5h-9.08zM35 5.92c-.7 0-1.3.58-1.3 1.27 0 .54.36 1 .87 1.2v3.9H22.9v.86h12.5v-4.8c.5-.16.87-.63.87-1.2 0-.68-.6-1.26-1.32-1.26zm16.4.43V18.3h8.23v11.5h3.47v-.85h-2.6v-11.5h-8.22V6.35h-.85zm20.74.42c-.7 0-1.3.57-1.3 1.28 0 .56.38 1.03.88 1.2v5.63h4.75v14.06h6.04v7.28l-3.02 2.55v3.92c-.5.16-.86.63-.86 1.2 0 .67.6 1.27 1.3 1.27s1.3-.6 1.3-1.3c0-.54-.37-1-.86-1.2V39.2l3-2.57V28.1h-6.02V14.06h-4.76v-4.8c.5-.16.87-.63.87-1.2 0-.7-.58-1.27-1.3-1.27zm2.62 1.7v3.85h.84v-3h6.92v7.7h7.35v11.93h.86V16.18H83.4V8.5h-8.63zm-30.7 1.3v12.37h-10.8V14.9h-16.4v.84H32.4V23h12.5V9.77h-.85zm2.62 0V23h9.5v9.36h7.77l2.6-2.12v-6h-3.47v.88h2.6v4.7l-2.15 1.7h-6.48v-9.4h-9.5V9.77h-.87zm20.3 1.26c-.72 0-1.32.58-1.32 1.3 0 .55.37 1 .88 1.2v5.2h6.03v13.65h5.64v4.7l-.87.84v1.28l1.73-1.7v-5.98h-5.62V17.88H67.4v-4.35c.5-.18.85-.64.85-1.2 0-.7-.6-1.3-1.3-1.3zM14.7 17.88v.85h9.93v6.4h-3.95c-.18-.5-.66-.86-1.2-.86-.74 0-1.32.6-1.32 1.3s.58 1.28 1.3 1.28c.56 0 1.04-.36 1.22-.86h4.83v-8.13H14.7zm14.25 0v8.96H47.1v11.94h6.48v2.13h.87v-2.97h-6.5V25.98H29.82v-8.1h-.87zm56.6 1.28v14.5H99.8l-1.73-3.4h-.87l1.3 2.54H86.4V19.16h-.85zm-6.04.42v6.4h4.73v-.84h-3.87v-5.57h-.86zm13.8 0c-.7 0-1.3.58-1.3 1.3 0 .55.37 1.02.88 1.2v9.46h.86v-9.48c.5-.16.88-.63.88-1.2 0-.7-.58-1.27-1.3-1.27zm-82.07.86v6h.87v-5.17h8.63v-.86h-9.5zm53.14.43v.85h4.75v8.96l-4.32 4.26v13.23H70v-.85h-4.33V35.38L70 31.1V20.9h-5.6zm-12.53 4.7c-.7 0-1.3.56-1.3 1.27 0 .56.36 1.02.87 1.2v7.33h7.8V52h11.2v4.68l-2.6 3v10.24l4.34 3v15c-.5.2-.87.65-.87 1.2 0 .7.57 1.28 1.28 1.28.7 0 1.3-.56 1.3-1.27 0-.56-.36-1.03-.86-1.2V72.48l-4.33-3V60.1l2.6-3v-5.97H60v-16.6h-7.77v-6.48c.5-.17.88-.63.88-1.2 0-.7-.6-1.3-1.3-1.3zM8.2 28.54c-.7 0-1.3.56-1.3 1.27 0 .7.6 1.3 1.3 1.3.56 0 1.04-.36 1.2-.86h33.8v10.23h-4.77v6.84h-3.9v.87h4.77v-6.83h4.75V29.4H9.42c-.2-.5-.66-.86-1.22-.86zm13.38 4.7v5.1s-8.2-.2-8.2 0v8.54h.87c.03-.7 0-7.7 0-7.7h8.2v-5.1H39.3v1.35c-.5.2-.87.65-.87 1.2 0 .72.6 1.3 1.3 1.3.72 0 1.3-.58 1.3-1.3 0-.55-.36-1-.87-1.2v-2.2H21.58zm-6.04.4c-.56 0-1.03.37-1.2.87H8.2v7.7h.87v-6.84h5.26c.18.5.65.85 1.2.85.73 0 1.3-.6 1.3-1.3s-.57-1.26-1.3-1.26zm86.83 1.3c-.6 0-1.1.4-1.25.94l-.05-.1H85.54v7.25h9.93v-3h-.86v2.14h-8.2V36.6h14.78c.16.5.63.87 1.2.87.7 0 1.3-.57 1.3-1.28 0-.7-.6-1.3-1.3-1.3zm-30.68.85c-.73 0-1.33.55-1.33 1.26 0 .56.37 1.03.88 1.2v7.76l3.87 2.56v6.38l-2.6 3v8.52l4.34 3v11.07h.86V69.1l-4.33-3v-7.7l2.6-2.98v-7.24l-3.9-2.57v-7.3c.5-.18.88-.65.88-1.2 0-.72-.6-1.3-1.3-1.3zm-43.2.4V52h.84V37.07h5.62v6h.87v-6.85H28.5zm69.1 2.56v6.4H84.66L79.9 50.3v6.8l-3.45 3.43v4.27l3.46 2.56V87.9c-.5.2-.84.67-.84 1.23 0 .7.57 1.27 1.3 1.27.7 0 1.28-.56 1.28-1.27 0-.56-.37-1.03-.87-1.2v-21l-3.44-2.56v-3.4l3.45-3.42v-6.82l4.33-4.7h13.4V38.8h-.87zm3.46 2.13V49H94.6v.85h7.35v-8.93h-.87zm-84.23.4v3.5c-.5.18-.86.64-.86 1.2 0 .7.57 1.3 1.3 1.3.7 0 1.3-.6 1.3-1.3 0-.56-.38-1.02-.88-1.2v-2.64h7.77v8.1h-7.35v.86s8.3.04 8.2 0c-.1-.03 0-9.8 0-9.8h-9.5zm25.07 2.57v7.68H30.66v.86h12.1v-7.7h13.4v11.1H64c.17.5.64.86 1.2.86.72 0 1.3-.55 1.3-1.26 0-.7-.58-1.27-1.3-1.27-.56 0-1.03.36-1.2.85h-7V43.9H41.9zm3.03 3.42v5.54h.85v-4.68h7.35v12.78h10.8V78.1c-.5.16-.87.63-.87 1.2 0 .7.6 1.27 1.3 1.27.72 0 1.3-.57 1.3-1.28 0-.58-.36-1.04-.86-1.2v-18H54V47.3h-9.1zm42.75 2.55L82.5 55.4v9.82h7.78l3.02-2.56v-6.04c.5-.18.86-.65.86-1.2 0-.72-.58-1.3-1.3-1.3-.7 0-1.28.58-1.28 1.3 0 .55.35 1.02.85 1.2v5.6l-2.58 2.15h-6.5v-8.52l5.2-5.55-.87-.43zm.87 4.7l-2.6 2.98v5.12h.86v-4.7L89.4 55l-.86-.42zm-57.88.85v4.36c-.5.16-.87.63-.87 1.2 0 .7.57 1.26 1.3 1.26.7 0 1.3-.57 1.3-1.28 0-.56-.38-1.03-.88-1.2v-3.48h16.42v8.08H60.9v-.84H48.8v-8.1H30.65zm5.6 3v4.3h.86c0-1.17.02-2.3.02-3.45h8.63v-.86h-9.5z"/></svg>