<svg xmlns="http://www.w3.org/2000/svg" viewBox="0 0 432 98"><path fill="#777" d="M62.57 7c-.93.04-1.8.14-2.5.33-5.85 1.62-5.42.27-9 .43-1.53.07-3.43.52-5.15.43-4.8-.25-6.4-.33-13.73 2.55-1.82.72-3.86.1-5.6.86-2.65 1.2-2.62 3.2-7.72 4.72-3.8 1.14-8.14 3.47-10.3 5.98-3.34 3.92-.7 3.4-2.57 5.13-.4.4-2.6.28-3.42 1.3-1.47 1.78-.53 2.2-.86 3.4-.3 1.16-1.26 2.1-1.3 3.43 0 .7 1.07 1.14.87 3.42-.15 1.64-1.25 2.96-1.3 4.28-.07 2.55 1.02 2.55 1.3 3.85.57 2.75 1.68 5.1 3 7.3.63 1.03 2.05 1.94 3 2.98 1.4 1.5 2.28 3.5 3.87 4.7.4.3 4.4.7 7.72 1.3 3.15.56 2.7-.4 4.72-.43.9-.02 1.52.54.86 1.7-.24.42-1.27 5.14 2.14 5.57.86.1.53 1.9 1.72 2.14 1.24.25 3.08-.38 5.58.85 2.07 1.03 2.8 2.82 5.15 3.43 1.78.47 4.7-1.3 6.44-1.28 1.57.03 3.72.13 5.16.43 2.56.54 1.9 1.4 3.44 2.57.42.32 2.07.5 3.43 0 .44-.16 2.15.85 2.15.85v-.85s-.93-.83-2.15-.86c-.93-.02-2.04.42-3 0-.8-.37-.62-1.18-1.3-1.72-.9-.73-2.7-1.18-4.28-1.28-7-.45-8.07 2.38-10.3.85-3.5-2.4-3.42-2.63-5.57-3.42-1.2-.42-2.8-.34-4.3-.42-.8-.04.05-1.55-1.7-2.13-1.4-.45-2.2-.67-1.73-3.85.2-1.34.56-1.8 0-3-.3-.6-1.7-.76-2.57-.4-1.1.43-2.04.62-3 .4-4.8-1-7.85-.64-9.02-2.12-1.9-2.43-1.94-3.32-5.15-6-.65-.53-1.9-2.7-2.57-4.7-.33-.97-.63-1.9-.85-2.56-.52-1.5-1.38-1.77-1.3-3.84.06-1.1 1.28-2.35 1.3-3.43.07-4.06-.9-3.2-.86-4.7.02-.83.95-1.34 1.3-2.13.43-1-.17-2.9.85-3.85.65-.6 2.9-.62 3.43-1.3 1.6-1.98-.67-2.9 4.73-6.84 5.04-3.76 6.07-3.3 8.96-4.33 2.9-1.03 4.07-3.3 6.43-4.28 1.78-.74 4.27-.36 5.58-.85 6-2.24 5.83-2.13 7.73-2.57.62-.14 1.3.02 2.15 0 1.77-.04 3.94.26 5.15 0 4.5-.94 7.46.4 10.3-.43 6.14-1.76 12.57-.23 18.03 2.15 1.68.72 3.58.46 5.15 1.28 1.6.84 2.32 2.14 3.87 3 1.5.82 2.96 1.1 4.3 2.13.66.52.24 2.2 1.3 3 3.16 2.46 7.38 5.64 9.43 9.4 1.08 2-.6 3.34.86 4.7 6.22 5.93 5.34 8.7 6.44 13.28.24 1 1.55 1.5 1.7 3.35v.06c.23 3.02-.8 6.08-1.7 7.27-4 5.3-8.26 2.67-9.87 3.85-.73.53-.9 1.36-.43 2.56 1.68 4.34.5 6.03-.86 8.56-2.77 5.2-6.43 8.12-6.43 8.12v.86s1.84-1.25 4.3-4.28c.98-1.2 1.96-2.9 3-4.7 1.54-2.63 2.16-4.88.86-8.98-1.3-4.14 6.8 1.56 10.73-6.84.6-1.3 1.78-4.08 1.28-7.27h-.02c-.17-1.15-1.4-1.7-1.72-3-.8-3.32-.9-6.03-3-8.98-1.05-1.5-2.06-3.04-3.86-4.7-.54-.5.37-3.18-.43-4.28-1.38-1.93-2.84-4.33-5.15-6-7.52-5.4-3.93-4.93-5.58-6.4-1.27-1.14-3.22-1.68-4.7-2.57-1.95-1.16-2.44-1.9-3.45-2.57-1.23-.8-3.7-.8-5.15-1.28-2.12-.72-3.57-1.52-5.58-2.13-2.3-.7-5.85-1.28-8.67-1.2zm-24.4 5.47V27h3.44v-.85h-2.57V13.32h9.87v-.85H38.17zm16.3.42v10.26h3.45v-.86h-2.58v-8.55h7.3v8.63c-.5.18-.86.65-.86 1.2 0 .72.58 1.3 1.3 1.3.7 0 1.28-.58 1.28-1.3 0-.55-.36-1.02-.86-1.2v-9.5h-9.02zm-19.73.42c-.7 0-1.3.58-1.3 1.28 0 .56.37 1.03.87 1.2v3.94H22.73v.85h12.45v-4.8c.5-.17.86-.64.86-1.2 0-.7-.58-1.28-1.3-1.28zm16.3.43v11.97h8.17v11.55h3.44v-.86h-2.58V24.88H51.9V13.75h-.85zm20.6.43c-.7 0-1.28.57-1.28 1.28 0 .56.36 1.03.86 1.2v5.64h4.72v14.1h6v7.3l-3 2.55v3.93c-.5.18-.85.65-.85 1.2 0 .7.57 1.3 1.28 1.3.7 0 1.28-.6 1.28-1.3 0-.55-.36-1.02-.85-1.2v-3.5l3-2.57v-8.54h-6v-14.1h-4.72v-4.8c.5-.17.86-.64.86-1.2 0-.7-.58-1.28-1.3-1.28zm2.6 1.7v3.86h.84v-3h6.87v7.7h7.3V36.4h.86V23.6h-7.3v-7.7h-8.57zm-30.5 1.3v12.4H33.03V22.3h-16.3v.86h15.45v7.27H44.6V17.17h-.85zm2.6 0v13.25h9.43v9.4h7.73l2.57-2.13v-6h-3.43v.87h2.57v4.7l-2.13 1.7h-6.44v-9.4H47.2v-12.4h-.87zm20.16 1.27c-.7 0-1.3.58-1.3 1.3 0 .55.37 1 .87 1.2v5.2h6v13.7h5.6v4.7l-.87.85v1.28l1.72-1.7v-6h-5.58V25.3h-6v-4.36c.5-.18.85-.64.85-1.2 0-.7-.6-1.3-1.3-1.3zM14.57 25.3v.85h9.87v6.42H20.5c-.18-.5-.65-.86-1.2-.86-.72 0-1.3.6-1.3 1.3 0 .7.58 1.28 1.3 1.28.55 0 1.02-.36 1.2-.86h4.8V25.3H14.57zm14.16 0v8.98h18.03v11.97h6.44v2.14h.86v-3h-6.44V33.42H29.6V25.3h-.87zm56.23 1.28v14.54h14.16L97.4 37.7h-.86l1.3 2.56H85.8V26.58h-.84zm-6 .43v6.42h4.7v-.85h-3.85V27h-.85zm13.72 0c-.7 0-1.28.58-1.28 1.3 0 .55.35 1.02.85 1.2v9.48h.86v-9.5c.5-.16.87-.63.87-1.2 0-.7-.58-1.27-1.3-1.27zm-81.55.86v6H12V28.7h8.58v-.86h-9.45zm52.8.43v.85h4.72v8.98l-4.3 4.27v13.26h5.16v-.85h-4.3V42.84l4.3-4.28V28.3h-5.57zM51.48 33c-.7 0-1.3.57-1.3 1.28 0 .56.37 1.03.87 1.2v7.35h7.73V59.5h11.15v4.7l-2.57 3v10.27l4.3 3V95.5c-.5.2-.87.66-.87 1.22 0 .7.57 1.28 1.28 1.28.7 0 1.3-.57 1.3-1.28 0-.56-.37-1.03-.87-1.2V80.03l-4.28-3v-9.4l2.57-3v-6H59.62V42H51.9v-6.5c.5-.17.87-.64.87-1.2 0-.7-.58-1.3-1.3-1.3zM8.13 36c-.7 0-1.3.56-1.3 1.27 0 .7.6 1.28 1.3 1.28.56 0 1.04-.35 1.2-.85H42.9v10.26h-4.73v6.85H34.3v.86h4.73v-6.84h4.72V36.84H9.35c-.2-.5-.66-.85-1.22-.85zm13.3 4.7v5.12s-8.15-.2-8.15 0v8.56h.86c.03-.7 0-7.7 0-7.7h8.16v-5.13h16.73v1.36c-.5.2-.86.66-.86 1.2 0 .73.58 1.3 1.3 1.3.7 0 1.28-.57 1.28-1.3 0-.54-.36-1-.86-1.2v-2.2H21.43zm-6 .42c-.56 0-1.03.36-1.2.86h-6.1v7.7H9v-6.85h5.22c.18.5.65.86 1.2.86.72 0 1.3-.6 1.3-1.3 0-.7-.58-1.28-1.3-1.28zm86.26 1.28c-.6 0-1.1.4-1.24.96l-.05-.1H84.97v7.27h9.87v-3h-.86v2.14h-8.15V44.1h14.67c.16.5.63.87 1.2.87.7 0 1.28-.57 1.28-1.28 0-.72-.58-1.3-1.3-1.3zm-30.48.86c-.7 0-1.3.57-1.3 1.28 0 .56.37 1.03.87 1.2v7.78l3.85 2.57v6.4l-2.57 3v8.55l4.3 3v11.1h.85V76.63l-4.3-3v-7.7l2.58-3v-7.26l-3.85-2.57v-7.35c.5-.18.86-.65.86-1.2 0-.72-.57-1.3-1.28-1.3zm-42.92.43v15.8h.86V44.55h5.58v6h.86v-6.85h-7.3zm68.67 2.55v6.42H84.1l-4.72 5.13v6.84l-3.44 3.42v4.28l3.44 2.57v20.6c-.5.2-.86.66-.86 1.22 0 .7.57 1.28 1.3 1.28.7 0 1.27-.57 1.27-1.28 0-.56-.37-1.03-.87-1.2V74.47L76.8 71.9v-3.4l3.43-3.43v-6.84l4.3-4.7h13.3v-7.28h-.86zm3.44 2.14v8.12h-6.43v.85h7.3V48.4h-.86zm-83.68.42v3.5c-.5.18-.86.64-.86 1.2 0 .7.57 1.3 1.28 1.3.72 0 1.3-.6 1.3-1.3 0-.56-.37-1.02-.87-1.2v-2.65h7.73v8.13H18v.85s8.24.04 8.16 0c-.1-.03 0-9.83 0-9.83h-9.44zm24.9 2.56v7.7H30.44v.86h12.02v-7.7h13.3v11.12h7.8c.18.5.65.85 1.2.85.72 0 1.3-.56 1.3-1.27 0-.7-.58-1.28-1.3-1.28-.55 0-1.02.36-1.2.85h-6.94V51.38H41.6zm3 3.43v5.57h.85v-4.7h7.3v12.82H63.5v17.18c-.5.17-.86.64-.86 1.2 0 .7.58 1.28 1.3 1.28.7 0 1.27-.57 1.27-1.28 0-.56-.35-1.02-.84-1.2V67.64H53.63V54.8H44.6zm42.48 2.57l-5.15 5.56v9.84h7.73l3-2.57v-6.06c.5-.18.86-.65.86-1.2 0-.72-.58-1.3-1.3-1.3-.7 0-1.27.58-1.27 1.3 0 .55.35 1.02.85 1.2v5.63l-2.57 2.14H82.8v-8.54l5.16-5.56-.86-.43zm.86 4.7l-2.57 3v5.13h.84v-4.7l2.58-3-.86-.42zm-57.5.86v4.36c-.5.16-.87.63-.87 1.2 0 .7.57 1.27 1.28 1.27.7 0 1.3-.57 1.3-1.28 0-.57-.37-1.04-.87-1.2v-3.5h16.32v8.1H60.5v-.84H48.46v-8.13H30.45zm5.57 3c0 1.42-.02 2.85-.02 4.3h.87c0-1.16.02-2.3.02-3.45h8.57v-.86h-9.44z"/><path fill="#dd1212" d="M140 64.44c57.42.02 114.84.04 172.26.05 4.1-21.5 8.23-43 12.34-64.5 5.34 26.44 10.7 52.87 16.04 79.32 4.2-16.72 8.38-33.42 12.56-50.13l9.82 35.3 67.8-.06v3.6c-23.54 0-47.08.03-70.63.05-2.34-8.3-4.67-16.57-7-24.85-4.33 18.25-8.66 36.5-13 54.75-5.23-26.28-10.47-52.56-15.7-78.83-3.14 16.34-6.26 32.7-9.4 49.02-58.37-.03-116.73-.04-175.1-.06v-3.7z"/><path fill="#777" d="M140.43 71h2.64l3.02 10.04L149.1 71h2.64v12.5h-1.8v-9.48l-.44 1.22-2.36 8.27h-1.88l-3.03-9.56v9.57h-1.8V71zM162.76 75.97c-1.22 0-2 .75-2.4 2.2v.28h4.68v-.5c-.04-1-.67-1.62-1.9-1.9l-.38-.07zm-.08-1.37c2.67.16 3.97 1.85 3.93 5.07h-6.24c.12 1.17.7 2.04 1.73 2.5.8.36 2.04.12 3.7-.62l.46 1.13c-.8.47-1.77.83-2.95 1h-.97c-2.16-.52-3.3-2.1-3.33-4.76.12-1.96 1.02-3.33 2.8-4.15l.9-.16zM179.1 76.2c-.23 1.7-.7 3.42-1.5 5.2l-.3.7h4.24v-5.88h-2.43zm-1.25-1.36h5.1v7.26h1v3.6h-1.5v-2.2h-6.13v2.2h-1.42v-3.6c.63.2 1.03-.08 1.26-.7.9-1.93 1.5-4 1.7-6.32v-.24zM192.6 74.84h1.45v6.47l4.08-6.46h1.42v8.67h-1.42v-6.38l-4.08 6.4h-1.46v-8.67zM208.97 74.84h1.42v7.34h4v-7.34h1.38v7.34h.82v3.84h-1.37v-2.5h-6.25v-8.68zM225.92 74.84h1.45v6.47l4.13-6.46h1.37v8.67h-1.37v-6.38l-4.12 6.4h-1.45v-8.67zM242.5 74.84h1.45v3.4h4.3v-3.4h1.36v8.67h-1.36V79.6h-4.3v3.92h-1.44v-8.66zM263.68 74.68c.8.04 1.57.28 2.28.75l-.5 1.06c-.52-.48-1.15-.64-1.85-.6-1.5-.04-2.43.86-2.86 2.7-.2 1.73.36 2.95 1.62 3.58 1.1.4 2.12.23 3.1-.47l.67 1.14c-1.02.7-2.28.94-3.77.75-1.73-.68-2.67-1.94-2.87-3.78l-.08-.75c.24-2.15 1.18-3.56 2.87-4.23.22-.12.7-.16 1.4-.16"/><path fill="#777" d="M276.4 74.84h1.47v3.92l2.72-3.92h1.87l-2.55 3.53 2.8 5.14h-1.66l-2.04-4-1.14 1.62v2.4h-1.45v-8.67zM292.57 74.84h1.5v6.47l4.08-6.46h1.38v8.67h-1.37v-6.38l-4.1 6.4h-1.48v-8.67zM309.27 74.84h1.46v6.47l4.08-6.46h1.43v8.67h-1.42v-6.38l-4.07 6.4h-1.46v-8.67zm.7-2.86h1.34c.1.66.45 1.02 1 1.05l.98.08c.52-.1.87-.42 1-.96v-.16h1.28v.23c-.23 1.23-1.25 1.82-3.1 1.82-1.37-.15-2.16-.74-2.4-1.8L310 72zM356.62 74.84H358v7.34h4v-7.34h1.43v7.34h.78v3.84h-1.36v-2.5h-6.22v-8.68zM377.06 75.97c-1.22 0-2 .75-2.4 2.2v.28h4.68v-.5c-.04-1-.67-1.62-1.88-1.9l-.4-.07zM377 74.6c2.66.16 3.95 1.85 3.92 5.07h-6.25c.12 1.17.7 2.04 1.72 2.5.82.36 2.04.12 3.7-.62l.46 1.13c-.82.47-1.8.83-2.94 1h-1c-2.15-.52-3.3-2.1-3.33-4.76.1-1.96 1.02-3.33 2.8-4.15l.9-.16zM390.1 74.84h1.5v3.4h4.25v-3.4h1.37v8.67h-1.37V79.6h-4.24v3.92h-1.5v-8.66zM406.3 74.84h8.26v1.3h-3.42v7.37h-1.42v-7.36h-3.42v-1.3zM427.13 75.9c-.75 0-1.53.5-2.28 1.57v3.72c.72.98 1.58 1.37 2.64 1.17 1.6-.2 2.4-1.45 2.27-3.77-.12-1.37-.7-2.2-1.73-2.54l-.9-.16zm.5-1.14c2.4.4 3.5 2.08 3.36 5.06-.17 1.96-1.03 3.18-2.65 3.7-1.4.3-2.6 0-3.5-1V88h-1.48V74.83h1.5v1.22c.82-.9 1.72-1.37 2.8-1.3"/><g stroke="#00468c" stroke-width="2.617"><path d="m 174.51622,60.703522 0,-36.041409 -1.65062,0 0,17.178762 -29.74777,0 0,-17.178762 -1.69254,0 0,36.041409 1.69254,0 0,-17.10032 29.74777,0 0,17.10032 1.65062,0 z"/><path d="m 186.38493,39.132017 c 0,-1.72572 1.37813,-3.137673 3.06543,-3.137673 l 19.22051,0 0,-1.218463 -19.22051,0 c -2.35802,0 -4.32304,1.924439 -4.32304,4.356136 l 0,17.178762 c 0,2.395091 1.96502,4.350907 4.32304,4.350907 l 19.22051,0 0,-1.291675 -19.22051,0 c -1.6873,0 -3.06543,-1.370118 -3.06543,-3.059232 l 0,-17.178762 z m 2.16414,9.219531 18.74367,0 0,-1.25507 -18.74367,0 0,1.25507 z"/><path d="m 229.50007,33.285486 c 1.57202,0 2.98683,-0.86286 3.77284,-2.196372 L 232.1725,30.46158 c -0.55021,0.941302 -1.57202,1.568836 -2.67243,1.568836 l -4.20776,0 c -1.13709,0 -2.1589,-0.627534 -2.70911,-1.568836 l -1.06373,0.627534 c 0.74933,1.333512 2.20082,2.196372 3.77284,2.196372 l 4.20776,0 z m -13.87565,1.490395 -1.25762,0 0,23.495944 c 0,0.627535 0.12053,1.134792 0.43493,1.568837 0.27248,0.392209 0.7074,0.664141 1.13709,0.821024 0.51352,0.156884 1.10041,0.156884 1.65062,-0.03661 0.51352,-0.198719 1.02181,-0.590928 1.33621,-1.061579 l 17.37077,-22.826574 0,-0.03661 c 0.43492,-0.627534 1.14233,-0.747812 1.57201,-0.627534 0.47161,0.156883 0.70741,0.585699 0.70741,1.213233 l 0,23.495945 1.29953,0 0,-23.495945 c 0,-0.627534 -0.19912,-1.134791 -0.4716,-1.568836 -0.27773,-0.392209 -0.67073,-0.705977 -1.14233,-0.821025 -0.50829,-0.156883 -1.10041,-0.156883 -1.6087,0.03661 -0.5502,0.19872 -1.02181,0.549093 -1.37813,1.019744 l -17.32885,22.86841 -0.0419,0 c -0.42969,0.627535 -1.13709,0.784418 -1.57202,0.627535 -0.4716,-0.156884 -0.7074,-0.549093 -0.7074,-1.176628 l 0,-23.495944 z"/><path d="m 247.34244,35.994344 18.15678,0 c 1.7659,0 3.18071,1.411953 3.18071,3.179509 l 0,7.096371 c 0,1.725721 -1.41481,3.137674 -3.18071,3.137674 l -15.99787,0 0,1.296905 15.99787,0 c 2.43663,0 4.40164,-2.002882 4.40164,-4.434579 l 0,-7.096371 c 0,-2.431697 -1.96501,-4.434578 -4.40164,-4.434578 l -19.41439,0 0,25.885805 1.25761,0 0,-24.630736 z"/><path d="m 300.24076,35.994344 c 3.02351,0 5.50205,2.468303 5.50205,5.490928 l 0,12.472252 c 0,2.98079 -2.47854,5.412487 -5.50205,5.412487 l -16.70528,0 c -3.02351,0 -5.50206,-2.431697 -5.50206,-5.412487 l 0,-12.472252 c 0,-3.022625 2.47855,-5.490928 5.50206,-5.490928 l 16.70528,0 z m 0,24.672572 c 3.73092,0 6.71775,-3.022625 6.71775,-6.709392 l 0,-12.472252 c 0,-3.723372 -2.98683,-6.745997 -6.71775,-6.745997 l -16.70528,0 c -3.73092,0 -6.71775,3.022625 -6.71775,6.745997 l 0,12.472252 c 0,3.686767 2.98683,6.709392 6.71775,6.709392 l 16.70528,0 z"/><path d="m 370.11684,39.132017 c 0,-1.72572 1.41481,-3.137673 3.10211,-3.137673 l 19.17859,0 0,-1.218463 -19.17859,0 c -2.3947,0 -4.32304,1.924439 -4.32304,4.356136 l 0,17.178762 c 0,2.395091 1.92834,4.350907 4.32304,4.350907 l 19.17859,0 0,-1.291675 -19.17859,0 c -1.6873,0 -3.10211,-1.375347 -3.10211,-3.059232 l 0,-17.178762 z m 2.20082,9.219531 18.74366,0 0,-1.25507 -18.74366,0 0,1.25507 z"/><path d="m 401.82963,59.411847 8.33168,-21.33618 c 0.59213,-1.411953 1.77114,-2.316649 3.14403,-2.316649 1.41481,0 2.55714,0.904696 3.10735,2.316649 l 8.36836,21.33618 -22.95142,0 z m 24.28763,0 -8.52556,-21.806831 c -0.35632,-0.904696 -0.90653,-1.647278 -1.65061,-2.238207 -0.74933,-0.549093 -1.65062,-0.821024 -2.63575,-0.821024 -0.97989,0 -1.88642,0.271931 -2.67243,0.821024 -0.7074,0.590929 -1.25761,1.333511 -1.60869,2.238207 l -8.56748,21.806831 -3.37984,0 0,1.255069 32.54072,0 0,-1.255069 -3.50036,0 z"/></g></svg>