<svg xmlns="http://www.w3.org/2000/svg" width="512" height="512" viewBox="0 0 511.99997 511.99999"><path fill="#606060" d="M442.66 150.16v.03c3.37-7.14 5.34-14.57 5.34-22.2V96c0-53-85.97-96-192-96S64 43 64 96c0-2.63.37-5.2.78-7.75C25.12 105.8 0 131.45 0 160v32c0 29.7 27 56.22 69.34 73.8C65.97 272.95 64 280.4 64 288v32c0 11.25 4.06 21.97 11.2 32-7.14 10.03-11.2 20.75-11.2 32v32c0 53 85.97 96 192 96s192-43 192-96v-32c0-11.44-4.22-22.34-11.53-32.5-.06.06-.13.16-.2.22 5.4-7.63 9.6-15.56 10.95-23.97C486.87 310.15 512 284.55 512 256v-32c0-29.7-27-56.25-69.34-73.84zM256 16c103.72 0 176 42.16 176 80 0 37.8-72.28 80-176 80S80 133.8 80 96c0-37.84 72.28-80 176-80zM16 160c0-18.7 17.72-38.34 48-53.53V128c0 53 85.97 96 192 96 15.84 0 31.16-1.06 45.87-2.88C272.53 232.43 235.25 240 192 240c-103.72 0-176-42.2-176-80zm416 224c0 37.8-72.28 80-176 80S80 421.8 80 384c0-6.28 2.7-12.66 6.47-18.97-.03-.03-.1-.1-.13-.15C118.56 395.27 182.44 416 256 416c73.66 0 137.22-20.88 169.37-51.34-.03.03-.03.03-.06.06 3.95 6.4 6.7 12.87 6.7 19.28zm-66.06-34.88C336.56 360.44 299.28 368 256 368c-103.72 0-176-42.2-176-80 0-5.44 1.87-10.94 4.72-16.38 15.7 5.3 33.03 9.44 51.56 12.22C160.16 323.28 233.34 352 320 352c15.9 0 31.28-1.06 46.06-2.9-.03 0-.06.02-.12.02zM320 304c-41.06 0-76.88-6.75-105.56-17.1 90.22-5.3 161.47-41.52 168.78-87.15 21.78-9.66 39.22-21.7 50.44-35.38-.04 0-.04 0-.04 0C472.37 180.13 496 202.63 496 224c0 37.8-72.28 80-176 80zm-29.8-184.7c0-3.36-2.7-5.96-8.07-7.68-5.38-1.75-17.35-4-35.88-6.68-16.66-2.35-29.7-4.7-39.06-7-9.4-2.32-17-5.57-22.86-9.7-5.84-4.18-8.78-9.05-8.78-14.55 0-7.26 5.25-13.83 15.7-19.64 10.43-5.78 26.87-9.3 49.3-10.62V32h30.32v11.44c33.87 1.7 55.8 9.5 65.78 23.56l-41.75 7c-8.15-9.62-20.7-14.44-37.77-14.44-8.57 0-15.44 1.07-20.6 3.25-5.2 2.14-7.78 4.76-7.78 7.83 0 3.12 2.5 5.5 7.5 7.18 4.97 1.67 15.7 3.7 32.06 6.2 18 2.7 32.14 5.22 42.36 7.63 10.25 2.37 18.4 5.68 24.53 9.9 6.08 4.22 9.14 9.16 9.14 14.78 0 8.7-6.3 15.9-18.9 21.67-12.6 5.78-30.78 9.2-54.56 10.22V163h-30.32v-14.75c-39.65-1.66-64.18-11.13-73.65-28.3l46.88-5c4.35 10.8 18.72 16.2 43.13 16.2 11.4 0 19.85-1.15 25.23-3.46 5.37-2.33 8.06-5.1 8.06-8.4z"/></svg>