<svg xmlns="http://www.w3.org/2000/svg" width="321.999" height="380.623" viewBox="0 0 321.99914 380.62297"><path fill="#fff" d="M318.96 240.86l-134.8-145.1v-4.7c0-1.63-.2-3.25-.63-4.82l-18.94-72.1C162.4 5.8 154.85 0 146.24 0H37.9c-8.6 0-16.14 5.8-18.32 14.13L.6 86.23c-.4 1.58-.62 3.2-.62 4.83v270.62c0 10.46 8.48 18.94 18.95 18.94H165.2c10.45 0 18.94-8.48 18.94-18.94v-3.7l69.46-24.46c5.94-2.1 9.06-8.6 6.96-14.52l-2.23-6.3 60-55.76c4.62-4.27 4.88-11.48.6-16.08zM92.08 80.78c-12.98 0-23.5-10.52-23.5-23.5 0-13 10.5-23.5 23.5-23.5 12.98 0 23.5 10.5 23.5 23.5 0 12.98-10.52 23.5-23.5 23.5zm112.58 70.5l37.2 40.03-19.78 18.38-19.78-56.2 2.36-2.2zm-20.5 42.57l7.3-2.57 18.16 51.53-25.47 9v-57.94zm0 140V275.9l33.02-11.6 18.15 51.52-51.18 18.02zm65.96-44.58L234.87 246l-4.54-12.92 27.02-25.1L294.53 248l-44.4 41.28z"/></svg>