<svg xmlns="http://www.w3.org/2000/svg" width="205.591" height="311.678" viewBox="0 0 205.59099 311.67799"><path fill="#606060" d="M185.63 0H19.96C8.96 0 0 8.96 0 19.97V238.9c0 11 8.95 19.94 19.96 19.94h57.6l3.5-11.1h-61.1c-4.9 0-8.86-3.96-8.86-8.85V19.96c0-4.9 3.97-8.87 8.86-8.87h165.67c4.88 0 8.86 3.98 8.86 8.87V238.9c0 4.87-4 8.85-8.87 8.85h-3.82l4.2 11.1c10.83-.2 19.6-9.08 19.6-19.96V19.96c0-11-8.96-19.97-19.97-19.97z"/><path fill="#606060" d="M166.8 239.54l1.1-1.03c4.7-4.7 6.84-11.23 5.82-17.9l-.06-.37.15-.34c1.03-2.4 1.88-5.05 2.54-7.93l.08-.37.3-.27c3.94-3.94 6.13-9.2 6.13-14.8 0-7.55-3.95-14.3-10.6-18.1l-.3-.18-.2-.34c-.3-.54-.64-1.06-.98-1.58l-.3-.48-.14-.62c.02-5.57-2.15-10.82-6.1-14.78-3.66-3.66-8.58-5.8-13.86-6.03l-.72-.03-.36-.6c-3.85-6.4-10.54-10.23-17.9-10.23-7.4 0-14.12 3.84-17.92 10.3l-.56.94-1.03-.36c-7.36-2.52-16.1-.5-21.55 4.93-5.33 5.34-7.32 13.23-5.17 20.6l.14.48-.93 1.98-.34.25c-5.5 4-8.64 10.15-8.64 16.86 0 6 2.53 11.53 7.1 15.58l.3.25.1.37c.43 1.38.92 2.76 1.53 4.2l.13.34-.05.36c-1 6.7 1.13 13.22 5.83 17.92 1.26 1.26 2.67 2.33 4.34 3.28l.9.54-13.16 42.1c-.17.55.02 1.15.5 1.48.44.33 1.05.35 1.54.03l16.78-11.38 7.2 21.08c.2.55.7.9 1.27.9.58 0 1.1-.37 1.27-.92l13.24-42.18 1.2.3c4.1 1 8.3.7 12.22-.83l1.25-.5 22.23 58.4c.2.52.7.86 1.25.86.02 0 .03 0 .04 0 .57-.03 1.07-.4 1.24-.96l6.7-22.02 15.88 9.2c.5.28 1.1.24 1.52-.13.43-.35.6-.96.4-1.48l-21.37-56.76zm-37.68-2.1c-20.88 0-37.85-16.98-37.85-37.84 0-20.88 16.98-37.87 37.85-37.87s37.86 17 37.86 37.87c0 20.86-17 37.85-37.86 37.85z"/><path fill="#606060" d="M42.66 39.3h120.38v17.54H42.66z"/><path fill="#606060" d="M42.66 79.54h120.38v17.54H42.66z"/></svg>