<svg xmlns="http://www.w3.org/2000/svg" width="300.33" height="364.09" viewBox="0 0 300.33014 364.08998"><path fill="#fff" d="M150.17 197.2c24.12 0 80.84-29.03 80.84-98.6 0-9.7-.2-19.08-1-27.93-1.33-17.44-4.9-32.88-13.8-44.72C204.8 9.85 184.86 0 150.18 0S95.54 9.83 84.14 25.94c-8.9 11.84-12.47 27.3-13.78 44.73-.8 8.85-1.04 18.23-1.04 27.93 0 69.57 56.72 98.6 80.85 98.6zm26.38-161.08c-2.35 5.95-3.53 8.93-5.9 14.88-15.2-4.3-25.78-4.3-41 0-2.34-5.95-3.52-8.93-5.88-14.88 19.02-5.76 33.77-5.76 52.78 0zm-95.2 47.4c.93 2.03 4.9 9.87 11 10.6 7.05.84 18.74-24.94 57.82-25 39.07.07 50.76 25.84 57.8 25 6.13-.73 10.08-8.57 11-10.6.2 5 .27 10.04.27 15.08 0 34-15 55.08-27.6 66.76-15.88 14.73-33.5 20.07-41.47 20.07-7.98 0-25.6-5.34-41.47-20.07-12.6-11.68-27.6-32.75-27.6-66.76 0-5.04.06-10.1.25-15.08zM300.26 298.33c-4.13-25.67-12.63-58.73-29.67-70.48-11.65-8.02-52.25-29.7-69.58-38.97l-.32-.17c-1.97-1.04-4.4-.82-6.16.56-9.08 7.14-19.03 11.94-29.57 14.3-1.87.4-3.4 1.73-4.07 3.5l-10.73 28.3-10.74-28.3c-.67-1.77-2.2-3.1-4.06-3.5-10.54-2.36-20.5-7.16-29.58-14.3-1.8-1.38-4.2-1.6-6.2-.54-17.12 9.17-58.23 31.3-69.82 39.12-19.63 13.22-28.2 61.05-29.73 70.5-.15.95-.06 1.9.26 2.8.48 1.35 8.95 23.23 55.34 37.15v-23.9c0-10.26 8.35-18.6 18.6-18.6h75.9c10.24 0 18.6 8.34 18.6 18.6v1.92h31.7l20.38-5.36c.83-.22 1.7-.33 2.54-.33.6 0 1.2.06 1.78.17l32.28 5.83c4.76.86 8.22 5 8.22 9.84v3.97c28.12-13.06 33.95-28.17 34.34-29.28.32-.9.4-1.86.26-2.8zM201.77 326.3h-43.02v-11.92c0-4.75-3.85-8.6-8.6-8.6H74.27c-4.75 0-8.6 3.85-8.6 8.6v41.1c0 4.76 3.85 8.6 8.6 8.6h75.88c4.75 0 8.6-3.84 8.6-8.6v-11.9h43.02l21.62 5.68 32.26-5.84v-16.98l-32.28-5.84-21.63 5.7zm-65.22 24.54H87.87c-2.7 0-4.9-2.2-4.9-4.9s2.2-4.9 4.9-4.9h48.68c2.7 0 4.9 2.2 4.9 4.9s-2.2 4.9-4.9 4.9zm0-22.03H87.87c-2.7 0-4.9-2.17-4.9-4.87s2.2-4.9 4.9-4.9h48.68c2.7 0 4.9 2.2 4.9 4.9s-2.2 4.9-4.9 4.9z"/></svg>