<svg xmlns="http://www.w3.org/2000/svg" width="100" height="100" viewBox="0 0 99.999998 100"><g fill="#606060"><path d="M92.82 63.48h-6.4l5.54-3.2c1.66-.96 2.84-2.5 3.34-4.37.5-1.84.25-3.78-.7-5.43l-11.1-19.2c-.95-1.65-2.5-2.84-4.35-3.34-1.86-.5-3.8-.24-5.45.7l-5.54 3.2 3.2-5.53c.95-1.66 1.2-3.6.7-5.45s-1.68-3.4-3.33-4.36L49.53 5.4c-3.43-1.97-7.83-.8-9.8 2.64l-.5.84c-.65 1.14-.26 2.6.9 3.27 1.13.66 2.6.27 3.26-.88l.47-.84c.66-1.14 2.13-1.53 3.27-.87l19.2 11.08c.54.3.94.83 1.1 1.45.17.6.1 1.26-.23 1.8L40.65 69.94c0 .02-.03.04-.04.06l-1.36 2.35c-.2.37-.32.78-.32 1.2v1c0 .84.45 1.63 1.2 2.06.36.22.78.33 1.2.33.4 0 .82-.1 1.2-.32l2.5-1.43c.54-.32.94-.84 1.1-1.46.17-.6.08-1.25-.24-1.8l-.42-.74 3.34-5.8L50.9 69c.44.77 1.25 1.2 2.07 1.2.4 0 .82-.1 1.2-.32l9.16-5.3c.55-.3.95-.83 1.12-1.45.16-.6.07-1.26-.24-1.8l-5.28-9.17c-.32-.55-.84-.95-1.46-1.12-.1-.03-.23-.05-.35-.06l6.27-10.84L76.1 32.8c.54-.33 1.18-.4 1.8-.24.63.16 1.14.56 1.46 1.1l11.08 19.2c.32.55.4 1.2.24 1.8-.17.64-.57 1.15-1.1 1.47L43.54 82.7c-.02 0-.05.02-.07.04l-3.37 1.94c-.73.43-1.18 1.22-1.18 2.07v.28c0 1.32 1.07 2.4 2.4 2.4h3.4c1.3 0 2.38-1.08 2.38-2.4v-.86l5.8-3.34v4.2c0 1.32 1.07 2.4 2.4 2.4h10.57c1.32 0 2.4-1.08 2.4-2.4V76.45c0-.8-.4-1.5-1-1.93l10.86-6.26h14.7c1.3 0 2.38 1.08 2.38 2.4v22.16c0 1.32-1.06 2.4-2.38 2.4h-52.5c-1.33 0-2.4 1.06-2.4 2.4S39 100 40.32 100h52.5c3.96 0 7.18-3.22 7.18-7.18V70.66c0-3.96-3.22-7.2-7.18-7.2zm-36.85-6.86l2.9 5.02-5.02 2.9-2.28-3.96 1.22-2.12 3.17-1.84zm7.5 22.22v5.8h-5.8v-4.57l2.13-1.23h3.67zM87.03 89.42c1.32 0 2.4-1.07 2.4-2.4V76.46c0-1.32-1.08-2.4-2.4-2.4H76.45c-1.32 0-2.4 1.08-2.4 2.4v10.58c0 1.32 1.08 2.4 2.4 2.4h10.58zm-8.2-10.58h5.8v5.8h-5.8v-5.8zM72.5 59.3l9.16-5.3c.55-.3.95-.83 1.1-1.44.18-.62.1-1.27-.23-1.82l-5.3-9.16c-.65-1.15-2.1-1.54-3.26-.88L64.8 46c-.54.3-.94.83-1.1 1.45-.17.6-.08 1.26.23 1.8l5.3 9.17c.44.77 1.24 1.2 2.07 1.2.4 0 .82-.1 1.2-.32zm-3.22-10.36l5-2.9 2.9 5.02-5 2.9-2.9-5.02zM39.24 51.1c-.66 1.14-.27 2.6.88 3.26l.04.03c.38.2.8.3 1.2.3.82 0 1.63-.42 2.07-1.2l5.3-9.15c.3-.55.4-1.2.23-1.82-.17-.6-.57-1.13-1.12-1.45L42.5 38c-1.14-.66-2.6-.27-3.26.88-.66 1.14-.27 2.6.88 3.27l3.26 1.88-3.85 6.66c-.1.1-.2.25-.3.4zM41.58 30.78l9.16 5.3c.38.2.8.3 1.2.3.82 0 1.63-.42 2.07-1.2l5.3-9.15c.32-.55.4-1.2.24-1.82-.17-.6-.57-1.12-1.12-1.44l-9.16-5.3c-1.14-.65-2.6-.26-3.27.88l-5.3 9.17c-.32.56-.4 1.2-.24 1.82s.57 1.14 1.12 1.46zm7.36-7.97l5.02 2.9-2.9 5.02-5.02-2.9 2.9-5zM29.34 0H7.18C3.22 0 0 3.22 0 7.18v85.64C0 96.78 3.22 100 7.18 100h22.16c3.96 0 7.2-3.22 7.2-7.18V7.18c0-3.96-3.24-7.18-7.2-7.18zm2.4 92.82c0 1.32-1.08 2.4-2.4 2.4H7.18c-1.32 0-2.4-1.08-2.4-2.4V7.18c0-1.32 1.08-2.4 2.4-2.4h22.16c1.32 0 2.4 1.08 2.4 2.4v85.64zM18.26 76.95c-2.64 0-4.8 2.15-4.8 4.8s2.16 4.78 4.8 4.78 4.8-2.15 4.8-4.8-2.16-4.78-4.8-4.78z"/></g></svg>