<svg xmlns="http://www.w3.org/2000/svg" width="170.771" height="158.582"><path fill="#fff" d="M97.2 158.58h-80c-9.5 0-17.2-7.7-17.2-17.18V66.36C0 36.1 24.6 11.5 54.85 11.5h7.13v-9c0-1.38 1.12-2.5 2.5-2.5h35c1.38 0 2.5 1.12 2.5 2.5v9h27.9c9.5 0 17.2 7.7 17.2 17.2v1.97h18.7v-10.5c0-1.38 1.1-2.5 2.5-2.5 1.37 0 2.5 1.12 2.5 2.5v13c0 1.38-1.13 2.5-2.5 2.5h-21.2v73.02c0 27.5-22.38 49.88-49.9 49.88zM54.84 16.5C27.35 16.5 5 38.87 5 66.36v75.04c0 6.72 5.47 12.18 12.2 12.18h80c24.74 0 44.88-20.14 44.88-44.9v-80c0-6.7-5.47-12.18-12.2-12.18H54.86zm12.13-5h30V5h-30v6.5zm6.56 125.8c-28.8 0-52.25-23.45-52.25-52.26 0-28.8 23.43-52.25 52.24-52.25 28.8 0 52.25 23.43 52.25 52.24 0 28.8-23.45 52.25-52.26 52.25zm0-99.5C47.5 37.8 26.3 59 26.3 85.03c0 26.06 21.2 47.25 47.24 47.25 26.05 0 47.25-21.2 47.25-47.26C120.8 59 99.6 37.8 73.53 37.8zM86.3 111h-3.5c-7.16 0-13-5.83-13-13V71.92c0-7.17 5.84-13 13-13h3.5c7.18 0 13 5.83 13 13V98c0 7.17-5.82 13-13 13zm-3.5-47.08c-4.4 0-8 3.6-8 8V98c0 4.4 3.6 8 8 8h3.5c4.42 0 8-3.6 8-8V71.92c0-4.4-3.58-8-8-8h-3.5zM57 111c-1.38 0-2.5-1.12-2.5-2.5V68.54L50.4 72.6c-.96.98-2.54.98-3.52 0s-.98-2.56 0-3.53l8.33-8.34c.73-.7 1.8-.93 2.74-.54.93.38 1.54 1.3 1.54 2.3v46c0 1.38-1.12 2.5-2.5 2.5z"/></svg>