<svg xmlns="http://www.w3.org/2000/svg" width="386.868" height="420" viewBox="0 0 386.86788 419.99998"><path fill="#fff" d="M236.3 92.82h53.8v62.76l27.28-42.34v-35.5c0-2.17-.87-4.24-2.4-5.78L245.42 2.4c-1.53-1.54-3.6-2.4-5.8-2.4H24.56C11 0 0 11 0 24.54v370.92C0 409 11 420 24.55 420h268.28c13.53 0 24.55-11 24.55-24.54v-105.3l-27.27 41.7.03 60.86H27.27V27.27h198.9V82.7c0 5.6 4.55 10.12 10.14 10.12zM347.83 195.12l-11.27-7.36c-1.84-1.2-4.3-.7-5.5 1.15l-60.7 92.9-11.66-7.64 60.68-92.86c1.2-1.85.7-4.32-1.15-5.52l-11.27-7.36c-1.84-1.2-4.3-.7-5.5 1.15L210.6 308.62c-.4.6-.63 1.28-.67 1.98l-2.37 48.26c-.07 1.4.6 2.75 1.8 3.52 1.18.78 2.68.86 3.94.23l43.26-21.53c.63-.3 1.17-.8 1.55-1.38L349 200.6c1.2-1.83.7-4.3-1.15-5.5zM385.06 138.14l-40.86-26.7c-1.84-1.2-4.3-.7-5.5 1.15l-27.57 42.16c-1.2 1.84-.7 4.3 1.15 5.5l40.87 26.7c1.84 1.22 4.3.7 5.5-1.14l27.57-42.18c1.2-1.84.7-4.3-1.15-5.5zM67 87.46h78c5.52 0 10-4.48 10-10s-4.48-10-10-10H67c-5.53 0-10 4.48-10 10s4.48 10 10 10zM215 127.46c0-5.52-4.48-10-10-10H67c-5.53 0-10 4.48-10 10s4.47 10 10 10h138c5.52 0 10-4.48 10-10zM67 187.46h78c5.52 0 10-4.48 10-10s-4.48-10-10-10H67c-5.53 0-10 4.48-10 10s4.48 10 10 10zM67 237.46h78c5.52 0 10-4.48 10-10s-4.48-10-10-10H67c-5.53 0-10 4.48-10 10s4.48 10 10 10zM71.23 366.7c-1.95 2.5 1.56 6.08 3.54 3.53 6.2-8.03 11.34-16.67 15.63-25.8 2.67 1.68 6.18 1.34 9.06.2 4.15-1.63 7.67-4.8 11.02-7.65 1.98-1.7 4.3-4.48 7.03-4.75 2.1-.2 4.94 1.5 7.04 1.85 5.46.93 11.85-.65 17.13-1.96 5-1.24 10.88-3.2 13.83-7.73 1.75-2.73-2.58-5.24-4.33-2.54-2.36 3.63-8.12 4.76-12.02 5.73-4.57 1.12-9.88 2.23-14.6 1.43-3.54-.6-6.42-2.75-10.07-1.13-4.9 2.2-8.63 6.77-12.95 9.87-1.93 1.38-4.14 2.7-6.56 2.9-1 .07-1.8-.3-2.48-.9.52-1.23 1.04-2.47 1.55-3.72 4.87-12.1 7.08-24.4 9.34-37.15 1.14-6.48 3.05-16.7-6.23-17.3-8.2-.56-15.3 11.28-17.92 17.5-2.35 5.6-2.6 12.07-2.43 18.03.1 3.7 1.45 7.56 2.43 11.4-7.87 1.26-14.8 9.22-13.6 17.1 1.2 7.76 10.9 3.75 14.53.88 3.65-2.9 4.84-6.5 4.88-10.43.73 1.2 1.34 2.65 1.97 4-4.22 9.48-9.52 18.5-15.82 26.63zM80 338.4c-.75 3.3-4.92 6.55-8.2 6.85-2.6.24-1-4.38-.5-5.4 1.6-3.25 5.58-5.37 8.92-6.28.15 1.63.13 3.24-.23 4.82zm4.17-9.7c-.85-3.96-2.03-7.96-2.34-11.57-.6-6.98.65-14.3 4.1-20.4 2.17-3.8 6.57-9.64 11.25-10.14 4.17-.46 1.62 9.7 1.26 11.72-1.1 6.3-1.9 12.55-3.47 18.77-1.44 5.77-3.27 11.5-5.47 17.1-1.16-2.9-2.68-4.77-5.33-5.5z"/></svg>