<svg xmlns="http://www.w3.org/2000/svg" width="264.931" height="252.895" viewBox="0 0 264.93133 252.89499"><path fill="#1abb9c" d="M244.8 79.47l-63.2-10.2-27.57-55.45-.42-.73C148.2 4.75 140.2 0 131.75 0 123.6 0 116 4.25 110.38 11.98l-32.6 57.28-57.1 9.6-.78.17C10.56 81.7 3.73 87.7 1.13 95.5c-2.6 7.8-.72 16.7 5.14 24.4l42.67 43.9-7.38 62.55-.05.58c-.3 8.12 1.97 14.93 6.56 19.7 6.54 6.76 17.2 8.14 27.77 3.37l56.64-30.83 56.15 30.6.48.23c4.27 1.92 8.47 2.9 12.5 2.9 5.95 0 11.38-2.24 15.28-6.28 4.6-4.76 6.85-11.57 6.55-19.7l-7.42-63.1 42.1-43.24.58-.67c5.87-7.72 7.73-16.6 5.08-24.32-2.65-7.73-9.56-13.6-18.94-16.1zm2.7 31.44l-46.54 47.8 8.15 69.04c.1 3.94-.8 7.1-2.54 8.94-2.3 2.38-6.52 2.47-11.32.36l-62.76-34.2-62.76 34.2c-4.8 2.1-9 2.02-11.3-.35-1.76-1.84-2.66-5-2.56-8.95L64 158.73l-46.53-47.8c-2.8-3.85-3.77-7.7-2.7-10.9 1.06-3.2 4.15-5.7 8.72-7.1l63.4-10.65 35.3-62.16c5.76-7.62 13.84-7.42 19.2.5l30.64 61.66 69.4 11.15c4.6 1.3 7.7 3.7 8.76 6.82 1.05 3.1.1 6.88-2.7 10.7zM135.72 115.5c-3.6 0-6.65.48-9.16 1.4-1.5.58-3.58 1.73-6.25 3.47l3.18-19.25h35.96v-14.7H111l-6.2 48.65 15.53.73c1.37-2.63 3.4-4.43 6.12-5.4 1.53-.53 3.35-.8 5.45-.8 4.43 0 7.7 1.55 9.8 4.65 2.1 3.1 3.16 6.9 3.16 11.4 0 4.56-1.12 8.36-3.36 11.38-2.24 3-5.5 4.53-9.8 4.53-3.7 0-6.53-1.03-8.47-3.07-1.94-2.07-3.25-4.97-3.94-8.74h-17.27c.6 8.26 3.6 14.63 8.98 19.13 5.4 4.5 12.27 6.74 20.64 6.74 10.4 0 18.2-3.2 23.42-9.6 5.2-6.4 7.82-13.67 7.82-21.8 0-9.35-2.72-16.48-8.14-21.38-5.4-4.9-11.76-7.36-19.04-7.36z"/></svg>