<svg xmlns="http://www.w3.org/2000/svg" width="155.123" height="137.208" viewBox="0 0 155.12256 137.208"><path fill="#1abb9c" d="M150.67 75.1c7.86-7.8 5.43-23.64-8.18-23.64l-35.84.03c1.36-7.6 3.33-20.18 3.26-21.37C109.16 18.9 102 5.2 101.7 4.65c-1.3-2.43-7.9-5.73-14.56-4.32-8.58 1.84-9.46 7.3-9.43 8.82 0 0 .38 15 .4 19-4.1 9-18.24 32.7-22.53 34.52-1.02-.62-2.2-.95-3.4-.95H6.93C3.1 61.72 0 64.82 0 68.66v62.53c.28 3.35 3.14 6 6.52 6h40.64c3.6 0 6.54-2.93 6.54-6.54v-2.07s1.5-.13 2.2.32c2.6 1.65 5.83 3.74 10.05 3.74h60.64c22.66 0 20.22-20.12 18.15-22.87 3.83-4.18 6.2-11.54 2.97-17.35 2.48-2.63 6.85-9.86 2.94-17.35zm-104.9 55.56H6.5v-62.4h39.27v62.4zm94.32-56.1l-.4 1.56c10.46 2.97 4.9 15-2.6 15.8l-.37 1.54c10.02 2.54 5.24 14.94-2.6 15.8l-.38 1.53c8.18 1.32 6.2 15.3-6.2 15.3H65.87c-4.35 0-8.32-4.96-11.52-4.96h-2.8V73.12c3.48-2.16 7.77-4.97 10.15-7 4.5-3.83 22.92-33.58 22.92-37.3 0-3.73-.4-19.84-.4-19.84s3.6-4.66 11.67-1.26c0 0 6.76 12.72 7.45 22.86 0 0-3.05 20.88-4.7 27.43h42.77c10.5.04 8.5 15.04-1.34 16.58z"/></svg>