<svg xmlns="http://www.w3.org/2000/svg" width="55" height="55" viewBox="0 0 54.999999 54.999998"><path fill="#606060" d="M16.78 3.05l-.3-.35C14.58.9 12.12 0 9.65 0 7.18 0 4.7.9 2.82 2.7-.86 6.24-.93 11.9 2.57 15.5 5.3 9.7 10.44 5.16 16.77 3.06z"/><path fill="#606060" d="M52.18 3.6C50.28 1.8 47.82.9 45.35.9c-2.47 0-4.94.9-6.83 2.7l-.32.35c6.34 2.1 11.5 6.66 14.23 12.47 3.5-3.62 3.43-9.28-.25-12.8z"/><path fill="#606060" d="M45.03 12.47C40.2 7.84 33.83 5.52 27.5 5.52c-6.35 0-12.7 2.32-17.53 6.95-9.7 9.27-9.7 24.3 0 33.58.06.06.13.1.18.16l-6.24 6s-.18 2.17 2.93 2.78l6.53-6.24C17.6 51.57 22.54 53 27.5 53c4.96 0 9.9-1.43 14.15-4.26l6.52 6.24c3.2.28 2.92-2.8 2.92-2.8l-6.25-5.97c.06-.04.12-.1.18-.15 9.7-9.28 9.7-24.3 0-33.58zm-4.27 29.28c-.1.07-.18.15-.26.23l-1.06 1-1.34.9c-3.13 2.08-6.8 3.2-10.6 3.2s-7.47-1.12-10.6-3.2l-1.36-.92-1.04-.98c-.08-.08-.17-.15-.25-.22-3.44-3.35-5.35-7.8-5.35-12.5 0-4.75 1.94-9.23 5.45-12.6 3.52-3.35 8.18-5.2 13.15-5.2 4.97 0 9.63 1.85 13.14 5.2 3.52 3.37 5.45 7.85 5.45 12.6 0 4.72-1.9 9.17-5.34 12.5zM30.03 16.38c0-1.35-1.16-2.45-2.57-2.45-1.42 0-2.57 1.1-2.57 2.45V32.3H41.5c1.4 0 2.56-1.1 2.56-2.47 0-1.36-1.15-2.45-2.56-2.45h-11.5v-11z"/></svg>